  0
SECTION
  2
HEADER
  9
$ACADVER
  1
AC1018
  9
$ACADMAINTVER
 70
   104
  9
$DWGCODEPAGE
  3
ANSI_936
  9
$LASTSAVEDBY
  1
Administrator
  9
$INSBASE
 10
0.0
 20
0.0
 30
0.0
  9
$EXTMIN
 10
-766.1288933475463
 20
806.5831077221533
 30
0.0
  9
$EXTMAX
 10
946.27916079108
 20
1790.224963977197
 30
0.0
  9
$LIMMIN
 10
0.0
 20
0.0
  9
$LIMMAX
 10
2000.0
 20
1800.0
  9
$ORTHOMODE
 70
     1
  9
$REGENMODE
 70
     1
  9
$FILLMODE
 70
     1
  9
$QTEXTMODE
 70
     0
  9
$MIRRTEXT
 70
     0
  9
$LTSCALE
 40
1.0
  9
$ATTMODE
 70
     1
  9
$TEXTSIZE
 40
8.0
  9
$TRACEWID
 40
0.05
  9
$TEXTSTYLE
  7
Standard
  9
$CLAYER
  8
Layer2
  9
$CELTYPE
  6
ByLayer
  9
$CECOLOR
 62
   256
  9
$CELTSCALE
 40
1.0
  9
$DISPSILH
 70
     0
  9
$DIMSCALE
 40
1.0
  9
$DIMASZ
 40
0.18
  9
$DIMEXO
 40
8.0
  9
$DIMDLI
 40
3.0
  9
$DIMRND
 40
0.0
  9
$DIMDLE
 40
0.0
  9
$DIMEXE
 40
3.0
  9
$DIMTP
 40
0.0
  9
$DIMTM
 40
0.0
  9
$DIMTXT
 40
10.0
  9
$DIMCEN
 40
0.09
  9
$DIMTSZ
 40
0.0
  9
$DIMTOL
 70
     0
  9
$DIMLIM
 70
     0
  9
$DIMTIH
 70
     1
  9
$DIMTOH
 70
     1
  9
$DIMSE1
 70
     0
  9
$DIMSE2
 70
     0
  9
$DIMTAD
 70
     0
  9
$DIMZIN
 70
     0
  9
$DIMBLK
  1

  9
$DIMASO
 70
     1
  9
$DIMSHO
 70
     1
  9
$DIMPOST
  1

  9
$DIMAPOST
  1

  9
$DIMALT
 70
     0
  9
$DIMALTD
 70
     2
  9
$DIMALTF
 40
25.4
  9
$DIMLFAC
 40
1.0
  9
$DIMTOFL
 70
     0
  9
$DIMTVP
 40
0.0
  9
$DIMTIX
 70
     0
  9
$DIMSOXD
 70
     0
  9
$DIMSAH
 70
     0
  9
$DIMBLK1
  1

  9
$DIMBLK2
  1

  9
$DIMSTYLE
  2
Brian
  9
$DIMCLRD
 70
     0
  9
$DIMCLRE
 70
     0
  9
$DIMCLRT
 70
     0
  9
$DIMTFAC
 40
1.0
  9
$DIMGAP
 40
0.09
  9
$DIMJUST
 70
     0
  9
$DIMSD1
 70
     0
  9
$DIMSD2
 70
     0
  9
$DIMTOLJ
 70
     1
  9
$DIMTZIN
 70
     0
  9
$DIMALTZ
 70
     0
  9
$DIMALTTZ
 70
     0
  9
$DIMUPT
 70
     0
  9
$DIMDEC
 70
     4
  9
$DIMTDEC
 70
     4
  9
$DIMALTU
 70
     2
  9
$DIMALTTD
 70
     2
  9
$DIMTXSTY
  7
Standard
  9
$DIMAUNIT
 70
     0
  9
$DIMADEC
 70
     3
  9
$DIMALTRND
 40
0.0
  9
$DIMAZIN
 70
     0
  9
$DIMDSEP
 70
    46
  9
$DIMATFIT
 70
     3
  9
$DIMFRAC
 70
     0
  9
$DIMLDRBLK
  1

  9
$DIMLUNIT
 70
     2
  9
$DIMLWD
 70
    -2
  9
$DIMLWE
 70
    -2
  9
$DIMTMOVE
 70
     0
  9
$LUNITS
 70
     2
  9
$LUPREC
 70
     1
  9
$SKETCHINC
 40
0.1
  9
$FILLETRAD
 40
5.0
  9
$AUNITS
 70
     0
  9
$AUPREC
 70
     0
  9
$MENU
  1
.
  9
$ELEVATION
 40
0.0
  9
$PELEVATION
 40
0.0
  9
$THICKNESS
 40
0.0
  9
$LIMCHECK
 70
     0
  9
$CHAMFERA
 40
0.0
  9
$CHAMFERB
 40
0.0
  9
$CHAMFERC
 40
0.0
  9
$CHAMFERD
 40
0.0
  9
$SKPOLY
 70
     0
  9
$TDCREATE
 40
2457457.563456192
  9
$TDUCREATE
 40
2457457.230122859
  9
$TDUPDATE
 40
2457469.569214757
  9
$TDUUPDATE
 40
2457469.235881424
  9
$TDINDWG
 40
0.6148528472
  9
$TDUSRTIMER
 40
0.6148528241
  9
$USRTIMER
 70
     1
  9
$ANGBASE
 50
0.0
  9
$ANGDIR
 70
     0
  9
$PDMODE
 70
     2
  9
$PDSIZE
 40
0.0
  9
$PLINEWID
 40
0.0
  9
$SPLFRAME
 70
     0
  9
$SPLINETYPE
 70
     6
  9
$SPLINESEGS
 70
     8
  9
$HANDSEED
  5
1849
  9
$SURFTAB1
 70
     6
  9
$SURFTAB2
 70
     6
  9
$SURFTYPE
 70
     6
  9
$SURFU
 70
     6
  9
$SURFV
 70
     6
  9
$UCSBASE
  2

  9
$UCSNAME
  2

  9
$UCSORG
 10
0.0
 20
0.0
 30
0.0
  9
$UCSXDIR
 10
1.0
 20
0.0
 30
0.0
  9
$UCSYDIR
 10
0.0
 20
1.0
 30
0.0
  9
$UCSORTHOREF
  2

  9
$UCSORTHOVIEW
 70
     0
  9
$UCSORGTOP
 10
0.0
 20
0.0
 30
0.0
  9
$UCSORGBOTTOM
 10
0.0
 20
0.0
 30
0.0
  9
$UCSORGLEFT
 10
0.0
 20
0.0
 30
0.0
  9
$UCSORGRIGHT
 10
0.0
 20
0.0
 30
0.0
  9
$UCSORGFRONT
 10
0.0
 20
0.0
 30
0.0
  9
$UCSORGBACK
 10
0.0
 20
0.0
 30
0.0
  9
$PUCSBASE
  2

  9
$PUCSNAME
  2

  9
$PUCSORG
 10
0.0
 20
0.0
 30
0.0
  9
$PUCSXDIR
 10
1.0
 20
0.0
 30
0.0
  9
$PUCSYDIR
 10
0.0
 20
1.0
 30
0.0
  9
$PUCSORTHOREF
  2

  9
$PUCSORTHOVIEW
 70
     0
  9
$PUCSORGTOP
 10
0.0
 20
0.0
 30
0.0
  9
$PUCSORGBOTTOM
 10
0.0
 20
0.0
 30
0.0
  9
$PUCSORGLEFT
 10
0.0
 20
0.0
 30
0.0
  9
$PUCSORGRIGHT
 10
0.0
 20
0.0
 30
0.0
  9
$PUCSORGFRONT
 10
0.0
 20
0.0
 30
0.0
  9
$PUCSORGBACK
 10
0.0
 20
0.0
 30
0.0
  9
$USERI1
 70
     0
  9
$USERI2
 70
     0
  9
$USERI3
 70
     0
  9
$USERI4
 70
     0
  9
$USERI5
 70
     0
  9
$USERR1
 40
0.0
  9
$USERR2
 40
0.0
  9
$USERR3
 40
0.0
  9
$USERR4
 40
0.0
  9
$USERR5
 40
0.0
  9
$WORLDVIEW
 70
     1
  9
$SHADEDGE
 70
     3
  9
$SHADEDIF
 70
    70
  9
$TILEMODE
 70
     1
  9
$MAXACTVP
 70
    64
  9
$PINSBASE
 10
0.0
 20
0.0
 30
0.0
  9
$PLIMCHECK
 70
     0
  9
$PEXTMIN
 10
0.0
 20
0.0
 30
0.0
  9
$PEXTMAX
 10
0.0
 20
0.0
 30
0.0
  9
$PLIMMIN
 10
0.0
 20
0.0
  9
$PLIMMAX
 10
12.0
 20
9.0
  9
$UNITMODE
 70
     0
  9
$VISRETAIN
 70
     1
  9
$PLINEGEN
 70
     0
  9
$PSLTSCALE
 70
     1
  9
$TREEDEPTH
 70
  3020
  9
$CMLSTYLE
  2
Standard
  9
$CMLJUST
 70
     0
  9
$CMLSCALE
 40
1.0
  9
$PROXYGRAPHICS
 70
     1
  9
$MEASUREMENT
 70
     1
  9
$CELWEIGHT
370
    -1
  9
$ENDCAPS
280
     0
  9
$JOINSTYLE
280
     0
  9
$LWDISPLAY
290
     0
  9
$INSUNITS
 70
     4
  9
$HYPERLINKBASE
  1

  9
$STYLESHEET
  1

  9
$XEDIT
290
     1
  9
$CEPSNTYPE
380
     0
  9
$PSTYLEMODE
290
     1
  9
$FINGERPRINTGUID
  2
{8F36E5E5-0022-4F3B-8F53-17632C0D87A4}
  9
$VERSIONGUID
  2
{6FA36F99-236B-4A4E-A819-9F99B6A1FD4E}
  9
$EXTNAMES
290
     1
  9
$PSVPSCALE
 40
0.0
  9
$OLESTARTUP
290
     0
  9
$SORTENTS
280
   127
  9
$INDEXCTL
280
     0
  9
$HIDETEXT
280
     1
  9
$XCLIPFRAME
290
     0
  9
$HALOGAP
280
     0
  9
$OBSCOLOR
 70
   257
  9
$OBSLTYPE
280
     0
  9
$INTERSECTIONDISPLAY
280
     0
  9
$INTERSECTIONCOLOR
 70
   257
  9
$DIMASSOC
280
     2
  9
$PROJECTNAME
  1

  0
ENDSEC
  0
SECTION
  2
CLASSES
  0
CLASS
  1
ACDBDICTIONARYWDFLT
  2
AcDbDictionaryWithDefault
  3
ObjectDBX Classes
 90
        0
 91
        1
280
     0
281
     0
  0
CLASS
  1
DICTIONARYVAR
  2
AcDbDictionaryVar
  3
ObjectDBX Classes
 90
        0
 91
        3
280
     0
281
     0
  0
CLASS
  1
TABLESTYLE
  2
AcDbTableStyle
  3
ObjectDBX Classes
 90
     4095
 91
        1
280
     0
281
     0
  0
CLASS
  1
MATERIAL
  2
AcDbMaterial
  3
ObjectDBX Classes
 90
     1024
 91
        3
280
     0
281
     0
  0
CLASS
  1
VISUALSTYLE
  2
AcDbVisualStyle
  3
ObjectDBX Classes
 90
     4095
 91
       16
280
     0
281
     0
  0
CLASS
  1
DIMASSOC
  2
AcDbDimAssoc
  3
"AcDbDimAssoc|Product Desc:     AcDim ARX App For Dimension|Company:          Autodesk, Inc.|WEB Address:      www.autodesk.com"
 90
        0
 91
       48
280
     0
281
     0
  0
CLASS
  1
SORTENTSTABLE
  2
AcDbSortentsTable
  3
ObjectDBX Classes
 90
        0
 91
        1
280
     0
281
     0
  0
ENDSEC
  0
SECTION
  2
TABLES
  0
TABLE
  2
VPORT
  5
8
330
0
100
AcDbSymbolTable
 70
     1
  0
VPORT
  5
92
330
8
100
AcDbSymbolTableRecord
100
AcDbViewportTableRecord
  2
*Active
 70
     0
 10
0.0
 20
0.0
 11
1.0
 21
1.0
 12
-113.963288383924
 22
1596.172554775933
 13
0.0
 23
0.0
 14
10.0
 24
10.0
 15
10.0
 25
10.0
 16
0.0
 26
0.0
 36
1.0
 17
0.0
 27
0.0
 37
0.0
 40
538.5127042624175
 41
2.628514056224899
 42
50.0
 43
0.0
 44
0.0
 50
0.0
 51
0.0
 71
     0
 72
  1000
 73
     1
 74
     3
 75
     0
 76
     0
 77
     0
 78
     0
281
     0
 65
     1
110
0.0
120
0.0
130
0.0
111
1.0
121
0.0
131
0.0
112
0.0
122
1.0
132
0.0
 79
     0
146
0.0
  0
ENDTAB
  0
TABLE
  2
LTYPE
  5
5
330
0
100
AcDbSymbolTable
 70
     3
  0
LTYPE
  5
14
330
5
100
AcDbSymbolTableRecord
100
AcDbLinetypeTableRecord
  2
ByBlock
 70
     0
  3

 72
    65
 73
     0
 40
0.0
  0
LTYPE
  5
15
330
5
100
AcDbSymbolTableRecord
100
AcDbLinetypeTableRecord
  2
ByLayer
 70
     0
  3

 72
    65
 73
     0
 40
0.0
  0
LTYPE
  5
16
330
5
100
AcDbSymbolTableRecord
100
AcDbLinetypeTableRecord
  2
Continuous
 70
     0
  3
Solid line
 72
    65
 73
     0
 40
0.0
  0
LTYPE
  5
154
330
5
100
AcDbSymbolTableRecord
100
AcDbLinetypeTableRecord
  2
ACAD_ISO03W100
 70
     0
  3
ISO dash space __    __    __    __    __    __
 72
    65
 73
     2
 40
30.0
 49
12.0
 74
     0
 49
-18.0
 74
     0
  0
LTYPE
  5
15F
330
5
100
AcDbSymbolTableRecord
100
AcDbLinetypeTableRecord
  2
ACAD_ISO02W100
 70
     0
  3
ISO dash __ __ __ __ __ __ __ __ __ __ __ __ __
 72
    65
 73
     2
 40
15.0
 49
12.0
 74
     0
 49
-3.0
 74
     0
  0
ENDTAB
  0
TABLE
  2
LAYER
  5
2
102
{ACAD_XDICTIONARY
360
C8
102
}
330
0
100
AcDbSymbolTable
 70
     8
  0
LAYER
  5
10
330
2
100
AcDbSymbolTableRecord
100
AcDbLayerTableRecord
  2
0
 70
     0
 62
     7
  6
Continuous
370
    -3
390
F
  0
LAYER
  5
C5
330
2
100
AcDbSymbolTableRecord
100
AcDbLayerTableRecord
  2
Layer1
 70
     0
 62
     1
  6
Continuous
370
    -3
390
F
1001
AcAecLayerStandard
1000

1000

  0
LAYER
  5
C7
330
2
100
AcDbSymbolTableRecord
100
AcDbLayerTableRecord
  2
Layer2
 70
     0
 62
     3
  6
Continuous
370
    -3
390
F
1001
AcAecLayerStandard
1000

1000

  0
LAYER
  5
ED
330
2
100
AcDbSymbolTableRecord
100
AcDbLayerTableRecord
  2
Defpoints
 70
     0
 62
     7
  6
Continuous
290
     0
370
    -3
390
F
  0
LAYER
  5
192
330
2
100
AcDbSymbolTableRecord
100
AcDbLayerTableRecord
  2
SolidLayer
 70
     0
 62
     5
  6
Continuous
370
    -3
390
F
1001
AcAecLayerStandard
1000

1000

  0
LAYER
  5
193
330
2
100
AcDbSymbolTableRecord
100
AcDbLayerTableRecord
  2
DashLayer
 70
     0
 62
     1
  6
ACAD_ISO02W100
370
    -3
390
F
1001
AcAecLayerStandard
1000

1000

  0
LAYER
  5
26B
330
2
100
AcDbSymbolTableRecord
100
AcDbLayerTableRecord
  2
Layer3
 70
     0
 62
     6
  6
Continuous
370
    -3
390
F
1001
AcAecLayerStandard
1000

1000

  0
LAYER
  5
5A6
330
2
100
AcDbSymbolTableRecord
100
AcDbLayerTableRecord
  2
Layer4
 70
     0
 62
     5
  6
Continuous
370
    -3
390
F
1001
AcAecLayerStandard
1000

1000

  0
ENDTAB
  0
TABLE
  2
STYLE
  5
3
330
0
100
AcDbSymbolTable
 70
     2
  0
STYLE
  5
11
330
3
100
AcDbSymbolTableRecord
100
AcDbTextStyleTableRecord
  2
Standard
 70
     0
 40
8.0
 41
1.0
 50
0.0
 71
     0
 42
8.0
  3
txt.shx
  4
gbcbig.shx
  0
STYLE
  5
153
330
3
100
AcDbSymbolTableRecord
100
AcDbTextStyleTableRecord
  2

 70
     1
 40
0.0
 41
1.0
 50
0.0
 71
     0
 42
0.2
  3
ltypeshp.shx
  4

  0
ENDTAB
  0
TABLE
  2
VIEW
  5
6
330
0
100
AcDbSymbolTable
 70
     0
  0
ENDTAB
  0
TABLE
  2
UCS
  5
7
330
0
100
AcDbSymbolTable
 70
     0
  0
ENDTAB
  0
TABLE
  2
APPID
  5
9
330
0
100
AcDbSymbolTable
 70
     6
  0
APPID
  5
12
330
9
100
AcDbSymbolTableRecord
100
AcDbRegAppTableRecord
  2
ACAD
 70
     0
  0
APPID
  5
C6
330
9
100
AcDbSymbolTableRecord
100
AcDbRegAppTableRecord
  2
AcAecLayerStandard
 70
     0
  0
APPID
  5
DC
330
9
100
AcDbSymbolTableRecord
100
AcDbRegAppTableRecord
  2
ACAD_EXEMPT_FROM_CAD_STANDARDS
 70
     0
  0
APPID
  5
1846
330
9
100
AcDbSymbolTableRecord
100
AcDbRegAppTableRecord
  2
ACAD_DSTYLE_DIM_LINETYPE
 70
     0
  0
APPID
  5
1847
330
9
100
AcDbSymbolTableRecord
100
AcDbRegAppTableRecord
  2
ACAD_DSTYLE_DIM_EXT1_LINETYPE
 70
     0
  0
APPID
  5
1848
330
9
100
AcDbSymbolTableRecord
100
AcDbRegAppTableRecord
  2
ACAD_DSTYLE_DIM_EXT2_LINETYPE
 70
     0
  0
ENDTAB
  0
TABLE
  2
DIMSTYLE
  5
A
330
0
100
AcDbSymbolTable
 70
     3
100
AcDbDimStyleTable
 71
     2
340
CB
340
27
  0
DIMSTYLE
105
27
330
A
100
AcDbSymbolTableRecord
100
AcDbDimStyleTableRecord
  2
Standard
 70
     0
340
11
  0
DIMSTYLE
105
CB
102
{ACAD_REACTORS
330
6F7
330
6FA
330
6FD
330
700
330
703
330
7B9
330
C97
330
DFA
330
1023
330
10B0
330
10CA
330
10E4
330
10FE
330
1143
330
115D
330
1177
330
1191
330
11BA
330
11CA
330
11E4
330
1631
330
16AE
330
16C8
330
16E2
330
16FC
330
1716
330
1746
330
177C
330
1796
330
1818
102
}
330
A
100
AcDbSymbolTableRecord
100
AcDbDimStyleTableRecord
  2
Brian
 70
     0
 42
8.0
 43
3.0
 44
3.0
140
10.0
179
     3
340
11
1001
ACAD_DSTYLE_DIM_LINETYPE
1070
   380
1005
15F
1001
ACAD_DSTYLE_DIM_EXT1_LINETYPE
1070
   381
1005
15F
1001
ACAD_DSTYLE_DIM_EXT2_LINETYPE
1070
   382
1005
15F
  0
DIMSTYLE
105
194
330
A
100
AcDbSymbolTableRecord
100
AcDbDimStyleTableRecord
  2
ISO-25
 70
     0
 41
2.5
 42
0.625
 43
3.75
 44
1.25
 73
     0
 74
     0
 77
     1
 78
     8
140
2.5
141
2.5
143
0.03937007874016
147
0.625
171
     3
172
     1
271
     2
272
     2
274
     3
278
    44
283
     0
284
     8
340
11
  0
ENDTAB
  0
TABLE
  2
BLOCK_RECORD
  5
1
330
0
100
AcDbSymbolTable
 70
    80
  0
BLOCK_RECORD
  5
1F
102
{ACAD_XDICTIONARY
360
3A7
102
}
330
1
100
AcDbSymbolTableRecord
100
AcDbBlockTableRecord
  2
*Model_Space
340
22
  0
BLOCK_RECORD
  5
58
330
1
100
AcDbSymbolTableRecord
100
AcDbBlockTableRecord
  2
*Paper_Space
340
59
  0
BLOCK_RECORD
  5
5D
330
1
100
AcDbSymbolTableRecord
100
AcDbBlockTableRecord
  2
*Paper_Space0
340
5E
  0
BLOCK_RECORD
  5
2A3
330
1
100
AcDbSymbolTableRecord
100
AcDbBlockTableRecord
  2
*D1
340
0
  0
BLOCK_RECORD
  5
2BD
330
1
100
AcDbSymbolTableRecord
100
AcDbBlockTableRecord
  2
*D2
340
0
  0
BLOCK_RECORD
  5
2D7
330
1
100
AcDbSymbolTableRecord
100
AcDbBlockTableRecord
  2
*D3
340
0
  0
BLOCK_RECORD
  5
2F1
330
1
100
AcDbSymbolTableRecord
100
AcDbBlockTableRecord
  2
*D4
340
0
  0
BLOCK_RECORD
  5
30B
330
1
100
AcDbSymbolTableRecord
100
AcDbBlockTableRecord
  2
*D5
340
0
  0
BLOCK_RECORD
  5
325
330
1
100
AcDbSymbolTableRecord
100
AcDbBlockTableRecord
  2
*D6
340
0
  0
BLOCK_RECORD
  5
37A
330
1
100
AcDbSymbolTableRecord
100
AcDbBlockTableRecord
  2
*D7
340
0
  0
BLOCK_RECORD
  5
3FA
330
1
100
AcDbSymbolTableRecord
100
AcDbBlockTableRecord
  2
*D8
340
0
  0
BLOCK_RECORD
  5
414
330
1
100
AcDbSymbolTableRecord
100
AcDbBlockTableRecord
  2
*D9
340
0
  0
BLOCK_RECORD
  5
42E
330
1
100
AcDbSymbolTableRecord
100
AcDbBlockTableRecord
  2
*D10
340
0
  0
BLOCK_RECORD
  5
4CF
330
1
100
AcDbSymbolTableRecord
100
AcDbBlockTableRecord
  2
*D11
340
0
  0
BLOCK_RECORD
  5
4DC
330
1
100
AcDbSymbolTableRecord
100
AcDbBlockTableRecord
  2
*D12
340
0
  0
BLOCK_RECORD
  5
4E9
330
1
100
AcDbSymbolTableRecord
100
AcDbBlockTableRecord
  2
*D13
340
0
  0
BLOCK_RECORD
  5
4F6
330
1
100
AcDbSymbolTableRecord
100
AcDbBlockTableRecord
  2
*D14
340
0
  0
BLOCK_RECORD
  5
503
330
1
100
AcDbSymbolTableRecord
100
AcDbBlockTableRecord
  2
*D15
340
0
  0
BLOCK_RECORD
  5
571
330
1
100
AcDbSymbolTableRecord
100
AcDbBlockTableRecord
  2
*D16
340
0
  0
BLOCK_RECORD
  5
5B9
330
1
100
AcDbSymbolTableRecord
100
AcDbBlockTableRecord
  2
*D17
340
0
  0
BLOCK_RECORD
  5
5D3
330
1
100
AcDbSymbolTableRecord
100
AcDbBlockTableRecord
  2
*D18
340
0
  0
BLOCK_RECORD
  5
609
330
1
100
AcDbSymbolTableRecord
100
AcDbBlockTableRecord
  2
*D19
340
0
  0
BLOCK_RECORD
  5
662
330
1
100
AcDbSymbolTableRecord
100
AcDbBlockTableRecord
  2
*D20
340
0
  0
BLOCK_RECORD
  5
72E
330
1
100
AcDbSymbolTableRecord
100
AcDbBlockTableRecord
  2
*D21
340
0
  0
BLOCK_RECORD
  5
73B
330
1
100
AcDbSymbolTableRecord
100
AcDbBlockTableRecord
  2
*D22
340
0
  0
BLOCK_RECORD
  5
748
330
1
100
AcDbSymbolTableRecord
100
AcDbBlockTableRecord
  2
*D23
340
0
  0
BLOCK_RECORD
  5
755
330
1
100
AcDbSymbolTableRecord
100
AcDbBlockTableRecord
  2
*D24
340
0
  0
BLOCK_RECORD
  5
762
330
1
100
AcDbSymbolTableRecord
100
AcDbBlockTableRecord
  2
*D25
340
0
  0
BLOCK_RECORD
  5
7BA
330
1
100
AcDbSymbolTableRecord
100
AcDbBlockTableRecord
  2
*D27
340
0
  0
BLOCK_RECORD
  5
C98
330
1
100
AcDbSymbolTableRecord
100
AcDbBlockTableRecord
  2
*D33
340
0
  0
BLOCK_RECORD
  5
DFB
330
1
100
AcDbSymbolTableRecord
100
AcDbBlockTableRecord
  2
*D37
340
0
  0
BLOCK_RECORD
  5
1024
330
1
100
AcDbSymbolTableRecord
100
AcDbBlockTableRecord
  2
*D46
340
0
  0
BLOCK_RECORD
  5
10B1
330
1
100
AcDbSymbolTableRecord
100
AcDbBlockTableRecord
  2
*D49
340
0
  0
BLOCK_RECORD
  5
10CB
330
1
100
AcDbSymbolTableRecord
100
AcDbBlockTableRecord
  2
*D50
340
0
  0
BLOCK_RECORD
  5
10E5
330
1
100
AcDbSymbolTableRecord
100
AcDbBlockTableRecord
  2
*D51
340
0
  0
BLOCK_RECORD
  5
10FF
330
1
100
AcDbSymbolTableRecord
100
AcDbBlockTableRecord
  2
*D52
340
0
  0
BLOCK_RECORD
  5
1144
330
1
100
AcDbSymbolTableRecord
100
AcDbBlockTableRecord
  2
*D54
340
0
  0
BLOCK_RECORD
  5
115E
330
1
100
AcDbSymbolTableRecord
100
AcDbBlockTableRecord
  2
*D55
340
0
  0
BLOCK_RECORD
  5
1178
330
1
100
AcDbSymbolTableRecord
100
AcDbBlockTableRecord
  2
*D56
340
0
  0
BLOCK_RECORD
  5
1192
330
1
100
AcDbSymbolTableRecord
100
AcDbBlockTableRecord
  2
*D57
340
0
  0
BLOCK_RECORD
  5
11BD
330
1
100
AcDbSymbolTableRecord
100
AcDbBlockTableRecord
  2
*D58
340
0
  0
BLOCK_RECORD
  5
11CB
330
1
100
AcDbSymbolTableRecord
100
AcDbBlockTableRecord
  2
*D59
340
0
  0
BLOCK_RECORD
  5
11E5
330
1
100
AcDbSymbolTableRecord
100
AcDbBlockTableRecord
  2
*D60
340
0
  0
BLOCK_RECORD
  5
1632
330
1
100
AcDbSymbolTableRecord
100
AcDbBlockTableRecord
  2
*D63
340
0
  0
BLOCK_RECORD
  5
16AF
330
1
100
AcDbSymbolTableRecord
100
AcDbBlockTableRecord
  2
*D67
340
0
  0
BLOCK_RECORD
  5
16C9
330
1
100
AcDbSymbolTableRecord
100
AcDbBlockTableRecord
  2
*D68
340
0
  0
BLOCK_RECORD
  5
16E3
330
1
100
AcDbSymbolTableRecord
100
AcDbBlockTableRecord
  2
*D69
340
0
  0
BLOCK_RECORD
  5
16FD
330
1
100
AcDbSymbolTableRecord
100
AcDbBlockTableRecord
  2
*D70
340
0
  0
BLOCK_RECORD
  5
1717
330
1
100
AcDbSymbolTableRecord
100
AcDbBlockTableRecord
  2
*D71
340
0
  0
BLOCK_RECORD
  5
1747
330
1
100
AcDbSymbolTableRecord
100
AcDbBlockTableRecord
  2
*D72
340
0
  0
BLOCK_RECORD
  5
177D
330
1
100
AcDbSymbolTableRecord
100
AcDbBlockTableRecord
  2
*D74
340
0
  0
BLOCK_RECORD
  5
1797
330
1
100
AcDbSymbolTableRecord
100
AcDbBlockTableRecord
  2
*D75
340
0
  0
BLOCK_RECORD
  5
1819
330
1
100
AcDbSymbolTableRecord
100
AcDbBlockTableRecord
  2
*D79
340
0
  0
ENDTAB
  0
ENDSEC
  0
SECTION
  2
BLOCKS
  0
BLOCK
  5
20
330
1F
100
AcDbEntity
  8
0
100
AcDbBlockBegin
  2
*Model_Space
 70
     0
 10
0.0
 20
0.0
 30
0.0
  3
*Model_Space
  1

  0
ENDBLK
  5
21
330
1F
100
AcDbEntity
  8
0
100
AcDbBlockEnd
  0
BLOCK
  5
5A
330
58
100
AcDbEntity
 67
     1
  8
0
100
AcDbBlockBegin
  2
*Paper_Space
 70
     0
 10
0.0
 20
0.0
 30
0.0
  3
*Paper_Space
  1

  0
ENDBLK
  5
5B
330
58
100
AcDbEntity
 67
     1
  8
0
100
AcDbBlockEnd
  0
BLOCK
  5
5F
330
5D
100
AcDbEntity
 67
     1
  8
0
100
AcDbBlockBegin
  2
*Paper_Space0
 70
     0
 10
0.0
 20
0.0
 30
0.0
  3
*Paper_Space0
  1

  0
ENDBLK
  5
60
330
5D
100
AcDbEntity
 67
     1
  8
0
100
AcDbBlockEnd
  0
BLOCK
  5
2AE
330
2A3
100
AcDbEntity
  8
0
100
AcDbBlockBegin
  2
*D1
 70
     1
 10
0.0
 20
0.0
 30
0.0
  3
*D1
  1

  0
LINE
  5
13CD
330
2A3
100
AcDbEntity
  8
Layer3
  6
ACAD_ISO02W100
 62
     0
370
    -2
100
AcDbLine
 10
-42.14603611619759
 20
1041.918325616962
 30
0.0
 11
-42.14603611619759
 21
1056.447545146629
 31
0.0
  0
LINE
  5
13CE
330
2A3
100
AcDbEntity
  8
Layer3
  6
ACAD_ISO02W100
 62
     0
370
    -2
100
AcDbLine
 10
77.85396388380241
 20
1041.918325616962
 30
0.0
 11
77.85396388380241
 21
1056.447545146629
 31
0.0
  0
LINE
  5
13CF
330
2A3
100
AcDbEntity
  8
Layer3
  6
ACAD_ISO02W100
 62
     0
370
    -2
100
AcDbLine
 10
-41.96603611619759
 20
1053.447545146629
 30
0.0
 11
-5.569369449530938
 21
1053.447545146629
 31
0.0
  0
LINE
  5
13D0
330
2A3
100
AcDbEntity
  8
Layer3
  6
ACAD_ISO02W100
 62
     0
370
    -2
100
AcDbLine
 10
77.6739638838024
 20
1053.447545146629
 30
0.0
 11
41.27729721713573
 21
1053.447545146629
 31
0.0
  0
SOLID
  5
13D1
330
2A3
100
AcDbEntity
  8
Layer3
 62
     0
100
AcDbTrace
 10
-41.96603611619759
 20
1053.477545146629
 30
0.0
 11
-41.96603611619759
 21
1053.417545146629
 31
0.0
 12
-42.14603611619759
 22
1053.447545146629
 32
0.0
 13
-42.14603611619759
 23
1053.447545146629
 33
0.0
  0
SOLID
  5
13D2
330
2A3
100
AcDbEntity
  8
Layer3
 62
     0
100
AcDbTrace
 10
77.6739638838024
 20
1053.477545146629
 30
0.0
 11
77.6739638838024
 21
1053.417545146629
 31
0.0
 12
77.85396388380241
 22
1053.447545146629
 32
0.0
 13
77.85396388380241
 23
1053.447545146629
 33
0.0
  0
MTEXT
  5
13D3
330
2A3
100
AcDbEntity
  8
Layer3
 62
     0
100
AcDbMText
 10
17.8539638838024
 20
1053.447545146629
 30
0.0
 40
8.0
 41
0.0
 71
     5
 72
     1
  1
\A1;120.0000
 73
     1
 44
1.0
  0
POINT
  5
13D4
330
2A3
100
AcDbEntity
  8
Defpoints
 62
     0
100
AcDbPoint
 10
-42.14603611619759
 20
1033.918325616962
 30
0.0
  0
POINT
  5
13D5
330
2A3
100
AcDbEntity
  8
Defpoints
 62
     0
100
AcDbPoint
 10
77.85396388380241
 20
1033.918325616962
 30
0.0
  0
POINT
  5
13D6
330
2A3
100
AcDbEntity
  8
Defpoints
 62
     0
100
AcDbPoint
 10
77.85396388380241
 20
1053.447545146629
 30
0.0
  0
ENDBLK
  5
2AF
330
2A3
100
AcDbEntity
  8
0
100
AcDbBlockEnd
  0
BLOCK
  5
2C8
330
2BD
100
AcDbEntity
  8
0
100
AcDbBlockBegin
  2
*D2
 70
     1
 10
0.0
 20
0.0
 30
0.0
  3
*D2
  1

  0
LINE
  5
13D7
330
2BD
100
AcDbEntity
  8
Layer3
  6
ACAD_ISO02W100
 62
     0
370
    -2
100
AcDbLine
 10
77.85396388380241
 20
1022.744451451811
 30
0.0
 11
77.85396388380241
 21
1030.125553606643
 31
0.0
  0
LINE
  5
13D8
330
2BD
100
AcDbEntity
  8
Layer3
  6
ACAD_ISO02W100
 62
     0
370
    -2
100
AcDbLine
 10
177.8539638838024
 20
1022.744451451811
 30
0.0
 11
177.8539638838024
 21
1030.125553606643
 31
0.0
  0
LINE
  5
13D9
330
2BD
100
AcDbEntity
  8
Layer3
  6
ACAD_ISO02W100
 62
     0
370
    -2
100
AcDbLine
 10
78.03396388380241
 20
1027.125553606643
 30
0.0
 11
105.0972972171357
 21
1027.125553606643
 31
0.0
  0
LINE
  5
13DA
330
2BD
100
AcDbEntity
  8
Layer3
  6
ACAD_ISO02W100
 62
     0
370
    -2
100
AcDbLine
 10
177.6739638838024
 20
1027.125553606643
 30
0.0
 11
150.6106305504691
 21
1027.125553606643
 31
0.0
  0
SOLID
  5
13DB
330
2BD
100
AcDbEntity
  8
Layer3
 62
     0
100
AcDbTrace
 10
78.03396388380241
 20
1027.155553606643
 30
0.0
 11
78.03396388380241
 21
1027.095553606643
 31
0.0
 12
77.85396388380241
 22
1027.125553606643
 32
0.0
 13
77.85396388380241
 23
1027.125553606643
 33
0.0
  0
SOLID
  5
13DC
330
2BD
100
AcDbEntity
  8
Layer3
 62
     0
100
AcDbTrace
 10
177.6739638838024
 20
1027.155553606643
 30
0.0
 11
177.6739638838024
 21
1027.095553606643
 31
0.0
 12
177.8539638838024
 22
1027.125553606643
 32
0.0
 13
177.8539638838024
 23
1027.125553606643
 33
0.0
  0
MTEXT
  5
13DD
330
2BD
100
AcDbEntity
  8
Layer3
 62
     0
100
AcDbMText
 10
127.8539638838024
 20
1027.125553606643
 30
0.0
 40
8.0
 41
0.0
 71
     5
 72
     1
  1
\A1;100.0000
 73
     1
 44
1.0
  0
POINT
  5
13DE
330
2BD
100
AcDbEntity
  8
Defpoints
 62
     0
100
AcDbPoint
 10
77.85396388380241
 20
1014.744451451811
 30
0.0
  0
POINT
  5
13DF
330
2BD
100
AcDbEntity
  8
Defpoints
 62
     0
100
AcDbPoint
 10
177.8539638838024
 20
1014.744451451811
 30
0.0
  0
POINT
  5
13E0
330
2BD
100
AcDbEntity
  8
Defpoints
 62
     0
100
AcDbPoint
 10
177.8539638838024
 20
1027.125553606643
 30
0.0
  0
ENDBLK
  5
2C9
330
2BD
100
AcDbEntity
  8
0
100
AcDbBlockEnd
  0
BLOCK
  5
2E2
330
2D7
100
AcDbEntity
  8
0
100
AcDbBlockBegin
  2
*D3
 70
     1
 10
0.0
 20
0.0
 30
0.0
  3
*D3
  1

  0
LINE
  5
13E1
330
2D7
100
AcDbEntity
  8
Layer3
  6
ACAD_ISO02W100
 62
     0
370
    -2
100
AcDbLine
 10
177.8539638838024
 20
959.5559649918428
 30
0.0
 11
177.8539638838024
 21
954.5559649918427
 31
0.0
  0
LINE
  5
13E2
330
2D7
100
AcDbEntity
  8
Layer3
  6
ACAD_ISO02W100
 62
     0
370
    -2
100
AcDbLine
 10
297.8539638838024
 20
959.5559649918428
 30
0.0
 11
297.8539638838024
 21
954.5559649918427
 31
0.0
  0
LINE
  5
13E3
330
2D7
100
AcDbEntity
  8
Layer3
  6
ACAD_ISO02W100
 62
     0
370
    -2
100
AcDbLine
 10
178.0339638838024
 20
951.5559649918428
 30
0.0
 11
214.4306305504691
 21
951.5559649918428
 31
0.0
  0
LINE
  5
13E4
330
2D7
100
AcDbEntity
  8
Layer3
  6
ACAD_ISO02W100
 62
     0
370
    -2
100
AcDbLine
 10
297.6739638838024
 20
951.5559649918428
 30
0.0
 11
261.2772972171358
 21
951.5559649918428
 31
0.0
  0
SOLID
  5
13E5
330
2D7
100
AcDbEntity
  8
Layer3
 62
     0
100
AcDbTrace
 10
178.0339638838024
 20
951.5859649918427
 30
0.0
 11
178.0339638838024
 21
951.5259649918428
 31
0.0
 12
177.8539638838024
 22
951.5559649918428
 32
0.0
 13
177.8539638838024
 23
951.5559649918428
 33
0.0
  0
SOLID
  5
13E6
330
2D7
100
AcDbEntity
  8
Layer3
 62
     0
100
AcDbTrace
 10
297.6739638838024
 20
951.5859649918427
 30
0.0
 11
297.6739638838024
 21
951.5259649918428
 31
0.0
 12
297.8539638838024
 22
951.5559649918428
 32
0.0
 13
297.8539638838024
 23
951.5559649918428
 33
0.0
  0
MTEXT
  5
13E7
330
2D7
100
AcDbEntity
  8
Layer3
 62
     0
100
AcDbMText
 10
237.8539638838024
 20
951.5559649918428
 30
0.0
 40
8.0
 41
0.0
 71
     5
 72
     1
  1
\A1;120.0000
 73
     1
 44
1.0
  0
POINT
  5
13E8
330
2D7
100
AcDbEntity
  8
Defpoints
 62
     0
100
AcDbPoint
 10
177.8539638838024
 20
951.5559649918428
 30
0.0
  0
POINT
  5
13E9
330
2D7
100
AcDbEntity
  8
Defpoints
 62
     0
100
AcDbPoint
 10
297.8539638838024
 20
951.5559649918428
 30
0.0
  0
POINT
  5
13EA
330
2D7
100
AcDbEntity
  8
Defpoints
 62
     0
100
AcDbPoint
 10
297.8539638838024
 20
951.5559649918428
 30
0.0
  0
ENDBLK
  5
2E3
330
2D7
100
AcDbEntity
  8
0
100
AcDbBlockEnd
  0
BLOCK
  5
2FC
330
2F1
100
AcDbEntity
  8
0
100
AcDbBlockBegin
  2
*D4
 70
     1
 10
0.0
 20
0.0
 30
0.0
  3
*D4
  1

  0
LINE
  5
13EB
330
2F1
100
AcDbEntity
  8
Layer3
  6
ACAD_ISO02W100
 62
     0
370
    -2
100
AcDbLine
 10
297.8539638838024
 20
1002.010790056337
 30
0.0
 11
297.8539638838024
 21
1013.992720082135
 31
0.0
  0
LINE
  5
13EC
330
2F1
100
AcDbEntity
  8
Layer3
  6
ACAD_ISO02W100
 62
     0
370
    -2
100
AcDbLine
 10
396.8539638838024
 20
1002.010790056337
 30
0.0
 11
396.8539638838024
 21
1013.992720082135
 31
0.0
  0
LINE
  5
13ED
330
2F1
100
AcDbEntity
  8
Layer3
  6
ACAD_ISO02W100
 62
     0
370
    -2
100
AcDbLine
 10
298.0339638838024
 20
1010.992720082135
 30
0.0
 11
325.930630550469
 21
1010.992720082135
 31
0.0
  0
LINE
  5
13EE
330
2F1
100
AcDbEntity
  8
Layer3
  6
ACAD_ISO02W100
 62
     0
370
    -2
100
AcDbLine
 10
396.6739638838024
 20
1010.992720082135
 30
0.0
 11
368.7772972171357
 21
1010.992720082135
 31
0.0
  0
SOLID
  5
13EF
330
2F1
100
AcDbEntity
  8
Layer3
 62
     0
100
AcDbTrace
 10
298.0339638838024
 20
1011.022720082135
 30
0.0
 11
298.0339638838024
 21
1010.962720082135
 31
0.0
 12
297.8539638838024
 22
1010.992720082135
 32
0.0
 13
297.8539638838024
 23
1010.992720082135
 33
0.0
  0
SOLID
  5
13F0
330
2F1
100
AcDbEntity
  8
Layer3
 62
     0
100
AcDbTrace
 10
396.6739638838024
 20
1011.022720082135
 30
0.0
 11
396.6739638838024
 21
1010.962720082135
 31
0.0
 12
396.8539638838024
 22
1010.992720082135
 32
0.0
 13
396.8539638838024
 23
1010.992720082135
 33
0.0
  0
MTEXT
  5
13F1
330
2F1
100
AcDbEntity
  8
Layer3
 62
     0
100
AcDbMText
 10
347.3539638838024
 20
1010.992720082135
 30
0.0
 40
8.0
 41
0.0
 71
     5
 72
     1
  1
\A1;99.0000
 73
     1
 44
1.0
  0
POINT
  5
13F2
330
2F1
100
AcDbEntity
  8
Defpoints
 62
     0
100
AcDbPoint
 10
297.8539638838024
 20
994.0107900563376
 30
0.0
  0
POINT
  5
13F3
330
2F1
100
AcDbEntity
  8
Defpoints
 62
     0
100
AcDbPoint
 10
396.8539638838024
 20
994.0107900563376
 30
0.0
  0
POINT
  5
13F4
330
2F1
100
AcDbEntity
  8
Defpoints
 62
     0
100
AcDbPoint
 10
396.8539638838024
 20
1010.992720082135
 30
0.0
  0
ENDBLK
  5
2FD
330
2F1
100
AcDbEntity
  8
0
100
AcDbBlockEnd
  0
BLOCK
  5
316
330
30B
100
AcDbEntity
  8
0
100
AcDbBlockBegin
  2
*D5
 70
     1
 10
0.0
 20
0.0
 30
0.0
  3
*D5
  1

  0
LINE
  5
13F5
330
30B
100
AcDbEntity
  8
Layer3
  6
ACAD_ISO02W100
 62
     0
370
    -2
100
AcDbLine
 10
44.10396388380241
 20
1213.744451451811
 30
0.0
 11
14.85396388380243
 21
1213.744451451811
 31
0.0
  0
LINE
  5
13F6
330
30B
100
AcDbEntity
  8
Layer3
  6
ACAD_ISO02W100
 62
     0
370
    -2
100
AcDbLine
 10
44.10396388380241
 20
1114.744451451811
 30
0.0
 11
14.8539638838024
 21
1114.744451451811
 31
0.0
  0
LINE
  5
13F7
330
30B
100
AcDbEntity
  8
Layer3
  6
ACAD_ISO02W100
 62
     0
370
    -2
100
AcDbLine
 10
17.85396388380243
 20
1213.564451451811
 30
0.0
 11
17.85396388380242
 21
1168.334451451811
 31
0.0
  0
LINE
  5
13F8
330
30B
100
AcDbEntity
  8
Layer3
  6
ACAD_ISO02W100
 62
     0
370
    -2
100
AcDbLine
 10
17.85396388380241
 20
1114.924451451811
 30
0.0
 11
17.85396388380242
 21
1160.154451451811
 31
0.0
  0
SOLID
  5
13F9
330
30B
100
AcDbEntity
  8
Layer3
 62
     0
100
AcDbTrace
 10
17.82396388380243
 20
1213.564451451811
 30
0.0
 11
17.88396388380243
 21
1213.564451451811
 31
0.0
 12
17.85396388380243
 22
1213.744451451811
 32
0.0
 13
17.85396388380243
 23
1213.744451451811
 33
0.0
  0
SOLID
  5
13FA
330
30B
100
AcDbEntity
  8
Layer3
 62
     0
100
AcDbTrace
 10
17.8239638838024
 20
1114.924451451811
 30
0.0
 11
17.88396388380241
 21
1114.924451451811
 31
0.0
 12
17.85396388380241
 22
1114.744451451811
 32
0.0
 13
17.85396388380241
 23
1114.744451451811
 33
0.0
  0
MTEXT
  5
13FB
330
30B
100
AcDbEntity
  8
Layer3
 62
     0
100
AcDbMText
 10
17.85396388380223
 20
1164.244451451811
 30
0.0
 40
8.0
 41
0.0
 71
     5
 72
     1
  1
\A1;99.0000
 73
     1
 44
1.0
  0
POINT
  5
13FC
330
30B
100
AcDbEntity
  8
Defpoints
 62
     0
100
AcDbPoint
 10
52.10396388380241
 20
1213.744451451811
 30
0.0
  0
POINT
  5
13FD
330
30B
100
AcDbEntity
  8
Defpoints
 62
     0
100
AcDbPoint
 10
52.10396388380241
 20
1114.744451451811
 30
0.0
  0
POINT
  5
13FE
330
30B
100
AcDbEntity
  8
Defpoints
 62
     0
100
AcDbPoint
 10
17.85396388380241
 20
1114.744451451811
 30
0.0
  0
ENDBLK
  5
317
330
30B
100
AcDbEntity
  8
0
100
AcDbBlockEnd
  0
BLOCK
  5
330
330
325
100
AcDbEntity
  8
0
100
AcDbBlockBegin
  2
*D6
 70
     1
 10
0.0
 20
0.0
 30
0.0
  3
*D6
  1

  0
LINE
  5
13FF
330
325
100
AcDbEntity
  8
Layer3
  6
ACAD_ISO02W100
 62
     0
370
    -2
100
AcDbLine
 10
9.853963883802407
 20
914.7444514518111
 30
0.0
 11
-30.72118020574997
 21
914.7444514518111
 31
0.0
  0
LINE
  5
1400
330
325
100
AcDbEntity
  8
Layer3
  6
ACAD_ISO02W100
 62
     0
370
    -2
100
AcDbLine
 10
9.853963883802407
 20
844.744451451811
 30
0.0
 11
-30.72118020574999
 21
844.744451451811
 31
0.0
  0
LINE
  5
1401
330
325
100
AcDbEntity
  8
Layer3
  6
ACAD_ISO02W100
 62
     0
370
    -2
100
AcDbLine
 10
-27.72118020574998
 20
914.564451451811
 30
0.0
 11
-27.72118020574998
 21
883.834451451811
 31
0.0
  0
LINE
  5
1402
330
325
100
AcDbEntity
  8
Layer3
  6
ACAD_ISO02W100
 62
     0
370
    -2
100
AcDbLine
 10
-27.72118020574999
 20
844.924451451811
 30
0.0
 11
-27.72118020574998
 21
875.6544514518109
 31
0.0
  0
SOLID
  5
1403
330
325
100
AcDbEntity
  8
Layer3
 62
     0
100
AcDbTrace
 10
-27.75118020574998
 20
914.564451451811
 30
0.0
 11
-27.69118020574997
 21
914.564451451811
 31
0.0
 12
-27.72118020574998
 22
914.7444514518111
 32
0.0
 13
-27.72118020574998
 23
914.7444514518111
 33
0.0
  0
SOLID
  5
1404
330
325
100
AcDbEntity
  8
Layer3
 62
     0
100
AcDbTrace
 10
-27.75118020574999
 20
844.924451451811
 30
0.0
 11
-27.69118020574999
 21
844.924451451811
 31
0.0
 12
-27.72118020574999
 22
844.744451451811
 32
0.0
 13
-27.72118020574999
 23
844.744451451811
 33
0.0
  0
MTEXT
  5
1405
330
325
100
AcDbEntity
  8
Layer3
 62
     0
100
AcDbMText
 10
-27.72118020575013
 20
879.744451451811
 30
0.0
 40
8.0
 41
0.0
 71
     5
 72
     1
  1
\A1;70.0000
 73
     1
 44
1.0
  0
POINT
  5
1406
330
325
100
AcDbEntity
  8
Defpoints
 62
     0
100
AcDbPoint
 10
17.85396388380241
 20
914.7444514518111
 30
0.0
  0
POINT
  5
1407
330
325
100
AcDbEntity
  8
Defpoints
 62
     0
100
AcDbPoint
 10
17.85396388380241
 20
844.744451451811
 30
0.0
  0
POINT
  5
1408
330
325
100
AcDbEntity
  8
Defpoints
 62
     0
100
AcDbPoint
 10
-27.72118020574999
 20
844.744451451811
 30
0.0
  0
ENDBLK
  5
331
330
325
100
AcDbEntity
  8
0
100
AcDbBlockEnd
  0
BLOCK
  5
385
330
37A
100
AcDbEntity
  8
0
100
AcDbBlockBegin
  2
*D7
 70
     1
 10
0.0
 20
0.0
 30
0.0
  3
*D7
  1

  0
LINE
  5
1409
330
37A
100
AcDbEntity
  8
Layer3
  6
ACAD_ISO02W100
 62
     0
370
    -2
100
AcDbLine
 10
245.8539638838024
 20
864.7444514518111
 30
0.0
 11
254.5322067910365
 21
864.7444514518111
 31
0.0
  0
LINE
  5
140A
330
37A
100
AcDbEntity
  8
Layer3
  6
ACAD_ISO02W100
 62
     0
370
    -2
100
AcDbLine
 10
245.8539638838024
 20
914.7444514518111
 30
0.0
 11
254.5322067910365
 21
914.7444514518111
 31
0.0
  0
LINE
  5
140B
330
37A
100
AcDbEntity
  8
Layer3
  6
ACAD_ISO02W100
 62
     0
370
    -2
100
AcDbLine
 10
251.5322067910365
 20
864.9244514518111
 30
0.0
 11
251.5322067910365
 21
885.6544514518111
 31
0.0
  0
LINE
  5
140C
330
37A
100
AcDbEntity
  8
Layer3
  6
ACAD_ISO02W100
 62
     0
370
    -2
100
AcDbLine
 10
251.5322067910365
 20
914.564451451811
 30
0.0
 11
251.5322067910365
 21
893.834451451811
 31
0.0
  0
SOLID
  5
140D
330
37A
100
AcDbEntity
  8
Layer3
 62
     0
100
AcDbTrace
 10
251.5022067910365
 20
864.9244514518111
 30
0.0
 11
251.5622067910365
 21
864.9244514518111
 31
0.0
 12
251.5322067910365
 22
864.7444514518111
 32
0.0
 13
251.5322067910365
 23
864.7444514518111
 33
0.0
  0
SOLID
  5
140E
330
37A
100
AcDbEntity
  8
Layer3
 62
     0
100
AcDbTrace
 10
251.5022067910365
 20
914.564451451811
 30
0.0
 11
251.5622067910365
 21
914.564451451811
 31
0.0
 12
251.5322067910365
 22
914.7444514518111
 32
0.0
 13
251.5322067910365
 23
914.7444514518111
 33
0.0
  0
MTEXT
  5
140F
330
37A
100
AcDbEntity
  8
Layer3
 62
     0
100
AcDbMText
 10
251.5322067910364
 20
889.7444514518111
 30
0.0
 40
8.0
 41
0.0
 71
     5
 72
     1
  1
\A1;50.0000
 73
     1
 44
1.0
  0
POINT
  5
1410
330
37A
100
AcDbEntity
  8
Defpoints
 62
     0
100
AcDbPoint
 10
237.8539638838024
 20
864.7444514518111
 30
0.0
  0
POINT
  5
1411
330
37A
100
AcDbEntity
  8
Defpoints
 62
     0
100
AcDbPoint
 10
237.8539638838024
 20
914.7444514518111
 30
0.0
  0
POINT
  5
1412
330
37A
100
AcDbEntity
  8
Defpoints
 62
     0
100
AcDbPoint
 10
251.5322067910365
 20
914.7444514518111
 30
0.0
  0
ENDBLK
  5
386
330
37A
100
AcDbEntity
  8
0
100
AcDbBlockEnd
  0
BLOCK
  5
405
330
3FA
100
AcDbEntity
  8
0
100
AcDbBlockBegin
  2
*D8
 70
     1
 10
0.0
 20
0.0
 30
0.0
  3
*D8
  1

  0
LINE
  5
1413
330
3FA
100
AcDbEntity
  8
Layer2
  6
ACAD_ISO02W100
 62
     0
370
    -2
100
AcDbLine
 10
178.3539638838024
 20
850.5411901297588
 30
0.0
 11
178.3539638838024
 21
854.2444514518111
 31
0.0
  0
LINE
  5
1414
330
3FA
100
AcDbEntity
  8
Layer2
  6
ACAD_ISO02W100
 62
     0
370
    -2
100
AcDbLine
 10
217.3539638838024
 20
850.5411901297588
 30
0.0
 11
217.3539638838024
 21
854.2444514518111
 31
0.0
  0
LINE
  5
1415
330
3FA
100
AcDbEntity
  8
Layer2
  6
ACAD_ISO02W100
 62
     0
370
    -2
100
AcDbLine
 10
178.5339638838024
 20
857.244451451811
 30
0.0
 11
217.1739638838024
 21
857.244451451811
 31
0.0
  0
LINE
  5
1416
330
3FA
100
AcDbEntity
  8
Layer2
  6
ACAD_ISO02W100
 62
     0
370
    -2
100
AcDbLine
 10
217.3539638838024
 20
857.244451451811
 30
0.0
 11
217.5339638838024
 21
857.244451451811
 31
0.0
  0
SOLID
  5
1417
330
3FA
100
AcDbEntity
  8
Layer2
 62
     0
100
AcDbTrace
 10
178.5339638838024
 20
857.274451451811
 30
0.0
 11
178.5339638838024
 21
857.2144514518111
 31
0.0
 12
178.3539638838024
 22
857.244451451811
 32
0.0
 13
178.3539638838024
 23
857.244451451811
 33
0.0
  0
SOLID
  5
1418
330
3FA
100
AcDbEntity
  8
Layer2
 62
     0
100
AcDbTrace
 10
217.1739638838024
 20
857.274451451811
 30
0.0
 11
217.1739638838024
 21
857.2144514518111
 31
0.0
 12
217.3539638838024
 22
857.244451451811
 32
0.0
 13
217.3539638838024
 23
857.244451451811
 33
0.0
  0
MTEXT
  5
1419
330
3FA
100
AcDbEntity
  8
Layer2
 62
     0
100
AcDbMText
 10
238.9572972171357
 20
857.244451451811
 30
0.0
 40
8.0
 41
0.0
 71
     5
 72
     1
  1
\A1;39.0000
 73
     1
 44
1.0
  0
POINT
  5
141A
330
3FA
100
AcDbEntity
  8
Defpoints
 62
     0
100
AcDbPoint
 10
178.3539638838024
 20
858.5411901297588
 30
0.0
  0
POINT
  5
141B
330
3FA
100
AcDbEntity
  8
Defpoints
 62
     0
100
AcDbPoint
 10
217.3539638838024
 20
858.5411901297588
 30
0.0
  0
POINT
  5
141C
330
3FA
100
AcDbEntity
  8
Defpoints
 62
     0
100
AcDbPoint
 10
217.3539638838024
 20
857.244451451811
 30
0.0
  0
ENDBLK
  5
406
330
3FA
100
AcDbEntity
  8
0
100
AcDbBlockEnd
  0
BLOCK
  5
41F
330
414
100
AcDbEntity
  8
0
100
AcDbBlockBegin
  2
*D9
 70
     1
 10
0.0
 20
0.0
 30
0.0
  3
*D9
  1

  0
LINE
  5
141D
330
414
100
AcDbEntity
  8
Layer2
  6
ACAD_ISO02W100
 62
     0
370
    -2
100
AcDbLine
 10
119.3539638838024
 20
874.7444514518111
 30
0.0
 11
108.820699839709
 21
874.7444514518111
 31
0.0
  0
LINE
  5
141E
330
414
100
AcDbEntity
  8
Layer2
  6
ACAD_ISO02W100
 62
     0
370
    -2
100
AcDbLine
 10
119.7064638838024
 20
914.7444514518111
 30
0.0
 11
108.820699839709
 21
914.7444514518111
 31
0.0
  0
LINE
  5
141F
330
414
100
AcDbEntity
  8
Layer2
  6
ACAD_ISO02W100
 62
     0
370
    -2
100
AcDbLine
 10
111.820699839709
 20
874.924451451811
 30
0.0
 11
111.820699839709
 21
890.654451451811
 31
0.0
  0
LINE
  5
1420
330
414
100
AcDbEntity
  8
Layer2
  6
ACAD_ISO02W100
 62
     0
370
    -2
100
AcDbLine
 10
111.820699839709
 20
914.564451451811
 30
0.0
 11
111.820699839709
 21
898.8344514518111
 31
0.0
  0
SOLID
  5
1421
330
414
100
AcDbEntity
  8
Layer2
 62
     0
100
AcDbTrace
 10
111.790699839709
 20
874.924451451811
 30
0.0
 11
111.850699839709
 21
874.924451451811
 31
0.0
 12
111.820699839709
 22
874.7444514518111
 32
0.0
 13
111.820699839709
 23
874.7444514518111
 33
0.0
  0
SOLID
  5
1422
330
414
100
AcDbEntity
  8
Layer2
 62
     0
100
AcDbTrace
 10
111.790699839709
 20
914.564451451811
 30
0.0
 11
111.850699839709
 21
914.564451451811
 31
0.0
 12
111.820699839709
 22
914.7444514518111
 32
0.0
 13
111.820699839709
 23
914.7444514518111
 33
0.0
  0
MTEXT
  5
1423
330
414
100
AcDbEntity
  8
Layer2
 62
     0
100
AcDbMText
 10
111.8206998397089
 20
894.744451451811
 30
0.0
 40
8.0
 41
0.0
 71
     5
 72
     1
  1
\A1;40.0000
 73
     1
 44
1.0
  0
POINT
  5
1424
330
414
100
AcDbEntity
  8
Defpoints
 62
     0
100
AcDbPoint
 10
127.3539638838024
 20
874.7444514518111
 30
0.0
  0
POINT
  5
1425
330
414
100
AcDbEntity
  8
Defpoints
 62
     0
100
AcDbPoint
 10
127.7064638838024
 20
914.7444514518111
 30
0.0
  0
POINT
  5
1426
330
414
100
AcDbEntity
  8
Defpoints
 62
     0
100
AcDbPoint
 10
111.820699839709
 20
914.7444514518111
 30
0.0
  0
ENDBLK
  5
420
330
414
100
AcDbEntity
  8
0
100
AcDbBlockEnd
  0
BLOCK
  5
439
330
42E
100
AcDbEntity
  8
0
100
AcDbBlockBegin
  2
*D10
 70
     1
 10
0.0
 20
0.0
 30
0.0
  3
*D10
  1

  0
LINE
  5
1427
330
42E
100
AcDbEntity
  8
Layer2
  6
ACAD_ISO02W100
 62
     0
370
    -2
100
AcDbLine
 10
-2.146036116197592
 20
865.244451451811
 30
0.0
 11
-2.14603611619759
 21
884.0829947605323
 31
0.0
  0
LINE
  5
1428
330
42E
100
AcDbEntity
  8
Layer2
  6
ACAD_ISO02W100
 62
     0
370
    -2
100
AcDbLine
 10
37.85396388380241
 20
865.244451451811
 30
0.0
 11
37.85396388380241
 21
884.0829947605323
 31
0.0
  0
LINE
  5
1429
330
42E
100
AcDbEntity
  8
Layer2
  6
ACAD_ISO02W100
 62
     0
370
    -2
100
AcDbLine
 10
-1.966036116197591
 20
881.0829947605324
 30
0.0
 11
37.67396388380241
 21
881.0829947605324
 31
0.0
  0
LINE
  5
142A
330
42E
100
AcDbEntity
  8
Layer2
  6
ACAD_ISO02W100
 62
     0
370
    -2
100
AcDbLine
 10
37.85396388380241
 20
881.0829947605324
 30
0.0
 11
38.03396388380241
 21
881.0829947605324
 31
0.0
  0
SOLID
  5
142B
330
42E
100
AcDbEntity
  8
Layer2
 62
     0
100
AcDbTrace
 10
-1.966036116197591
 20
881.1129947605323
 30
0.0
 11
-1.966036116197591
 21
881.0529947605322
 31
0.0
 12
-2.146036116197591
 22
881.0829947605324
 32
0.0
 13
-2.146036116197591
 23
881.0829947605324
 33
0.0
  0
SOLID
  5
142C
330
42E
100
AcDbEntity
  8
Layer2
 62
     0
100
AcDbTrace
 10
37.67396388380241
 20
881.1129947605323
 30
0.0
 11
37.67396388380241
 21
881.0529947605322
 31
0.0
 12
37.85396388380241
 22
881.0829947605324
 32
0.0
 13
37.85396388380241
 23
881.0829947605324
 33
0.0
  0
MTEXT
  5
142D
330
42E
100
AcDbEntity
  8
Layer2
 62
     0
100
AcDbMText
 10
58.79063055046907
 20
881.0829947605324
 30
0.0
 40
8.0
 41
0.0
 71
     5
 72
     1
  1
\A1;40.0000
 73
     1
 44
1.0
  0
POINT
  5
142E
330
42E
100
AcDbEntity
  8
Defpoints
 62
     0
100
AcDbPoint
 10
-2.146036116197592
 20
857.244451451811
 30
0.0
  0
POINT
  5
142F
330
42E
100
AcDbEntity
  8
Defpoints
 62
     0
100
AcDbPoint
 10
37.85396388380241
 20
857.244451451811
 30
0.0
  0
POINT
  5
1430
330
42E
100
AcDbEntity
  8
Defpoints
 62
     0
100
AcDbPoint
 10
37.85396388380241
 20
881.0829947605324
 30
0.0
  0
ENDBLK
  5
43A
330
42E
100
AcDbEntity
  8
0
100
AcDbBlockEnd
  0
BLOCK
  5
4DA
330
4CF
100
AcDbEntity
  8
0
100
AcDbBlockBegin
  2
*D11
 70
     1
 10
0.0
 20
0.0
 30
0.0
  3
*D11
  1

  0
LINE
  5
1431
330
4CF
100
AcDbEntity
  8
Layer3
  6
ACAD_ISO02W100
 62
     0
370
    -2
100
AcDbLine
 10
506.7791607910798
 20
1041.918325616962
 30
0.0
 11
506.7791607910798
 21
1056.447545146629
 31
0.0
  0
LINE
  5
1432
330
4CF
100
AcDbEntity
  8
Layer3
  6
ACAD_ISO02W100
 62
     0
370
    -2
100
AcDbLine
 10
626.7791607910798
 20
1041.918325616962
 30
0.0
 11
626.7791607910798
 21
1056.447545146629
 31
0.0
  0
LINE
  5
1433
330
4CF
100
AcDbEntity
  8
Layer3
  6
ACAD_ISO02W100
 62
     0
370
    -2
100
AcDbLine
 10
506.9591607910798
 20
1053.447545146629
 30
0.0
 11
543.3558274577466
 21
1053.447545146629
 31
0.0
  0
LINE
  5
1434
330
4CF
100
AcDbEntity
  8
Layer3
  6
ACAD_ISO02W100
 62
     0
370
    -2
100
AcDbLine
 10
626.5991607910799
 20
1053.447545146629
 30
0.0
 11
590.2024941244132
 21
1053.447545146629
 31
0.0
  0
SOLID
  5
1435
330
4CF
100
AcDbEntity
  8
Layer3
 62
     0
100
AcDbTrace
 10
506.9591607910798
 20
1053.477545146629
 30
0.0
 11
506.9591607910798
 21
1053.417545146629
 31
0.0
 12
506.7791607910798
 22
1053.447545146629
 32
0.0
 13
506.7791607910798
 23
1053.447545146629
 33
0.0
  0
SOLID
  5
1436
330
4CF
100
AcDbEntity
  8
Layer3
 62
     0
100
AcDbTrace
 10
626.5991607910799
 20
1053.477545146629
 30
0.0
 11
626.5991607910799
 21
1053.417545146629
 31
0.0
 12
626.7791607910798
 22
1053.447545146629
 32
0.0
 13
626.7791607910798
 23
1053.447545146629
 33
0.0
  0
MTEXT
  5
1437
330
4CF
100
AcDbEntity
  8
Layer3
 62
     0
100
AcDbMText
 10
566.7791607910799
 20
1053.447545146629
 30
0.0
 40
8.0
 41
0.0
 71
     5
 72
     1
  1
\A1;120.0000
 73
     1
 44
1.0
  0
POINT
  5
1438
330
4CF
100
AcDbEntity
  8
Defpoints
 62
     0
100
AcDbPoint
 10
506.7791607910798
 20
1033.918325616962
 30
0.0
  0
POINT
  5
1439
330
4CF
100
AcDbEntity
  8
Defpoints
 62
     0
100
AcDbPoint
 10
626.7791607910798
 20
1033.918325616962
 30
0.0
  0
POINT
  5
143A
330
4CF
100
AcDbEntity
  8
Defpoints
 62
     0
100
AcDbPoint
 10
626.7791607910798
 20
1053.447545146629
 30
0.0
  0
ENDBLK
  5
4DB
330
4CF
100
AcDbEntity
  8
0
100
AcDbBlockEnd
  0
BLOCK
  5
4E7
330
4DC
100
AcDbEntity
  8
0
100
AcDbBlockBegin
  2
*D12
 70
     1
 10
0.0
 20
0.0
 30
0.0
  3
*D12
  1

  0
LINE
  5
143B
330
4DC
100
AcDbEntity
  8
Layer3
  6
ACAD_ISO02W100
 62
     0
370
    -2
100
AcDbLine
 10
626.7791607910798
 20
1022.744451451811
 30
0.0
 11
626.7791607910798
 21
1030.125553606643
 31
0.0
  0
LINE
  5
143C
330
4DC
100
AcDbEntity
  8
Layer3
  6
ACAD_ISO02W100
 62
     0
370
    -2
100
AcDbLine
 10
726.7791607910798
 20
1022.744451451811
 30
0.0
 11
726.7791607910798
 21
1030.125553606643
 31
0.0
  0
LINE
  5
143D
330
4DC
100
AcDbEntity
  8
Layer3
  6
ACAD_ISO02W100
 62
     0
370
    -2
100
AcDbLine
 10
626.9591607910798
 20
1027.125553606643
 30
0.0
 11
654.0224941244132
 21
1027.125553606643
 31
0.0
  0
LINE
  5
143E
330
4DC
100
AcDbEntity
  8
Layer3
  6
ACAD_ISO02W100
 62
     0
370
    -2
100
AcDbLine
 10
726.5991607910799
 20
1027.125553606643
 30
0.0
 11
699.5358274577466
 21
1027.125553606643
 31
0.0
  0
SOLID
  5
143F
330
4DC
100
AcDbEntity
  8
Layer3
 62
     0
100
AcDbTrace
 10
626.9591607910798
 20
1027.155553606643
 30
0.0
 11
626.9591607910798
 21
1027.095553606643
 31
0.0
 12
626.7791607910798
 22
1027.125553606643
 32
0.0
 13
626.7791607910798
 23
1027.125553606643
 33
0.0
  0
SOLID
  5
1440
330
4DC
100
AcDbEntity
  8
Layer3
 62
     0
100
AcDbTrace
 10
726.5991607910799
 20
1027.155553606643
 30
0.0
 11
726.5991607910799
 21
1027.095553606643
 31
0.0
 12
726.7791607910798
 22
1027.125553606643
 32
0.0
 13
726.7791607910798
 23
1027.125553606643
 33
0.0
  0
MTEXT
  5
1441
330
4DC
100
AcDbEntity
  8
Layer3
 62
     0
100
AcDbMText
 10
676.7791607910798
 20
1027.125553606643
 30
0.0
 40
8.0
 41
0.0
 71
     5
 72
     1
  1
\A1;100.0000
 73
     1
 44
1.0
  0
POINT
  5
1442
330
4DC
100
AcDbEntity
  8
Defpoints
 62
     0
100
AcDbPoint
 10
626.7791607910798
 20
1014.744451451811
 30
0.0
  0
POINT
  5
1443
330
4DC
100
AcDbEntity
  8
Defpoints
 62
     0
100
AcDbPoint
 10
726.7791607910798
 20
1014.744451451811
 30
0.0
  0
POINT
  5
1444
330
4DC
100
AcDbEntity
  8
Defpoints
 62
     0
100
AcDbPoint
 10
726.7791607910798
 20
1027.125553606643
 30
0.0
  0
ENDBLK
  5
4E8
330
4DC
100
AcDbEntity
  8
0
100
AcDbBlockEnd
  0
BLOCK
  5
4F4
330
4E9
100
AcDbEntity
  8
0
100
AcDbBlockBegin
  2
*D13
 70
     1
 10
0.0
 20
0.0
 30
0.0
  3
*D13
  1

  0
LINE
  5
1445
330
4E9
100
AcDbEntity
  8
Layer3
  6
ACAD_ISO02W100
 62
     0
370
    -2
100
AcDbLine
 10
726.7791607910798
 20
959.5559649918428
 30
0.0
 11
726.7791607910798
 21
954.5559649918427
 31
0.0
  0
LINE
  5
1446
330
4E9
100
AcDbEntity
  8
Layer3
  6
ACAD_ISO02W100
 62
     0
370
    -2
100
AcDbLine
 10
846.7791607910799
 20
959.5559649918428
 30
0.0
 11
846.7791607910799
 21
954.5559649918427
 31
0.0
  0
LINE
  5
1447
330
4E9
100
AcDbEntity
  8
Layer3
  6
ACAD_ISO02W100
 62
     0
370
    -2
100
AcDbLine
 10
726.9591607910798
 20
951.5559649918428
 30
0.0
 11
763.3558274577466
 21
951.5559649918428
 31
0.0
  0
LINE
  5
1448
330
4E9
100
AcDbEntity
  8
Layer3
  6
ACAD_ISO02W100
 62
     0
370
    -2
100
AcDbLine
 10
846.5991607910799
 20
951.5559649918428
 30
0.0
 11
810.2024941244131
 21
951.5559649918428
 31
0.0
  0
SOLID
  5
1449
330
4E9
100
AcDbEntity
  8
Layer3
 62
     0
100
AcDbTrace
 10
726.9591607910798
 20
951.5859649918427
 30
0.0
 11
726.9591607910798
 21
951.5259649918428
 31
0.0
 12
726.7791607910798
 22
951.5559649918428
 32
0.0
 13
726.7791607910798
 23
951.5559649918428
 33
0.0
  0
SOLID
  5
144A
330
4E9
100
AcDbEntity
  8
Layer3
 62
     0
100
AcDbTrace
 10
846.5991607910799
 20
951.5859649918427
 30
0.0
 11
846.5991607910799
 21
951.5259649918428
 31
0.0
 12
846.7791607910799
 22
951.5559649918428
 32
0.0
 13
846.7791607910799
 23
951.5559649918428
 33
0.0
  0
MTEXT
  5
144B
330
4E9
100
AcDbEntity
  8
Layer3
 62
     0
100
AcDbMText
 10
786.7791607910799
 20
951.5559649918428
 30
0.0
 40
8.0
 41
0.0
 71
     5
 72
     1
  1
\A1;120.0000
 73
     1
 44
1.0
  0
POINT
  5
144C
330
4E9
100
AcDbEntity
  8
Defpoints
 62
     0
100
AcDbPoint
 10
726.7791607910798
 20
951.5559649918428
 30
0.0
  0
POINT
  5
144D
330
4E9
100
AcDbEntity
  8
Defpoints
 62
     0
100
AcDbPoint
 10
846.7791607910799
 20
951.5559649918428
 30
0.0
  0
POINT
  5
144E
330
4E9
100
AcDbEntity
  8
Defpoints
 62
     0
100
AcDbPoint
 10
846.7791607910799
 20
951.5559649918428
 30
0.0
  0
ENDBLK
  5
4F5
330
4E9
100
AcDbEntity
  8
0
100
AcDbBlockEnd
  0
BLOCK
  5
501
330
4F6
100
AcDbEntity
  8
0
100
AcDbBlockBegin
  2
*D14
 70
     1
 10
0.0
 20
0.0
 30
0.0
  3
*D14
  1

  0
LINE
  5
144F
330
4F6
100
AcDbEntity
  8
Layer3
  6
ACAD_ISO02W100
 62
     0
370
    -2
100
AcDbLine
 10
846.7791607910799
 20
1002.010790056337
 30
0.0
 11
846.7791607910799
 21
1013.992720082135
 31
0.0
  0
LINE
  5
1450
330
4F6
100
AcDbEntity
  8
Layer3
  6
ACAD_ISO02W100
 62
     0
370
    -2
100
AcDbLine
 10
945.7791607910799
 20
1002.010790056337
 30
0.0
 11
945.7791607910799
 21
1013.992720082135
 31
0.0
  0
LINE
  5
1451
330
4F6
100
AcDbEntity
  8
Layer3
  6
ACAD_ISO02W100
 62
     0
370
    -2
100
AcDbLine
 10
846.9591607910798
 20
1010.992720082135
 30
0.0
 11
874.8558274577465
 21
1010.992720082135
 31
0.0
  0
LINE
  5
1452
330
4F6
100
AcDbEntity
  8
Layer3
  6
ACAD_ISO02W100
 62
     0
370
    -2
100
AcDbLine
 10
945.5991607910799
 20
1010.992720082135
 30
0.0
 11
917.7024941244132
 21
1010.992720082135
 31
0.0
  0
SOLID
  5
1453
330
4F6
100
AcDbEntity
  8
Layer3
 62
     0
100
AcDbTrace
 10
846.9591607910798
 20
1011.022720082135
 30
0.0
 11
846.9591607910798
 21
1010.962720082135
 31
0.0
 12
846.7791607910799
 22
1010.992720082135
 32
0.0
 13
846.7791607910799
 23
1010.992720082135
 33
0.0
  0
SOLID
  5
1454
330
4F6
100
AcDbEntity
  8
Layer3
 62
     0
100
AcDbTrace
 10
945.5991607910799
 20
1011.022720082135
 30
0.0
 11
945.5991607910799
 21
1010.962720082135
 31
0.0
 12
945.7791607910799
 22
1010.992720082135
 32
0.0
 13
945.7791607910799
 23
1010.992720082135
 33
0.0
  0
MTEXT
  5
1455
330
4F6
100
AcDbEntity
  8
Layer3
 62
     0
100
AcDbMText
 10
896.27916079108
 20
1010.992720082135
 30
0.0
 40
8.0
 41
0.0
 71
     5
 72
     1
  1
\A1;99.0000
 73
     1
 44
1.0
  0
POINT
  5
1456
330
4F6
100
AcDbEntity
  8
Defpoints
 62
     0
100
AcDbPoint
 10
846.7791607910799
 20
994.0107900563376
 30
0.0
  0
POINT
  5
1457
330
4F6
100
AcDbEntity
  8
Defpoints
 62
     0
100
AcDbPoint
 10
945.7791607910799
 20
994.0107900563376
 30
0.0
  0
POINT
  5
1458
330
4F6
100
AcDbEntity
  8
Defpoints
 62
     0
100
AcDbPoint
 10
945.7791607910799
 20
1010.992720082135
 30
0.0
  0
ENDBLK
  5
502
330
4F6
100
AcDbEntity
  8
0
100
AcDbBlockEnd
  0
BLOCK
  5
50E
330
503
100
AcDbEntity
  8
0
100
AcDbBlockBegin
  2
*D15
 70
     1
 10
0.0
 20
0.0
 30
0.0
  3
*D15
  1

  0
LINE
  5
1459
330
503
100
AcDbEntity
  8
Layer3
  6
ACAD_ISO02W100
 62
     0
370
    -2
100
AcDbLine
 10
593.0291607910799
 20
1213.744451451811
 30
0.0
 11
563.7791607910799
 21
1213.744451451811
 31
0.0
  0
LINE
  5
145A
330
503
100
AcDbEntity
  8
Layer3
  6
ACAD_ISO02W100
 62
     0
370
    -2
100
AcDbLine
 10
593.0291607910799
 20
1114.744451451811
 30
0.0
 11
563.7791607910799
 21
1114.744451451811
 31
0.0
  0
LINE
  5
145B
330
503
100
AcDbEntity
  8
Layer3
  6
ACAD_ISO02W100
 62
     0
370
    -2
100
AcDbLine
 10
566.7791607910799
 20
1213.564451451811
 30
0.0
 11
566.7791607910799
 21
1168.334451451811
 31
0.0
  0
LINE
  5
145C
330
503
100
AcDbEntity
  8
Layer3
  6
ACAD_ISO02W100
 62
     0
370
    -2
100
AcDbLine
 10
566.7791607910799
 20
1114.924451451811
 30
0.0
 11
566.7791607910799
 21
1160.154451451811
 31
0.0
  0
SOLID
  5
145D
330
503
100
AcDbEntity
  8
Layer3
 62
     0
100
AcDbTrace
 10
566.7491607910799
 20
1213.564451451811
 30
0.0
 11
566.8091607910798
 21
1213.564451451811
 31
0.0
 12
566.7791607910799
 22
1213.744451451811
 32
0.0
 13
566.7791607910799
 23
1213.744451451811
 33
0.0
  0
SOLID
  5
145E
330
503
100
AcDbEntity
  8
Layer3
 62
     0
100
AcDbTrace
 10
566.7491607910799
 20
1114.924451451811
 30
0.0
 11
566.8091607910798
 21
1114.924451451811
 31
0.0
 12
566.7791607910799
 22
1114.744451451811
 32
0.0
 13
566.7791607910799
 23
1114.744451451811
 33
0.0
  0
MTEXT
  5
145F
330
503
100
AcDbEntity
  8
Layer3
 62
     0
100
AcDbMText
 10
566.7791607910798
 20
1164.244451451811
 30
0.0
 40
8.0
 41
0.0
 71
     5
 72
     1
  1
\A1;99.0000
 73
     1
 44
1.0
  0
POINT
  5
1460
330
503
100
AcDbEntity
  8
Defpoints
 62
     0
100
AcDbPoint
 10
601.0291607910799
 20
1213.744451451811
 30
0.0
  0
POINT
  5
1461
330
503
100
AcDbEntity
  8
Defpoints
 62
     0
100
AcDbPoint
 10
601.0291607910799
 20
1114.744451451811
 30
0.0
  0
POINT
  5
1462
330
503
100
AcDbEntity
  8
Defpoints
 62
     0
100
AcDbPoint
 10
566.7791607910799
 20
1114.744451451811
 30
0.0
  0
ENDBLK
  5
50F
330
503
100
AcDbEntity
  8
0
100
AcDbBlockEnd
  0
BLOCK
  5
57C
330
571
100
AcDbEntity
  8
0
100
AcDbBlockBegin
  2
*D16
 70
     1
 10
0.0
 20
0.0
 30
0.0
  3
*D16
  1

  0
LINE
  5
1463
330
571
100
AcDbEntity
  8
Layer2
  6
ACAD_ISO02W100
 62
     0
370
    -2
100
AcDbLine
 10
528.7791607910799
 20
864.7444514518111
 30
0.0
 11
454.0936926344619
 21
864.7444514518111
 31
0.0
  0
LINE
  5
1464
330
571
100
AcDbEntity
  8
Layer2
  6
ACAD_ISO02W100
 62
     0
370
    -2
100
AcDbLine
 10
534.09729931131
 20
914.7444514518111
 30
0.0
 11
454.093692634462
 21
914.7444514518111
 31
0.0
  0
LINE
  5
1465
330
571
100
AcDbEntity
  8
Layer2
  6
ACAD_ISO02W100
 62
     0
370
    -2
100
AcDbLine
 10
457.093692634462
 20
864.9244514518111
 30
0.0
 11
457.093692634462
 21
885.6544514518111
 31
0.0
  0
LINE
  5
1466
330
571
100
AcDbEntity
  8
Layer2
  6
ACAD_ISO02W100
 62
     0
370
    -2
100
AcDbLine
 10
457.0936926344621
 20
914.564451451811
 30
0.0
 11
457.093692634462
 21
893.834451451811
 31
0.0
  0
SOLID
  5
1467
330
571
100
AcDbEntity
  8
Layer2
 62
     0
100
AcDbTrace
 10
457.063692634462
 20
864.9244514518111
 30
0.0
 11
457.1236926344619
 21
864.9244514518111
 31
0.0
 12
457.093692634462
 22
864.7444514518111
 32
0.0
 13
457.093692634462
 23
864.7444514518111
 33
0.0
  0
SOLID
  5
1468
330
571
100
AcDbEntity
  8
Layer2
 62
     0
100
AcDbTrace
 10
457.063692634462
 20
914.564451451811
 30
0.0
 11
457.123692634462
 21
914.564451451811
 31
0.0
 12
457.0936926344621
 22
914.7444514518111
 32
0.0
 13
457.0936926344621
 23
914.7444514518111
 33
0.0
  0
MTEXT
  5
1469
330
571
100
AcDbEntity
  8
Layer2
 62
     0
100
AcDbMText
 10
457.0936926344619
 20
889.7444514518111
 30
0.0
 40
8.0
 41
0.0
 71
     5
 72
     1
  1
\A1;50.0000
 73
     1
 44
1.0
  0
POINT
  5
146A
330
571
100
AcDbEntity
  8
Defpoints
 62
     0
100
AcDbPoint
 10
536.7791607910799
 20
864.7444514518111
 30
0.0
  0
POINT
  5
146B
330
571
100
AcDbEntity
  8
Defpoints
 62
     0
100
AcDbPoint
 10
542.09729931131
 20
914.7444514518111
 30
0.0
  0
POINT
  5
146C
330
571
100
AcDbEntity
  8
Defpoints
 62
     0
100
AcDbPoint
 10
457.0936926344621
 20
914.7444514518111
 30
0.0
  0
ENDBLK
  5
57D
330
571
100
AcDbEntity
  8
0
100
AcDbBlockEnd
  0
BLOCK
  5
5C4
330
5B9
100
AcDbEntity
  8
0
100
AcDbBlockBegin
  2
*D17
 70
     1
 10
0.0
 20
0.0
 30
0.0
  3
*D17
  1

  0
LINE
  5
146D
330
5B9
100
AcDbEntity
  8
Layer4
  6
ACAD_ISO02W100
 62
     0
370
    -2
100
AcDbLine
 10
536.7791607910799
 20
844.3727979527663
 30
0.0
 11
536.7791607910799
 21
818.953811319578
 31
0.0
  0
LINE
  5
146E
330
5B9
100
AcDbEntity
  8
Layer4
  6
ACAD_ISO02W100
 62
     0
370
    -2
100
AcDbLine
 10
596.7791607910799
 20
844.3727979527663
 30
0.0
 11
596.7791607910799
 21
818.953811319578
 31
0.0
  0
LINE
  5
146F
330
5B9
100
AcDbEntity
  8
Layer4
  6
ACAD_ISO02W100
 62
     0
370
    -2
100
AcDbLine
 10
536.9591607910798
 20
821.9538113195781
 30
0.0
 11
546.0224941244132
 21
821.9538113195781
 31
0.0
  0
LINE
  5
1470
330
5B9
100
AcDbEntity
  8
Layer4
  6
ACAD_ISO02W100
 62
     0
370
    -2
100
AcDbLine
 10
596.5991607910799
 20
821.9538113195781
 30
0.0
 11
587.5358274577465
 21
821.9538113195781
 31
0.0
  0
SOLID
  5
1471
330
5B9
100
AcDbEntity
  8
Layer4
 62
     0
100
AcDbTrace
 10
536.9591607910798
 20
821.983811319578
 30
0.0
 11
536.9591607910798
 21
821.9238113195782
 31
0.0
 12
536.7791607910799
 22
821.9538113195781
 32
0.0
 13
536.7791607910799
 23
821.9538113195781
 33
0.0
  0
SOLID
  5
1472
330
5B9
100
AcDbEntity
  8
Layer4
 62
     0
100
AcDbTrace
 10
596.5991607910799
 20
821.983811319578
 30
0.0
 11
596.5991607910799
 21
821.9238113195782
 31
0.0
 12
596.7791607910799
 22
821.9538113195781
 32
0.0
 13
596.7791607910799
 23
821.9538113195781
 33
0.0
  0
MTEXT
  5
1473
330
5B9
100
AcDbEntity
  8
Layer4
 62
     0
100
AcDbMText
 10
566.7791607910799
 20
821.9538113195781
 30
0.0
 40
8.0
 41
0.0
 71
     5
 72
     1
  1
\A1;60.0000
 73
     1
 44
1.0
  0
POINT
  5
1474
330
5B9
100
AcDbEntity
  8
Defpoints
 62
     0
100
AcDbPoint
 10
536.7791607910799
 20
852.3727979527663
 30
0.0
  0
POINT
  5
1475
330
5B9
100
AcDbEntity
  8
Defpoints
 62
     0
100
AcDbPoint
 10
596.7791607910799
 20
852.3727979527663
 30
0.0
  0
POINT
  5
1476
330
5B9
100
AcDbEntity
  8
Defpoints
 62
     0
100
AcDbPoint
 10
596.7791607910799
 20
821.9538113195781
 30
0.0
  0
ENDBLK
  5
5C5
330
5B9
100
AcDbEntity
  8
0
100
AcDbBlockEnd
  0
BLOCK
  5
5DE
330
5D3
100
AcDbEntity
  8
0
100
AcDbBlockBegin
  2
*D18
 70
     1
 10
0.0
 20
0.0
 30
0.0
  3
*D18
  1

  0
ARC
  5
1477
330
5D3
100
AcDbEntity
  8
Layer4
  6
ACAD_ISO02W100
 62
     0
370
    -2
100
AcDbCircle
 10
626.1451607910799
 20
914.7444514518111
 30
0.0
 40
40.22717296889644
100
AcDbArc
 50
180.2563751851054
 51
203.2722225876819
  0
ARC
  5
1478
330
5D3
100
AcDbEntity
  8
Layer4
  6
ACAD_ISO02W100
 62
     0
370
    -2
100
AcDbCircle
 10
626.1451607910799
 20
914.7444514518111
 30
0.0
 40
40.22717296889644
100
AcDbArc
 50
216.7586331077067
 51
239.3170566101795
  0
SOLID
  5
1479
330
5D3
100
AcDbEntity
  8
Layer4
 62
     0
100
AcDbTrace
 10
585.8883906101289
 20
914.5643847834946
 30
0.0
 11
585.9483904599643
 21
914.5645190211157
 31
0.0
 12
585.9179878221834
 22
914.7444514518111
 32
0.0
 13
585.9179878221834
 23
914.7444514518111
 33
0.0
  0
SOLID
  5
147A
330
5D3
100
AcDbEntity
  8
Layer4
 62
     0
100
AcDbTrace
 10
605.6330113458328
 20
880.1747472895259
 30
0.0
 11
605.6025096520348
 21
880.1230786658221
 31
0.0
 12
605.7727663700454
 22
880.0574078962799
 32
0.0
 13
605.7727663700454
 23
880.0574078962799
 33
0.0
  0
MTEXT
  5
147B
330
5D3
100
AcDbEntity
  8
Layer4
 62
     0
100
AcDbMText
 10
591.2327756016156
 20
894.7606879060726
 30
0.0
 40
8.0
 41
0.0
 71
     5
 72
     1
  1
\A1;59.573\U+00B0
 73
     1
 44
1.0
  0
POINT
  5
147C
330
5D3
100
AcDbEntity
  8
Defpoints
 62
     0
100
AcDbPoint
 10
588.3099555256311
 20
901.0798004284271
 30
0.0
  0
POINT
  5
147D
330
5D3
100
AcDbEntity
  8
Defpoints
 62
     0
100
AcDbPoint
 10
596.7791607910799
 20
864.7444514518111
 30
0.0
  0
POINT
  5
147E
330
5D3
100
AcDbEntity
  8
Defpoints
 62
     0
100
AcDbPoint
 10
507.4141607910799
 20
914.7444514518111
 30
0.0
  0
POINT
  5
147F
330
5D3
100
AcDbEntity
  8
Defpoints
 62
     0
100
AcDbPoint
 10
626.1451607910799
 20
914.7444514518111
 30
0.0
  0
POINT
  5
1480
330
5D3
100
AcDbEntity
  8
Defpoints
 62
     0
100
AcDbPoint
 10
626.1451607910799
 20
914.7444514518111
 30
0.0
  0
ENDBLK
  5
5DF
330
5D3
100
AcDbEntity
  8
0
100
AcDbBlockEnd
  0
BLOCK
  5
614
330
609
100
AcDbEntity
  8
0
100
AcDbBlockBegin
  2
*D19
 70
     1
 10
0.0
 20
0.0
 30
0.0
  3
*D19
  1

  0
ARC
  5
1481
330
609
100
AcDbEntity
  8
Layer4
  6
ACAD_ISO02W100
 62
     0
370
    -2
100
AcDbCircle
 10
725.9841607910798
 20
914.7444514518111
 30
0.0
 40
38.66506088333447
100
AcDbArc
 50
180.2667330501958
 51
189.0114972906307
  0
ARC
  5
1482
330
609
100
AcDbEntity
  8
Layer4
  6
ACAD_ISO02W100
 62
     0
370
    -2
100
AcDbCircle
 10
725.9841607910798
 20
914.7444514518111
 30
0.0
 40
38.66506088333447
100
AcDbArc
 50
201.6042282905934
 51
210.1598351545193
  0
SOLID
  5
1483
330
609
100
AcDbEntity
  8
Layer4
 62
     0
100
AcDbTrace
 10
687.2895189719343
 20
914.5643821089553
 30
0.0
 11
687.3495188093908
 21
914.5645217699277
 31
0.0
 12
687.3190999077453
 22
914.7444514518111
 32
0.0
 13
687.3190999077453
 23
914.7444514518111
 33
0.0
  0
SOLID
  5
1484
330
609
100
AcDbEntity
  8
Layer4
 62
     0
100
AcDbTrace
 10
692.5792006996115
 20
895.3337178996983
 30
0.0
 11
692.5273933751145
 21
895.3034523891545
 31
0.0
 12
692.644093568994
 22
895.1631631709355
 32
0.0
 13
692.644093568994
 23
895.1631631709355
 33
0.0
  0
MTEXT
  5
1485
330
609
100
AcDbEntity
  8
Layer4
 62
     0
100
AcDbMText
 10
688.6740906885702
 20
904.5982402349196
 30
0.0
 40
8.0
 41
0.0
 71
     5
 72
     1
  1
\A1;30.427\U+00B0
 73
     1
 44
1.0
  0
POINT
  5
1486
330
609
100
AcDbEntity
  8
Defpoints
 62
     0
100
AcDbPoint
 10
687.9232885450192
 20
907.935858573616
 30
0.0
  0
POINT
  5
1487
330
609
100
AcDbEntity
  8
Defpoints
 62
     0
100
AcDbPoint
 10
675.9841607910798
 20
885.3784514518109
 30
0.0
  0
POINT
  5
1488
330
609
100
AcDbEntity
  8
Defpoints
 62
     0
100
AcDbPoint
 10
627.2791607910798
 20
914.744451451811
 30
0.0
  0
POINT
  5
1489
330
609
100
AcDbEntity
  8
Defpoints
 62
     0
100
AcDbPoint
 10
725.9841607910798
 20
914.7444514518111
 30
0.0
  0
POINT
  5
148A
330
609
100
AcDbEntity
  8
Defpoints
 62
     0
100
AcDbPoint
 10
725.9841607910798
 20
914.7444514518111
 30
0.0
  0
ENDBLK
  5
615
330
609
100
AcDbEntity
  8
0
100
AcDbBlockEnd
  0
BLOCK
  5
66D
330
662
100
AcDbEntity
  8
0
100
AcDbBlockBegin
  2
*D20
 70
     1
 10
0.0
 20
0.0
 30
0.0
  3
*D20
  1

  0
ARC
  5
148B
330
662
100
AcDbEntity
  8
Layer4
  6
ACAD_ISO02W100
 62
     0
370
    -2
100
AcDbCircle
 10
847.57416079108
 20
914.7444514518113
 30
0.0
 40
38.66506088333467
100
AcDbArc
 50
329.8401648454807
 51
338.3957717094065
  0
ARC
  5
148C
330
662
100
AcDbEntity
  8
Layer4
  6
ACAD_ISO02W100
 62
     0
370
    -2
100
AcDbCircle
 10
847.57416079108
 20
914.7444514518113
 30
0.0
 40
38.66506088333467
100
AcDbArc
 50
350.9885027093691
 51
359.7332669498042
  0
SOLID
  5
148D
330
662
100
AcDbEntity
  8
Layer4
 62
     0
100
AcDbTrace
 10
881.0309282070456
 20
895.3034523891545
 30
0.0
 11
880.9791208825485
 21
895.333717899698
 31
0.0
 12
880.9142280131661
 22
895.1631631709352
 32
0.0
 13
880.9142280131661
 23
895.1631631709352
 33
0.0
  0
SOLID
  5
148E
330
662
100
AcDbEntity
  8
Layer4
 62
     0
100
AcDbTrace
 10
886.2088027727693
 20
914.5645217699275
 30
0.0
 11
886.2688026102258
 21
914.5643821089553
 31
0.0
 12
886.2392216744147
 22
914.7444514518111
 32
0.0
 13
886.2392216744147
 23
914.7444514518111
 33
0.0
  0
MTEXT
  5
148F
330
662
100
AcDbEntity
  8
Layer4
 62
     0
100
AcDbMText
 10
884.8842308935898
 20
904.5982402349196
 30
0.0
 40
8.0
 41
0.0
 71
     5
 72
     1
  1
\A1;30.427\U+00B0
 73
     1
 44
1.0
  0
POINT
  5
1490
330
662
100
AcDbEntity
  8
Defpoints
 62
     0
100
AcDbPoint
 10
883.8413494910041
 20
901.3400507969492
 30
0.0
  0
POINT
  5
1491
330
662
100
AcDbEntity
  8
Defpoints
 62
     0
100
AcDbPoint
 10
897.57416079108
 20
885.378451451811
 30
0.0
  0
POINT
  5
1492
330
662
100
AcDbEntity
  8
Defpoints
 62
     0
100
AcDbPoint
 10
946.27916079108
 20
914.7444514518111
 30
0.0
  0
POINT
  5
1493
330
662
100
AcDbEntity
  8
Defpoints
 62
     0
100
AcDbPoint
 10
847.5741607910798
 20
914.7444514518111
 30
0.0
  0
POINT
  5
1494
330
662
100
AcDbEntity
  8
Defpoints
 62
     0
100
AcDbPoint
 10
847.5741607910798
 20
914.7444514518111
 30
0.0
  0
ENDBLK
  5
66E
330
662
100
AcDbEntity
  8
0
100
AcDbBlockEnd
  0
BLOCK
  5
739
330
72E
100
AcDbEntity
  8
0
100
AcDbBlockBegin
  2
*D21
 70
     1
 10
0.0
 20
0.0
 30
0.0
  3
*D21
  1

  0
LINE
  5
1627
330
72E
100
AcDbEntity
  8
Layer3
  6
ACAD_ISO02W100
 62
     0
370
    -2
100
AcDbLine
 10
-300.592217245552
 20
1598.398838142348
 30
0.0
 11
-300.592217245552
 21
1612.928057672015
 31
0.0
  0
LINE
  5
1628
330
72E
100
AcDbEntity
  8
Layer3
  6
ACAD_ISO02W100
 62
     0
370
    -2
100
AcDbLine
 10
-180.592217245552
 20
1598.398838142348
 30
0.0
 11
-180.592217245552
 21
1612.928057672015
 31
0.0
  0
LINE
  5
1629
330
72E
100
AcDbEntity
  8
Layer3
  6
ACAD_ISO02W100
 62
     0
370
    -2
100
AcDbLine
 10
-300.412217245552
 20
1609.928057672015
 30
0.0
 11
-264.0155505788853
 21
1609.928057672015
 31
0.0
  0
LINE
  5
162A
330
72E
100
AcDbEntity
  8
Layer3
  6
ACAD_ISO02W100
 62
     0
370
    -2
100
AcDbLine
 10
-180.772217245552
 20
1609.928057672015
 30
0.0
 11
-217.1688839122186
 21
1609.928057672015
 31
0.0
  0
SOLID
  5
162B
330
72E
100
AcDbEntity
  8
Layer3
 62
     0
100
AcDbTrace
 10
-300.412217245552
 20
1609.958057672015
 30
0.0
 11
-300.412217245552
 21
1609.898057672015
 31
0.0
 12
-300.592217245552
 22
1609.928057672015
 32
0.0
 13
-300.592217245552
 23
1609.928057672015
 33
0.0
  0
SOLID
  5
162C
330
72E
100
AcDbEntity
  8
Layer3
 62
     0
100
AcDbTrace
 10
-180.772217245552
 20
1609.958057672015
 30
0.0
 11
-180.772217245552
 21
1609.898057672015
 31
0.0
 12
-180.592217245552
 22
1609.928057672015
 32
0.0
 13
-180.592217245552
 23
1609.928057672015
 33
0.0
  0
MTEXT
  5
162D
330
72E
100
AcDbEntity
  8
Layer3
 62
     0
370
     0
100
AcDbMText
 10
-240.592217245552
 20
1609.928057672015
 30
0.0
 40
8.0
 41
0.0
 71
     5
 72
     1
  1
\A1;120.0000
 73
     1
 44
1.0
  0
POINT
  5
162E
330
72E
100
AcDbEntity
  8
Defpoints
 62
     0
100
AcDbPoint
 10
-300.592217245552
 20
1590.398838142348
 30
0.0
  0
POINT
  5
162F
330
72E
100
AcDbEntity
  8
Defpoints
 62
     0
100
AcDbPoint
 10
-180.592217245552
 20
1590.398838142348
 30
0.0
  0
POINT
  5
1630
330
72E
100
AcDbEntity
  8
Defpoints
 62
     0
100
AcDbPoint
 10
-180.592217245552
 20
1609.928057672015
 30
0.0
  0
ENDBLK
  5
73A
330
72E
100
AcDbEntity
  8
0
100
AcDbBlockEnd
  0
BLOCK
  5
746
330
73B
100
AcDbEntity
  8
0
100
AcDbBlockBegin
  2
*D22
 70
     1
 10
0.0
 20
0.0
 30
0.0
  3
*D22
  1

  0
LINE
  5
161D
330
73B
100
AcDbEntity
  8
Layer3
  6
ACAD_ISO02W100
 62
     0
370
    -2
100
AcDbLine
 10
-180.592217245552
 20
1579.224963977197
 30
0.0
 11
-180.592217245552
 21
1586.606066132029
 31
0.0
  0
LINE
  5
161E
330
73B
100
AcDbEntity
  8
Layer3
  6
ACAD_ISO02W100
 62
     0
370
    -2
100
AcDbLine
 10
-80.59221724555198
 20
1579.224963977197
 30
0.0
 11
-80.59221724555198
 21
1586.606066132029
 31
0.0
  0
LINE
  5
161F
330
73B
100
AcDbEntity
  8
Layer3
  6
ACAD_ISO02W100
 62
     0
370
    -2
100
AcDbLine
 10
-180.4122172455519
 20
1583.606066132029
 30
0.0
 11
-153.3488839122186
 21
1583.606066132029
 31
0.0
  0
LINE
  5
1620
330
73B
100
AcDbEntity
  8
Layer3
  6
ACAD_ISO02W100
 62
     0
370
    -2
100
AcDbLine
 10
-80.77221724555199
 20
1583.606066132029
 30
0.0
 11
-107.8355505788853
 21
1583.606066132029
 31
0.0
  0
SOLID
  5
1621
330
73B
100
AcDbEntity
  8
Layer3
 62
     0
100
AcDbTrace
 10
-180.4122172455519
 20
1583.636066132029
 30
0.0
 11
-180.4122172455519
 21
1583.576066132029
 31
0.0
 12
-180.592217245552
 22
1583.606066132029
 32
0.0
 13
-180.592217245552
 23
1583.606066132029
 33
0.0
  0
SOLID
  5
1622
330
73B
100
AcDbEntity
  8
Layer3
 62
     0
100
AcDbTrace
 10
-80.77221724555199
 20
1583.636066132029
 30
0.0
 11
-80.77221724555199
 21
1583.576066132029
 31
0.0
 12
-80.59221724555198
 22
1583.606066132029
 32
0.0
 13
-80.59221724555198
 23
1583.606066132029
 33
0.0
  0
MTEXT
  5
1623
330
73B
100
AcDbEntity
  8
Layer3
 62
     0
370
     0
100
AcDbMText
 10
-130.592217245552
 20
1583.606066132029
 30
0.0
 40
8.0
 41
0.0
 71
     5
 72
     1
  1
\A1;100.0000
 73
     1
 44
1.0
  0
POINT
  5
1624
330
73B
100
AcDbEntity
  8
Defpoints
 62
     0
100
AcDbPoint
 10
-180.592217245552
 20
1571.224963977197
 30
0.0
  0
POINT
  5
1625
330
73B
100
AcDbEntity
  8
Defpoints
 62
     0
100
AcDbPoint
 10
-80.59221724555198
 20
1571.224963977197
 30
0.0
  0
POINT
  5
1626
330
73B
100
AcDbEntity
  8
Defpoints
 62
     0
100
AcDbPoint
 10
-80.59221724555198
 20
1583.606066132029
 30
0.0
  0
ENDBLK
  5
747
330
73B
100
AcDbEntity
  8
0
100
AcDbBlockEnd
  0
BLOCK
  5
753
330
748
100
AcDbEntity
  8
0
100
AcDbBlockBegin
  2
*D23
 70
     1
 10
0.0
 20
0.0
 30
0.0
  3
*D23
  1

  0
LINE
  5
1613
330
748
100
AcDbEntity
  8
Layer3
  6
ACAD_ISO02W100
 62
     0
370
    -2
100
AcDbLine
 10
-80.59221724555198
 20
1516.036477517229
 30
0.0
 11
-80.59221724555198
 21
1511.036477517229
 31
0.0
  0
LINE
  5
1614
330
748
100
AcDbEntity
  8
Layer3
  6
ACAD_ISO02W100
 62
     0
370
    -2
100
AcDbLine
 10
39.40778275444802
 20
1516.036477517229
 30
0.0
 11
39.40778275444802
 21
1511.036477517229
 31
0.0
  0
LINE
  5
1615
330
748
100
AcDbEntity
  8
Layer3
  6
ACAD_ISO02W100
 62
     0
370
    -2
100
AcDbLine
 10
-80.41221724555198
 20
1508.036477517229
 30
0.0
 11
-44.01555057888531
 21
1508.036477517229
 31
0.0
  0
LINE
  5
1616
330
748
100
AcDbEntity
  8
Layer3
  6
ACAD_ISO02W100
 62
     0
370
    -2
100
AcDbLine
 10
39.22778275444802
 20
1508.036477517229
 30
0.0
 11
2.831116087781367
 21
1508.036477517229
 31
0.0
  0
SOLID
  5
1617
330
748
100
AcDbEntity
  8
Layer3
 62
     0
100
AcDbTrace
 10
-80.41221724555198
 20
1508.066477517228
 30
0.0
 11
-80.41221724555198
 21
1508.006477517229
 31
0.0
 12
-80.59221724555198
 22
1508.036477517229
 32
0.0
 13
-80.59221724555198
 23
1508.036477517229
 33
0.0
  0
SOLID
  5
1618
330
748
100
AcDbEntity
  8
Layer3
 62
     0
100
AcDbTrace
 10
39.22778275444802
 20
1508.066477517228
 30
0.0
 11
39.22778275444802
 21
1508.006477517229
 31
0.0
 12
39.40778275444802
 22
1508.036477517229
 32
0.0
 13
39.40778275444802
 23
1508.036477517229
 33
0.0
  0
MTEXT
  5
1619
330
748
100
AcDbEntity
  8
Layer3
 62
     0
370
     0
100
AcDbMText
 10
-20.59221724555198
 20
1508.036477517229
 30
0.0
 40
8.0
 41
0.0
 71
     5
 72
     1
  1
\A1;120.0000
 73
     1
 44
1.0
  0
POINT
  5
161A
330
748
100
AcDbEntity
  8
Defpoints
 62
     0
100
AcDbPoint
 10
-80.59221724555198
 20
1508.036477517229
 30
0.0
  0
POINT
  5
161B
330
748
100
AcDbEntity
  8
Defpoints
 62
     0
100
AcDbPoint
 10
39.40778275444802
 20
1508.036477517229
 30
0.0
  0
POINT
  5
161C
330
748
100
AcDbEntity
  8
Defpoints
 62
     0
100
AcDbPoint
 10
39.40778275444802
 20
1508.036477517229
 30
0.0
  0
ENDBLK
  5
754
330
748
100
AcDbEntity
  8
0
100
AcDbBlockEnd
  0
BLOCK
  5
760
330
755
100
AcDbEntity
  8
0
100
AcDbBlockBegin
  2
*D24
 70
     1
 10
0.0
 20
0.0
 30
0.0
  3
*D24
  1

  0
LINE
  5
1609
330
755
100
AcDbEntity
  8
Layer3
  6
ACAD_ISO02W100
 62
     0
370
    -2
100
AcDbLine
 10
39.40778275444802
 20
1558.491302581724
 30
0.0
 11
39.40778275444802
 21
1570.473232607521
 31
0.0
  0
LINE
  5
160A
330
755
100
AcDbEntity
  8
Layer3
  6
ACAD_ISO02W100
 62
     0
370
    -2
100
AcDbLine
 10
138.407782754448
 20
1558.491302581724
 30
0.0
 11
138.407782754448
 21
1570.473232607521
 31
0.0
  0
LINE
  5
160B
330
755
100
AcDbEntity
  8
Layer3
  6
ACAD_ISO02W100
 62
     0
370
    -2
100
AcDbLine
 10
39.58778275444802
 20
1567.473232607521
 30
0.0
 11
67.48444942111468
 21
1567.473232607521
 31
0.0
  0
LINE
  5
160C
330
755
100
AcDbEntity
  8
Layer3
  6
ACAD_ISO02W100
 62
     0
370
    -2
100
AcDbLine
 10
138.227782754448
 20
1567.473232607521
 30
0.0
 11
110.3311160877813
 21
1567.473232607521
 31
0.0
  0
SOLID
  5
160D
330
755
100
AcDbEntity
  8
Layer3
 62
     0
100
AcDbTrace
 10
39.58778275444802
 20
1567.503232607521
 30
0.0
 11
39.58778275444802
 21
1567.443232607521
 31
0.0
 12
39.40778275444802
 22
1567.473232607521
 32
0.0
 13
39.40778275444802
 23
1567.473232607521
 33
0.0
  0
SOLID
  5
160E
330
755
100
AcDbEntity
  8
Layer3
 62
     0
100
AcDbTrace
 10
138.227782754448
 20
1567.503232607521
 30
0.0
 11
138.227782754448
 21
1567.443232607521
 31
0.0
 12
138.407782754448
 22
1567.473232607521
 32
0.0
 13
138.407782754448
 23
1567.473232607521
 33
0.0
  0
MTEXT
  5
160F
330
755
100
AcDbEntity
  8
Layer3
 62
     0
370
     0
100
AcDbMText
 10
88.90778275444802
 20
1567.473232607521
 30
0.0
 40
8.0
 41
0.0
 71
     5
 72
     1
  1
\A1;99.0000
 73
     1
 44
1.0
  0
POINT
  5
1610
330
755
100
AcDbEntity
  8
Defpoints
 62
     0
100
AcDbPoint
 10
39.40778275444802
 20
1550.491302581724
 30
0.0
  0
POINT
  5
1611
330
755
100
AcDbEntity
  8
Defpoints
 62
     0
100
AcDbPoint
 10
138.407782754448
 20
1550.491302581724
 30
0.0
  0
POINT
  5
1612
330
755
100
AcDbEntity
  8
Defpoints
 62
     0
100
AcDbPoint
 10
138.407782754448
 20
1567.473232607521
 30
0.0
  0
ENDBLK
  5
761
330
755
100
AcDbEntity
  8
0
100
AcDbBlockEnd
  0
BLOCK
  5
76D
330
762
100
AcDbEntity
  8
0
100
AcDbBlockBegin
  2
*D25
 70
     1
 10
0.0
 20
0.0
 30
0.0
  3
*D25
  1

  0
LINE
  5
15FF
330
762
100
AcDbEntity
  8
Layer3
  6
ACAD_ISO02W100
 62
     0
370
    -2
100
AcDbLine
 10
-214.342217245552
 20
1770.224963977197
 30
0.0
 11
-243.5922172455519
 21
1770.224963977197
 31
0.0
  0
LINE
  5
1600
330
762
100
AcDbEntity
  8
Layer3
  6
ACAD_ISO02W100
 62
     0
370
    -2
100
AcDbLine
 10
-214.342217245552
 20
1671.224963977197
 30
0.0
 11
-243.592217245552
 21
1671.224963977197
 31
0.0
  0
LINE
  5
1601
330
762
100
AcDbEntity
  8
Layer3
  6
ACAD_ISO02W100
 62
     0
370
    -2
100
AcDbLine
 10
-240.5922172455519
 20
1770.044963977197
 30
0.0
 11
-240.592217245552
 21
1724.814963977197
 31
0.0
  0
LINE
  5
1602
330
762
100
AcDbEntity
  8
Layer3
  6
ACAD_ISO02W100
 62
     0
370
    -2
100
AcDbLine
 10
-240.592217245552
 20
1671.404963977197
 30
0.0
 11
-240.592217245552
 21
1716.634963977197
 31
0.0
  0
SOLID
  5
1603
330
762
100
AcDbEntity
  8
Layer3
 62
     0
100
AcDbTrace
 10
-240.622217245552
 20
1770.044963977197
 30
0.0
 11
-240.5622172455519
 21
1770.044963977197
 31
0.0
 12
-240.5922172455519
 22
1770.224963977197
 32
0.0
 13
-240.5922172455519
 23
1770.224963977197
 33
0.0
  0
SOLID
  5
1604
330
762
100
AcDbEntity
  8
Layer3
 62
     0
100
AcDbTrace
 10
-240.622217245552
 20
1671.404963977197
 30
0.0
 11
-240.562217245552
 21
1671.404963977197
 31
0.0
 12
-240.592217245552
 22
1671.224963977197
 32
0.0
 13
-240.592217245552
 23
1671.224963977197
 33
0.0
  0
MTEXT
  5
1605
330
762
100
AcDbEntity
  8
Layer3
 62
     0
370
     0
100
AcDbMText
 10
-240.5922172455522
 20
1720.724963977197
 30
0.0
 40
8.0
 41
0.0
 71
     5
 72
     1
  1
\A1;99.0000
 73
     1
 44
1.0
  0
POINT
  5
1606
330
762
100
AcDbEntity
  8
Defpoints
 62
     0
100
AcDbPoint
 10
-206.342217245552
 20
1770.224963977197
 30
0.0
  0
POINT
  5
1607
330
762
100
AcDbEntity
  8
Defpoints
 62
     0
100
AcDbPoint
 10
-206.342217245552
 20
1671.224963977197
 30
0.0
  0
POINT
  5
1608
330
762
100
AcDbEntity
  8
Defpoints
 62
     0
100
AcDbPoint
 10
-240.592217245552
 20
1671.224963977197
 30
0.0
  0
ENDBLK
  5
76E
330
762
100
AcDbEntity
  8
0
100
AcDbBlockEnd
  0
BLOCK
  5
7C5
330
7BA
100
AcDbEntity
  8
0
100
AcDbBlockBegin
  2
*D27
 70
     1
 10
0.0
 20
0.0
 30
0.0
  3
*D27
  1

  0
LINE
  5
15F5
330
7BA
100
AcDbEntity
  8
Layer4
  6
ACAD_ISO02W100
 62
     0
370
    -2
100
AcDbLine
 10
-222.342217245552
 20
1671.224963977197
 30
0.0
 11
-387.8127131583023
 21
1671.224963977197
 31
0.0
  0
LINE
  5
15F6
330
7BA
100
AcDbEntity
  8
Layer4
  6
ACAD_ISO02W100
 62
     0
370
    -2
100
AcDbLine
 10
-222.342217245552
 20
1471.224963977197
 30
0.0
 11
-387.8127131583024
 21
1471.224963977197
 31
0.0
  0
LINE
  5
15F7
330
7BA
100
AcDbEntity
  8
Layer4
  6
ACAD_ISO02W100
 62
     0
370
    -2
100
AcDbLine
 10
-384.8127131583023
 20
1671.044963977197
 30
0.0
 11
-384.8127131583024
 21
1575.314963977197
 31
0.0
  0
LINE
  5
15F8
330
7BA
100
AcDbEntity
  8
Layer4
  6
ACAD_ISO02W100
 62
     0
370
    -2
100
AcDbLine
 10
-384.8127131583024
 20
1471.404963977197
 30
0.0
 11
-384.8127131583024
 21
1567.134963977197
 31
0.0
  0
SOLID
  5
15F9
330
7BA
100
AcDbEntity
  8
Layer4
 62
     0
100
AcDbTrace
 10
-384.8427131583023
 20
1671.044963977197
 30
0.0
 11
-384.7827131583023
 21
1671.044963977197
 31
0.0
 12
-384.8127131583023
 22
1671.224963977197
 32
0.0
 13
-384.8127131583023
 23
1671.224963977197
 33
0.0
  0
SOLID
  5
15FA
330
7BA
100
AcDbEntity
  8
Layer4
 62
     0
100
AcDbTrace
 10
-384.8427131583023
 20
1471.404963977197
 30
0.0
 11
-384.7827131583024
 21
1471.404963977197
 31
0.0
 12
-384.8127131583024
 22
1471.224963977197
 32
0.0
 13
-384.8127131583024
 23
1471.224963977197
 33
0.0
  0
MTEXT
  5
15FB
330
7BA
100
AcDbEntity
  8
Layer4
 62
     0
370
     0
100
AcDbMText
 10
-384.8127131583026
 20
1571.224963977197
 30
0.0
 40
8.0
 41
0.0
 71
     5
 72
     1
  1
\A1;200.0000
 73
     1
 44
1.0
  0
POINT
  5
15FC
330
7BA
100
AcDbEntity
  8
Defpoints
 62
     0
100
AcDbPoint
 10
-214.342217245552
 20
1671.224963977197
 30
0.0
  0
POINT
  5
15FD
330
7BA
100
AcDbEntity
  8
Defpoints
 62
     0
100
AcDbPoint
 10
-214.342217245552
 20
1471.224963977197
 30
0.0
  0
POINT
  5
15FE
330
7BA
100
AcDbEntity
  8
Defpoints
 62
     0
100
AcDbPoint
 10
-384.8127131583024
 20
1471.224963977197
 30
0.0
  0
ENDBLK
  5
7C6
330
7BA
100
AcDbEntity
  8
0
100
AcDbBlockEnd
  0
BLOCK
  5
CA3
330
C98
100
AcDbEntity
  8
0
100
AcDbBlockBegin
  2
*D33
 70
     1
 10
0.0
 20
0.0
 30
0.0
  3
*D33
  1

  0
LINE
  5
15EB
330
C98
100
AcDbEntity
  8
0
  6
ACAD_ISO02W100
 62
     0
370
    -2
100
AcDbLine
 10
-265.592217245552
 20
1388.221656979108
 30
0.0
 11
-265.592217245552
 21
1379.085443195649
 31
0.0
  0
LINE
  5
15EC
330
C98
100
AcDbEntity
  8
0
  6
ACAD_ISO02W100
 62
     0
370
    -2
100
AcDbLine
 10
-215.592217245552
 20
1388.221656979108
 30
0.0
 11
-215.592217245552
 21
1379.085443195649
 31
0.0
  0
LINE
  5
15ED
330
C98
100
AcDbEntity
  8
0
  6
ACAD_ISO02W100
 62
     0
370
    -2
100
AcDbLine
 10
-265.412217245552
 20
1382.085443195649
 30
0.0
 11
-261.3488839122187
 21
1382.085443195649
 31
0.0
  0
LINE
  5
15EE
330
C98
100
AcDbEntity
  8
0
  6
ACAD_ISO02W100
 62
     0
370
    -2
100
AcDbLine
 10
-215.772217245552
 20
1382.085443195649
 30
0.0
 11
-219.8355505788853
 21
1382.085443195649
 31
0.0
  0
SOLID
  5
15EF
330
C98
100
AcDbEntity
  8
0
 62
     0
100
AcDbTrace
 10
-265.412217245552
 20
1382.115443195649
 30
0.0
 11
-265.412217245552
 21
1382.055443195649
 31
0.0
 12
-265.592217245552
 22
1382.085443195649
 32
0.0
 13
-265.592217245552
 23
1382.085443195649
 33
0.0
  0
SOLID
  5
15F0
330
C98
100
AcDbEntity
  8
0
 62
     0
100
AcDbTrace
 10
-215.772217245552
 20
1382.115443195649
 30
0.0
 11
-215.772217245552
 21
1382.055443195649
 31
0.0
 12
-215.592217245552
 22
1382.085443195649
 32
0.0
 13
-215.592217245552
 23
1382.085443195649
 33
0.0
  0
MTEXT
  5
15F1
330
C98
100
AcDbEntity
  8
0
 62
     0
370
     0
100
AcDbMText
 10
-240.592217245552
 20
1382.085443195649
 30
0.0
 40
8.0
 41
0.0
 71
     5
 72
     1
  1
\A1;50.0000
 73
     1
 44
1.0
  0
POINT
  5
15F2
330
C98
100
AcDbEntity
  8
Defpoints
 62
     0
100
AcDbPoint
 10
-265.592217245552
 20
1396.221656979108
 30
0.0
  0
POINT
  5
15F3
330
C98
100
AcDbEntity
  8
Defpoints
 62
     0
100
AcDbPoint
 10
-215.592217245552
 20
1396.221656979108
 30
0.0
  0
POINT
  5
15F4
330
C98
100
AcDbEntity
  8
Defpoints
 62
     0
100
AcDbPoint
 10
-215.592217245552
 20
1382.085443195649
 30
0.0
  0
ENDBLK
  5
CA4
330
C98
100
AcDbEntity
  8
0
100
AcDbBlockEnd
  0
BLOCK
  5
E07
330
DFB
100
AcDbEntity
  8
0
100
AcDbBlockBegin
  2
*D37
 70
     1
 10
0.0
 20
0.0
 30
0.0
  3
*D37
  1

  0
ARC
  5
15E0
330
DFB
100
AcDbEntity
  8
Layer1
  6
ACAD_ISO02W100
 62
     0
370
    -2
100
AcDbCircle
 10
-181.1723490104959
 20
1471.224963977197
 30
0.0
 40
19.53075117282071
100
AcDbArc
 50
179.4719467407428
 51
179.9999999999999
  0
LINE
  5
15E1
330
DFB
100
AcDbEntity
  8
Layer1
  6
ACAD_ISO02W100
 62
     0
370
    -2
100
AcDbLine
 10
-200.7022707221321
 20
1471.404962066059
 30
0.0
 11
-200.8822707221321
 21
1471.404962066059
 31
0.0
  0
ARC
  5
15E2
330
DFB
100
AcDbEntity
  8
Layer1
  6
ACAD_ISO02W100
 62
     0
370
    -2
100
AcDbCircle
 10
-181.172349010496
 20
1471.224963977197
 30
0.0
 40
19.53075117282071
100
AcDbArc
 50
180.528053259257
 51
238.9995034858474
  0
SOLID
  5
15E3
330
DFB
100
AcDbEntity
  8
Layer1
 62
     0
100
AcDbTrace
 10
-200.7322704036093
 20
1471.044827644804
 30
0.0
 11
-200.6722710406551
 21
1471.045104131865
 31
0.0
 12
-200.7031001833167
 22
1471.224963977197
 32
0.0
 13
-200.7031001833167
 23
1471.224963977197
 33
0.0
  0
SOLID
  5
15E4
330
DFB
100
AcDbEntity
  8
Layer1
 62
     0
100
AcDbTrace
 10
-191.2162418672193
 20
1454.509715698188
 30
0.0
 11
-191.2469072748539
 21
1454.458144070575
 31
0.0
 12
-191.0768596881988
 22
1454.391933661478
 32
0.0
 13
-191.0768596881988
 23
1454.391933661478
 33
0.0
  0
MTEXT
  5
15E5
330
DFB
100
AcDbEntity
  8
Layer1
 62
     0
370
     0
100
AcDbMText
 10
-223.6389373887987
 20
1471.404962066059
 30
0.0
 40
8.0
 41
0.0
 71
     5
 72
     1
  1
\A1;59.528\U+00B0
 73
     1
 44
1.0
  0
POINT
  5
15E6
330
DFB
100
AcDbEntity
  8
Defpoints
 62
     0
100
AcDbPoint
 10
-196.2025576314951
 20
1458.753273226385
 30
0.0
  0
POINT
  5
15E7
330
DFB
100
AcDbEntity
  8
Defpoints
 62
     0
100
AcDbPoint
 10
-210.5922172455519
 20
1421.224963977197
 30
0.0
  0
POINT
  5
15E8
330
DFB
100
AcDbEntity
  8
Defpoints
 62
     0
100
AcDbPoint
 10
-299.9572172455521
 20
1471.224963977197
 30
0.0
  0
POINT
  5
15E9
330
DFB
100
AcDbEntity
  8
Defpoints
 62
     0
100
AcDbPoint
 10
-180.0922172455519
 20
1471.224963977197
 30
0.0
  0
POINT
  5
15EA
330
DFB
100
AcDbEntity
  8
Defpoints
 62
     0
100
AcDbPoint
 10
-181.0231538277337
 20
1471.478525926506
 30
0.0
  0
ENDBLK
  5
E08
330
DFB
100
AcDbEntity
  8
0
100
AcDbBlockEnd
  0
BLOCK
  5
102F
330
1024
100
AcDbEntity
  8
0
100
AcDbBlockBegin
  2
*D46
 70
     1
 10
0.0
 20
0.0
 30
0.0
  3
*D46
  1

  0
LINE
  5
15D6
330
1024
100
AcDbEntity
  8
Layer1
  6
ACAD_ISO02W100
 62
     0
370
    -2
100
AcDbLine
 10
-135.648768854532
 20
1448.694987177819
 30
0.0
 11
-134.4613080316342
 21
1446.676565415505
 31
0.0
  0
LINE
  5
15D7
330
1024
100
AcDbEntity
  8
Layer1
  6
ACAD_ISO02W100
 62
     0
370
    -2
100
AcDbLine
 10
-84.901673102701
 20
1478.550089419714
 30
0.0
 11
-83.71421227980318
 21
1476.5316676574
 31
0.0
  0
LINE
  5
15D8
330
1024
100
AcDbEntity
  8
Layer1
  6
ACAD_ISO02W100
 62
     0
370
    -2
100
AcDbLine
 10
-132.7849581895325
 20
1444.182121347805
 30
0.0
 11
-114.5186521410457
 21
1454.92840005755
 31
0.0
  0
LINE
  5
15D9
330
1024
100
AcDbEntity
  8
Layer1
  6
ACAD_ISO02W100
 62
     0
370
    -2
100
AcDbLine
 10
-82.34814841516969
 20
1473.854678767295
 30
0.0
 11
-100.6144544636563
 21
1463.10840005755
 31
0.0
  0
SOLID
  5
15DA
330
1024
100
AcDbEntity
  8
Layer1
 62
     0
100
AcDbTrace
 10
-132.8001702580662
 20
1444.207978512594
 30
0.0
 11
-132.7697461209989
 21
1444.156264183015
 31
0.0
 12
-132.9401011782665
 22
1444.090848936602
 32
0.0
 13
-132.9401011782665
 23
1444.090848936602
 33
0.0
  0
SOLID
  5
15DB
330
1024
100
AcDbEntity
  8
Layer1
 62
     0
100
AcDbTrace
 10
-82.36336048370345
 20
1473.880535932084
 30
0.0
 11
-82.33293634663608
 21
1473.828821602506
 31
0.0
 12
-82.19300542643555
 22
1473.945951178497
 32
0.0
 13
-82.19300542643555
 23
1473.945951178497
 33
0.0
  0
MTEXT
  5
15DC
330
1024
100
AcDbEntity
  8
Layer1
 62
     0
370
     0
100
AcDbMText
 10
-107.5665533023509
 20
1459.01840005755
 30
0.0
 40
8.0
 41
0.0
 71
     5
 72
     1
  1
\A1;58.8778
 73
     1
 44
1.0
  0
POINT
  5
15DD
330
1024
100
AcDbEntity
  8
Defpoints
 62
     0
100
AcDbPoint
 10
-131.5922172455518
 20
1441.799743234079
 30
0.0
  0
POINT
  5
15DE
330
1024
100
AcDbEntity
  8
Defpoints
 62
     0
100
AcDbPoint
 10
-80.84512149372086
 20
1471.654845475974
 30
0.0
  0
POINT
  5
15DF
330
1024
100
AcDbEntity
  8
Defpoints
 62
     0
100
AcDbPoint
 10
-82.19300542643555
 20
1473.945951178497
 30
0.0
  0
ENDBLK
  5
1030
330
1024
100
AcDbEntity
  8
0
100
AcDbBlockEnd
  0
BLOCK
  5
10BC
330
10B1
100
AcDbEntity
  8
0
100
AcDbBlockBegin
  2
*D49
 70
     1
 10
0.0
 20
0.0
 30
0.0
  3
*D49
  1

  0
LINE
  5
15CC
330
10B1
100
AcDbEntity
  8
Layer1
  6
ACAD_ISO02W100
 62
     0
370
    -2
100
AcDbLine
 10
-172.0922172455519
 20
1471.224963977197
 30
0.0
 11
-161.0483171203286
 21
1471.224963977197
 31
0.0
  0
LINE
  5
15CD
330
10B1
100
AcDbEntity
  8
Layer1
  6
ACAD_ISO02W100
 62
     0
370
    -2
100
AcDbLine
 10
-172.0922172455519
 20
1429.799743234079
 30
0.0
 11
-161.0483171203286
 21
1429.799743234079
 31
0.0
  0
LINE
  5
15CE
330
10B1
100
AcDbEntity
  8
Layer1
  6
ACAD_ISO02W100
 62
     0
370
    -2
100
AcDbLine
 10
-164.0483171203286
 20
1471.044963977197
 30
0.0
 11
-164.0483171203286
 21
1454.602353605638
 31
0.0
  0
LINE
  5
15CF
330
10B1
100
AcDbEntity
  8
Layer1
  6
ACAD_ISO02W100
 62
     0
370
    -2
100
AcDbLine
 10
-164.0483171203286
 20
1429.979743234079
 30
0.0
 11
-164.0483171203286
 21
1446.422353605638
 31
0.0
  0
SOLID
  5
15D0
330
10B1
100
AcDbEntity
  8
Layer1
 62
     0
100
AcDbTrace
 10
-164.0783171203286
 20
1471.044963977197
 30
0.0
 11
-164.0183171203286
 21
1471.044963977197
 31
0.0
 12
-164.0483171203286
 22
1471.224963977197
 32
0.0
 13
-164.0483171203286
 23
1471.224963977197
 33
0.0
  0
SOLID
  5
15D1
330
10B1
100
AcDbEntity
  8
Layer1
 62
     0
100
AcDbTrace
 10
-164.0783171203286
 20
1429.979743234079
 30
0.0
 11
-164.0183171203286
 21
1429.979743234079
 31
0.0
 12
-164.0483171203286
 22
1429.799743234079
 32
0.0
 13
-164.0483171203286
 23
1429.799743234079
 33
0.0
  0
MTEXT
  5
15D2
330
10B1
100
AcDbEntity
  8
Layer1
 62
     0
370
     0
100
AcDbMText
 10
-164.0483171203289
 20
1450.512353605638
 30
0.0
 40
8.0
 41
0.0
 71
     5
 72
     1
  1
\A1;41.4252
 73
     1
 44
1.0
  0
POINT
  5
15D3
330
10B1
100
AcDbEntity
  8
Defpoints
 62
     0
100
AcDbPoint
 10
-180.0922172455519
 20
1471.224963977197
 30
0.0
  0
POINT
  5
15D4
330
10B1
100
AcDbEntity
  8
Defpoints
 62
     0
100
AcDbPoint
 10
-180.0922172455519
 20
1429.799743234079
 30
0.0
  0
POINT
  5
15D5
330
10B1
100
AcDbEntity
  8
Defpoints
 62
     0
100
AcDbPoint
 10
-164.0483171203286
 20
1429.799743234079
 30
0.0
  0
ENDBLK
  5
10BD
330
10B1
100
AcDbEntity
  8
0
100
AcDbBlockEnd
  0
BLOCK
  5
10D6
330
10CB
100
AcDbEntity
  8
0
100
AcDbBlockBegin
  2
*D50
 70
     1
 10
0.0
 20
0.0
 30
0.0
  3
*D50
  1

  0
LINE
  5
15C2
330
10CB
100
AcDbEntity
  8
Layer1
  6
ACAD_ISO02W100
 62
     0
370
    -2
100
AcDbLine
 10
-180.0922172455519
 20
1421.799743234079
 30
0.0
 11
-180.0922172455519
 21
1399.422677697283
 31
0.0
  0
LINE
  5
15C3
330
10CB
100
AcDbEntity
  8
Layer1
  6
ACAD_ISO02W100
 62
     0
370
    -2
100
AcDbLine
 10
-136.5922172455519
 20
1421.799743234079
 30
0.0
 11
-136.5922172455519
 21
1399.422677697283
 31
0.0
  0
LINE
  5
15C4
330
10CB
100
AcDbEntity
  8
Layer1
  6
ACAD_ISO02W100
 62
     0
370
    -2
100
AcDbLine
 10
-179.9122172455519
 20
1402.422677697283
 30
0.0
 11
-136.7722172455519
 21
1402.422677697283
 31
0.0
  0
LINE
  5
15C5
330
10CB
100
AcDbEntity
  8
Layer1
  6
ACAD_ISO02W100
 62
     0
370
    -2
100
AcDbLine
 10
-136.5922172455519
 20
1402.422677697283
 30
0.0
 11
-136.4122172455519
 21
1402.422677697283
 31
0.0
  0
SOLID
  5
15C6
330
10CB
100
AcDbEntity
  8
Layer1
 62
     0
100
AcDbTrace
 10
-179.9122172455519
 20
1402.452677697283
 30
0.0
 11
-179.9122172455519
 21
1402.392677697283
 31
0.0
 12
-180.0922172455519
 22
1402.422677697283
 32
0.0
 13
-180.0922172455519
 23
1402.422677697283
 33
0.0
  0
SOLID
  5
15C7
330
10CB
100
AcDbEntity
  8
Layer1
 62
     0
100
AcDbTrace
 10
-136.7722172455519
 20
1402.452677697283
 30
0.0
 11
-136.7722172455519
 21
1402.392677697283
 31
0.0
 12
-136.5922172455519
 22
1402.422677697283
 32
0.0
 13
-136.5922172455519
 23
1402.422677697283
 33
0.0
  0
MTEXT
  5
15C8
330
10CB
100
AcDbEntity
  8
Layer1
 62
     0
370
     0
100
AcDbMText
 10
-114.3222172455519
 20
1402.422677697283
 30
0.0
 40
8.0
 41
0.0
 71
     5
 72
     1
  1
\A1;43.5000
 73
     1
 44
1.0
  0
POINT
  5
15C9
330
10CB
100
AcDbEntity
  8
Defpoints
 62
     0
100
AcDbPoint
 10
-180.0922172455519
 20
1429.799743234079
 30
0.0
  0
POINT
  5
15CA
330
10CB
100
AcDbEntity
  8
Defpoints
 62
     0
100
AcDbPoint
 10
-136.5922172455519
 20
1429.799743234079
 30
0.0
  0
POINT
  5
15CB
330
10CB
100
AcDbEntity
  8
Defpoints
 62
     0
100
AcDbPoint
 10
-136.5922172455519
 20
1402.422677697283
 30
0.0
  0
ENDBLK
  5
10D7
330
10CB
100
AcDbEntity
  8
0
100
AcDbBlockEnd
  0
BLOCK
  5
10F0
330
10E5
100
AcDbEntity
  8
0
100
AcDbBlockBegin
  2
*D51
 70
     1
 10
0.0
 20
0.0
 30
0.0
  3
*D51
  1

  0
LINE
  5
15B8
330
10E5
100
AcDbEntity
  8
Layer1
  6
ACAD_ISO02W100
 62
     0
370
    -2
100
AcDbLine
 10
-12.59271724555196
 20
1421.224963977197
 30
0.0
 11
-1.103818534745194
 21
1421.224963977197
 31
0.0
  0
LINE
  5
15B9
330
10E5
100
AcDbEntity
  8
Layer1
  6
ACAD_ISO02W100
 62
     0
370
    -2
100
AcDbLine
 10
-12.59271724555196
 20
1471.224963977197
 30
0.0
 11
-1.103818534745183
 21
1471.224963977197
 31
0.0
  0
LINE
  5
15BA
330
10E5
100
AcDbEntity
  8
Layer1
  6
ACAD_ISO02W100
 62
     0
370
    -2
100
AcDbLine
 10
-4.103818534745195
 20
1421.404963977197
 30
0.0
 11
-4.103818534745189
 21
1442.134963977197
 31
0.0
  0
LINE
  5
15BB
330
10E5
100
AcDbEntity
  8
Layer1
  6
ACAD_ISO02W100
 62
     0
370
    -2
100
AcDbLine
 10
-4.103818534745183
 20
1471.044963977197
 30
0.0
 11
-4.103818534745188
 21
1450.314963977197
 31
0.0
  0
SOLID
  5
15BC
330
10E5
100
AcDbEntity
  8
Layer1
 62
     0
100
AcDbTrace
 10
-4.133818534745195
 20
1421.404963977197
 30
0.0
 11
-4.073818534745194
 21
1421.404963977197
 31
0.0
 12
-4.103818534745195
 22
1421.224963977197
 32
0.0
 13
-4.103818534745195
 23
1421.224963977197
 33
0.0
  0
SOLID
  5
15BD
330
10E5
100
AcDbEntity
  8
Layer1
 62
     0
100
AcDbTrace
 10
-4.133818534745183
 20
1471.044963977197
 30
0.0
 11
-4.073818534745183
 21
1471.044963977197
 31
0.0
 12
-4.103818534745183
 22
1471.224963977197
 32
0.0
 13
-4.103818534745183
 23
1471.224963977197
 33
0.0
  0
MTEXT
  5
15BE
330
10E5
100
AcDbEntity
  8
Layer1
 62
     0
370
     0
100
AcDbMText
 10
-4.103818534745421
 20
1446.224963977197
 30
0.0
 40
8.0
 41
0.0
 71
     5
 72
     1
  1
\A1;50.0000
 73
     1
 44
1.0
  0
POINT
  5
15BF
330
10E5
100
AcDbEntity
  8
Defpoints
 62
     0
100
AcDbPoint
 10
-20.59271724555197
 20
1421.224963977197
 30
0.0
  0
POINT
  5
15C0
330
10E5
100
AcDbEntity
  8
Defpoints
 62
     0
100
AcDbPoint
 10
-20.59271724555197
 20
1471.224963977197
 30
0.0
  0
POINT
  5
15C1
330
10E5
100
AcDbEntity
  8
Defpoints
 62
     0
100
AcDbPoint
 10
-4.103818534745183
 20
1471.224963977197
 30
0.0
  0
ENDBLK
  5
10F1
330
10E5
100
AcDbEntity
  8
0
100
AcDbBlockEnd
  0
BLOCK
  5
110A
330
10FF
100
AcDbEntity
  8
0
100
AcDbBlockBegin
  2
*D52
 70
     1
 10
0.0
 20
0.0
 30
0.0
  3
*D52
  1

  0
LINE
  5
15AE
330
10FF
100
AcDbEntity
  8
Layer2
  6
ACAD_ISO02W100
 62
     0
370
    -2
100
AcDbLine
 10
-258.7474631620662
 20
1471.224963977197
 30
0.0
 11
-307.7687796942154
 21
1471.224963977197
 31
0.0
  0
LINE
  5
15AF
330
10FF
100
AcDbEntity
  8
Layer2
  6
ACAD_ISO02W100
 62
     0
370
    -2
100
AcDbLine
 10
-258.7474631620662
 20
1396.221656979108
 30
0.0
 11
-307.7687796942155
 21
1396.221656979108
 31
0.0
  0
LINE
  5
15B0
330
10FF
100
AcDbEntity
  8
Layer2
  6
ACAD_ISO02W100
 62
     0
370
    -2
100
AcDbLine
 10
-304.7687796942154
 20
1471.044963977197
 30
0.0
 11
-304.7687796942154
 21
1437.813310478152
 31
0.0
  0
LINE
  5
15B1
330
10FF
100
AcDbEntity
  8
Layer2
  6
ACAD_ISO02W100
 62
     0
370
    -2
100
AcDbLine
 10
-304.7687796942155
 20
1396.401656979108
 30
0.0
 11
-304.7687796942154
 21
1429.633310478152
 31
0.0
  0
SOLID
  5
15B2
330
10FF
100
AcDbEntity
  8
Layer2
 62
     0
100
AcDbTrace
 10
-304.7987796942154
 20
1471.044963977197
 30
0.0
 11
-304.7387796942155
 21
1471.044963977197
 31
0.0
 12
-304.7687796942154
 22
1471.224963977197
 32
0.0
 13
-304.7687796942154
 23
1471.224963977197
 33
0.0
  0
SOLID
  5
15B3
330
10FF
100
AcDbEntity
  8
Layer2
 62
     0
100
AcDbTrace
 10
-304.7987796942154
 20
1396.401656979108
 30
0.0
 11
-304.7387796942155
 21
1396.401656979108
 31
0.0
 12
-304.7687796942155
 22
1396.221656979108
 32
0.0
 13
-304.7687796942155
 23
1396.221656979108
 33
0.0
  0
MTEXT
  5
15B4
330
10FF
100
AcDbEntity
  8
Layer2
 62
     0
370
     0
100
AcDbMText
 10
-304.7687796942156
 20
1433.723310478153
 30
0.0
 40
8.0
 41
0.0
 71
     5
 72
     1
  1
\A1;75.0033
 73
     1
 44
1.0
  0
POINT
  5
15B5
330
10FF
100
AcDbEntity
  8
Defpoints
 62
     0
100
AcDbPoint
 10
-250.7474631620662
 20
1471.224963977197
 30
0.0
  0
POINT
  5
15B6
330
10FF
100
AcDbEntity
  8
Defpoints
 62
     0
100
AcDbPoint
 10
-250.7474631620662
 20
1396.221656979108
 30
0.0
  0
POINT
  5
15B7
330
10FF
100
AcDbEntity
  8
Defpoints
 62
     0
100
AcDbPoint
 10
-304.7687796942155
 20
1396.221656979108
 30
0.0
  0
ENDBLK
  5
110B
330
10FF
100
AcDbEntity
  8
0
100
AcDbBlockEnd
  0
BLOCK
  5
114F
330
1144
100
AcDbEntity
  8
0
100
AcDbBlockBegin
  2
*D54
 70
     1
 10
0.0
 20
0.0
 30
0.0
  3
*D54
  1

  0
LINE
  5
15A4
330
1144
100
AcDbEntity
  8
Layer2
  6
ACAD_ISO02W100
 62
     0
370
    -2
100
AcDbLine
 10
-51.59271724555196
 20
1429.224963977197
 30
0.0
 11
-51.59271724555196
 21
1434.626495329878
 31
0.0
  0
LINE
  5
15A5
330
1144
100
AcDbEntity
  8
Layer2
  6
ACAD_ISO02W100
 62
     0
370
    -2
100
AcDbLine
 10
10.40728275444803
 20
1429.224963977197
 30
0.0
 11
10.40728275444803
 21
1434.626495329878
 31
0.0
  0
LINE
  5
15A6
330
1144
100
AcDbEntity
  8
Layer2
  6
ACAD_ISO02W100
 62
     0
370
    -2
100
AcDbLine
 10
-51.41271724555196
 20
1431.626495329878
 30
0.0
 11
-42.0160505788853
 21
1431.626495329878
 31
0.0
  0
LINE
  5
15A7
330
1144
100
AcDbEntity
  8
Layer2
  6
ACAD_ISO02W100
 62
     0
370
    -2
100
AcDbLine
 10
10.22728275444803
 20
1431.626495329878
 30
0.0
 11
0.8306160877813688
 21
1431.626495329878
 31
0.0
  0
SOLID
  5
15A8
330
1144
100
AcDbEntity
  8
Layer2
 62
     0
100
AcDbTrace
 10
-51.41271724555196
 20
1431.656495329878
 30
0.0
 11
-51.41271724555196
 21
1431.596495329878
 31
0.0
 12
-51.59271724555196
 22
1431.626495329878
 32
0.0
 13
-51.59271724555196
 23
1431.626495329878
 33
0.0
  0
SOLID
  5
15A9
330
1144
100
AcDbEntity
  8
Layer2
 62
     0
100
AcDbTrace
 10
10.22728275444803
 20
1431.656495329878
 30
0.0
 11
10.22728275444803
 21
1431.596495329878
 31
0.0
 12
10.40728275444803
 22
1431.626495329878
 32
0.0
 13
10.40728275444803
 23
1431.626495329878
 33
0.0
  0
MTEXT
  5
15AA
330
1144
100
AcDbEntity
  8
Layer2
 62
     0
370
     0
100
AcDbMText
 10
-20.59271724555197
 20
1431.626495329878
 30
0.0
 40
8.0
 41
0.0
 71
     5
 72
     1
  1
\A1;62.0000
 73
     1
 44
1.0
  0
POINT
  5
15AB
330
1144
100
AcDbEntity
  8
Defpoints
 62
     0
100
AcDbPoint
 10
-51.59271724555196
 20
1421.224963977197
 30
0.0
  0
POINT
  5
15AC
330
1144
100
AcDbEntity
  8
Defpoints
 62
     0
100
AcDbPoint
 10
10.40728275444803
 20
1421.224963977197
 30
0.0
  0
POINT
  5
15AD
330
1144
100
AcDbEntity
  8
Defpoints
 62
     0
100
AcDbPoint
 10
10.40728275444803
 20
1431.626495329878
 30
0.0
  0
ENDBLK
  5
1150
330
1144
100
AcDbEntity
  8
0
100
AcDbBlockEnd
  0
BLOCK
  5
1169
330
115E
100
AcDbEntity
  8
0
100
AcDbBlockBegin
  2
*D55
 70
     1
 10
0.0
 20
0.0
 30
0.0
  3
*D55
  1

  0
LINE
  5
159A
330
115E
100
AcDbEntity
  8
Layer2
  6
ACAD_ISO02W100
 62
     0
370
    -2
100
AcDbLine
 10
10.40728275444803
 20
1404.224963977198
 30
0.0
 11
10.40728275444803
 21
1409.270665710499
 31
0.0
  0
LINE
  5
159B
330
115E
100
AcDbEntity
  8
Layer2
  6
ACAD_ISO02W100
 62
     0
370
    -2
100
AcDbLine
 10
38.90778275444803
 20
1404.224963977198
 30
0.0
 11
38.90778275444803
 21
1409.270665710499
 31
0.0
  0
LINE
  5
159C
330
115E
100
AcDbEntity
  8
Layer2
  6
ACAD_ISO02W100
 62
     0
370
    -2
100
AcDbLine
 10
10.58728275444803
 20
1406.270665710499
 30
0.0
 11
38.72778275444803
 21
1406.270665710499
 31
0.0
  0
LINE
  5
159D
330
115E
100
AcDbEntity
  8
Layer2
  6
ACAD_ISO02W100
 62
     0
370
    -2
100
AcDbLine
 10
38.90778275444803
 20
1406.270665710499
 30
0.0
 11
39.08778275444803
 21
1406.270665710499
 31
0.0
  0
SOLID
  5
159E
330
115E
100
AcDbEntity
  8
Layer2
 62
     0
100
AcDbTrace
 10
10.58728275444803
 20
1406.300665710499
 30
0.0
 11
10.58728275444803
 21
1406.240665710499
 31
0.0
 12
10.40728275444803
 22
1406.270665710499
 32
0.0
 13
10.40728275444803
 23
1406.270665710499
 33
0.0
  0
SOLID
  5
159F
330
115E
100
AcDbEntity
  8
Layer2
 62
     0
100
AcDbTrace
 10
38.72778275444803
 20
1406.300665710499
 30
0.0
 11
38.72778275444803
 21
1406.240665710499
 31
0.0
 12
38.90778275444803
 22
1406.270665710499
 32
0.0
 13
38.90778275444803
 23
1406.270665710499
 33
0.0
  0
MTEXT
  5
15A0
330
115E
100
AcDbEntity
  8
Layer2
 62
     0
370
     0
100
AcDbMText
 10
61.8444494211147
 20
1406.270665710499
 30
0.0
 40
8.0
 41
0.0
 71
     5
 72
     1
  1
\A1;28.5005
 73
     1
 44
1.0
  0
POINT
  5
15A1
330
115E
100
AcDbEntity
  8
Defpoints
 62
     0
100
AcDbPoint
 10
10.40728275444803
 20
1396.224963977198
 30
0.0
  0
POINT
  5
15A2
330
115E
100
AcDbEntity
  8
Defpoints
 62
     0
100
AcDbPoint
 10
38.90778275444803
 20
1396.224963977198
 30
0.0
  0
POINT
  5
15A3
330
115E
100
AcDbEntity
  8
Defpoints
 62
     0
100
AcDbPoint
 10
38.90778275444803
 20
1406.270665710499
 30
0.0
  0
ENDBLK
  5
116A
330
115E
100
AcDbEntity
  8
0
100
AcDbBlockEnd
  0
BLOCK
  5
1183
330
1178
100
AcDbEntity
  8
0
100
AcDbBlockBegin
  2
*D56
 70
     1
 10
0.0
 20
0.0
 30
0.0
  3
*D56
  1

  0
LINE
  5
1590
330
1178
100
AcDbEntity
  8
Layer2
  6
ACAD_ISO02W100
 62
     0
370
    -2
100
AcDbLine
 10
-80.09221724555198
 20
1404.224963977197
 30
0.0
 11
-80.09221724555198
 21
1411.602235802614
 31
0.0
  0
LINE
  5
1591
330
1178
100
AcDbEntity
  8
Layer2
  6
ACAD_ISO02W100
 62
     0
370
    -2
100
AcDbLine
 10
-51.59271724555197
 20
1404.224963977197
 30
0.0
 11
-51.59271724555197
 21
1411.602235802614
 31
0.0
  0
LINE
  5
1592
330
1178
100
AcDbEntity
  8
Layer2
  6
ACAD_ISO02W100
 62
     0
370
    -2
100
AcDbLine
 10
-79.91221724555197
 20
1408.602235802614
 30
0.0
 11
-51.77271724555197
 21
1408.602235802614
 31
0.0
  0
LINE
  5
1593
330
1178
100
AcDbEntity
  8
Layer2
  6
ACAD_ISO02W100
 62
     0
370
    -2
100
AcDbLine
 10
-51.59271724555197
 20
1408.602235802614
 30
0.0
 11
-51.41271724555197
 21
1408.602235802614
 31
0.0
  0
SOLID
  5
1594
330
1178
100
AcDbEntity
  8
Layer2
 62
     0
100
AcDbTrace
 10
-79.91221724555197
 20
1408.632235802614
 30
0.0
 11
-79.91221724555197
 21
1408.572235802614
 31
0.0
 12
-80.09221724555198
 22
1408.602235802614
 32
0.0
 13
-80.09221724555198
 23
1408.602235802614
 33
0.0
  0
SOLID
  5
1595
330
1178
100
AcDbEntity
  8
Layer2
 62
     0
100
AcDbTrace
 10
-51.77271724555197
 20
1408.632235802614
 30
0.0
 11
-51.77271724555197
 21
1408.572235802614
 31
0.0
 12
-51.59271724555197
 22
1408.602235802614
 32
0.0
 13
-51.59271724555197
 23
1408.602235802614
 33
0.0
  0
MTEXT
  5
1596
330
1178
100
AcDbEntity
  8
Layer2
 62
     0
370
     0
100
AcDbMText
 10
-27.32271724555197
 20
1408.602235802614
 30
0.0
 40
8.0
 41
0.0
 71
     5
 72
     1
  1
\A1;28.4995
 73
     1
 44
1.0
  0
POINT
  5
1597
330
1178
100
AcDbEntity
  8
Defpoints
 62
     0
100
AcDbPoint
 10
-80.09221724555198
 20
1396.224963977197
 30
0.0
  0
POINT
  5
1598
330
1178
100
AcDbEntity
  8
Defpoints
 62
     0
100
AcDbPoint
 10
-51.59271724555197
 20
1396.224963977197
 30
0.0
  0
POINT
  5
1599
330
1178
100
AcDbEntity
  8
Defpoints
 62
     0
100
AcDbPoint
 10
-51.59271724555197
 20
1408.602235802614
 30
0.0
  0
ENDBLK
  5
1184
330
1178
100
AcDbEntity
  8
0
100
AcDbBlockEnd
  0
BLOCK
  5
119D
330
1192
100
AcDbEntity
  8
0
100
AcDbBlockBegin
  2
*D57
 70
     1
 10
0.0
 20
0.0
 30
0.0
  3
*D57
  1

  0
LINE
  5
1586
330
1192
100
AcDbEntity
  8
Layer2
  6
ACAD_ISO02W100
 62
     0
370
    -2
100
AcDbLine
 10
2.407282754448032
 20
1421.224963977197
 30
0.0
 11
-3.305483415103476
 21
1421.224963977197
 31
0.0
  0
LINE
  5
1587
330
1192
100
AcDbEntity
  8
Layer2
  6
ACAD_ISO02W100
 62
     0
370
    -2
100
AcDbLine
 10
2.407282754448032
 20
1396.224963977198
 30
0.0
 11
-3.305483415103481
 21
1396.224963977198
 31
0.0
  0
LINE
  5
1588
330
1192
100
AcDbEntity
  8
Layer2
  6
ACAD_ISO02W100
 62
     0
370
    -2
100
AcDbLine
 10
-0.3054834151034756
 20
1421.044963977197
 30
0.0
 11
-0.3054834151034774
 21
1412.814963977197
 31
0.0
  0
LINE
  5
1589
330
1192
100
AcDbEntity
  8
Layer2
  6
ACAD_ISO02W100
 62
     0
370
    -2
100
AcDbLine
 10
-0.305483415103481
 20
1396.404963977198
 30
0.0
 11
-0.3054834151034792
 21
1404.634963977198
 31
0.0
  0
SOLID
  5
158A
330
1192
100
AcDbEntity
  8
Layer2
 62
     0
100
AcDbTrace
 10
-0.3354834151034756
 20
1421.044963977197
 30
0.0
 11
-0.2754834151034756
 21
1421.044963977197
 31
0.0
 12
-0.3054834151034755
 22
1421.224963977197
 32
0.0
 13
-0.3054834151034755
 23
1421.224963977197
 33
0.0
  0
SOLID
  5
158B
330
1192
100
AcDbEntity
  8
Layer2
 62
     0
100
AcDbTrace
 10
-0.335483415103481
 20
1396.404963977198
 30
0.0
 11
-0.2754834151034811
 21
1396.404963977198
 31
0.0
 12
-0.3054834151034811
 22
1396.224963977198
 32
0.0
 13
-0.3054834151034811
 23
1396.224963977198
 33
0.0
  0
MTEXT
  5
158C
330
1192
100
AcDbEntity
  8
Layer2
 62
     0
370
     0
100
AcDbMText
 10
-0.3054834151037049
 20
1408.724963977197
 30
0.0
 40
8.0
 41
0.0
 71
     5
 72
     1
  1
\A1;25.0000
 73
     1
 44
1.0
  0
POINT
  5
158D
330
1192
100
AcDbEntity
  8
Defpoints
 62
     0
100
AcDbPoint
 10
10.40728275444803
 20
1421.224963977197
 30
0.0
  0
POINT
  5
158E
330
1192
100
AcDbEntity
  8
Defpoints
 62
     0
100
AcDbPoint
 10
10.40728275444803
 20
1396.224963977198
 30
0.0
  0
POINT
  5
158F
330
1192
100
AcDbEntity
  8
Defpoints
 62
     0
100
AcDbPoint
 10
-0.3054834151034811
 20
1396.224963977198
 30
0.0
  0
ENDBLK
  5
119E
330
1192
100
AcDbEntity
  8
0
100
AcDbBlockEnd
  0
BLOCK
  5
11C8
330
11BD
100
AcDbEntity
  8
0
100
AcDbBlockBegin
  2
*D58
 70
     1
 10
0.0
 20
0.0
 30
0.0
  3
*D58
  1

  0
LINE
  5
157C
330
11BD
100
AcDbEntity
  8
Layer1
  6
ACAD_ISO02W100
 62
     0
370
    -2
100
AcDbLine
 10
130.907782754448
 20
1471.224963977197
 30
0.0
 11
119.8638826292247
 21
1471.224963977197
 31
0.0
  0
LINE
  5
157D
330
11BD
100
AcDbEntity
  8
Layer1
  6
ACAD_ISO02W100
 62
     0
370
    -2
100
AcDbLine
 10
130.907782754448
 20
1429.799743234079
 30
0.0
 11
119.8638826292247
 21
1429.799743234079
 31
0.0
  0
LINE
  5
157E
330
11BD
100
AcDbEntity
  8
Layer1
  6
ACAD_ISO02W100
 62
     0
370
    -2
100
AcDbLine
 10
122.8638826292247
 20
1471.044963977197
 30
0.0
 11
122.8638826292247
 21
1454.602353605638
 31
0.0
  0
LINE
  5
157F
330
11BD
100
AcDbEntity
  8
Layer1
  6
ACAD_ISO02W100
 62
     0
370
    -2
100
AcDbLine
 10
122.8638826292247
 20
1429.979743234079
 30
0.0
 11
122.8638826292247
 21
1446.422353605638
 31
0.0
  0
SOLID
  5
1580
330
11BD
100
AcDbEntity
  8
Layer1
 62
     0
100
AcDbTrace
 10
122.8338826292247
 20
1471.044963977197
 30
0.0
 11
122.8938826292247
 21
1471.044963977197
 31
0.0
 12
122.8638826292247
 22
1471.224963977197
 32
0.0
 13
122.8638826292247
 23
1471.224963977197
 33
0.0
  0
SOLID
  5
1581
330
11BD
100
AcDbEntity
  8
Layer1
 62
     0
100
AcDbTrace
 10
122.8338826292247
 20
1429.979743234079
 30
0.0
 11
122.8938826292247
 21
1429.979743234079
 31
0.0
 12
122.8638826292247
 22
1429.799743234079
 32
0.0
 13
122.8638826292247
 23
1429.799743234079
 33
0.0
  0
MTEXT
  5
1582
330
11BD
100
AcDbEntity
  8
Layer1
 62
     0
370
     0
100
AcDbMText
 10
122.8638826292244
 20
1450.512353605638
 30
0.0
 40
8.0
 41
0.0
 71
     5
 72
     1
  1
\A1;41.4252
 73
     1
 44
1.0
  0
POINT
  5
1583
330
11BD
100
AcDbEntity
  8
Defpoints
 62
     0
100
AcDbPoint
 10
138.907782754448
 20
1471.224963977197
 30
0.0
  0
POINT
  5
1584
330
11BD
100
AcDbEntity
  8
Defpoints
 62
     0
100
AcDbPoint
 10
138.907782754448
 20
1429.799743234079
 30
0.0
  0
POINT
  5
1585
330
11BD
100
AcDbEntity
  8
Defpoints
 62
     0
100
AcDbPoint
 10
122.8638826292247
 20
1429.799743234079
 30
0.0
  0
ENDBLK
  5
11C9
330
11BD
100
AcDbEntity
  8
0
100
AcDbBlockEnd
  0
BLOCK
  5
11D6
330
11CB
100
AcDbEntity
  8
0
100
AcDbBlockBegin
  2
*D59
 70
     1
 10
0.0
 20
0.0
 30
0.0
  3
*D59
  1

  0
LINE
  5
1572
330
11CB
100
AcDbEntity
  8
Layer2
  6
ACAD_ISO02W100
 62
     0
370
    -2
100
AcDbLine
 10
-172.5922172455519
 20
1670.724963977197
 30
0.0
 11
-173.63606656727
 21
1670.724963977197
 31
0.0
  0
LINE
  5
1573
330
11CB
100
AcDbEntity
  8
Layer2
  6
ACAD_ISO02W100
 62
     0
370
    -2
100
AcDbLine
 10
-172.5922172455519
 20
1471.724963977197
 30
0.0
 11
-173.6360665672701
 21
1471.724963977197
 31
0.0
  0
LINE
  5
1574
330
11CB
100
AcDbEntity
  8
Layer2
  6
ACAD_ISO02W100
 62
     0
370
    -2
100
AcDbLine
 10
-176.63606656727
 20
1670.544963977197
 30
0.0
 11
-176.63606656727
 21
1575.314963977197
 31
0.0
  0
LINE
  5
1575
330
11CB
100
AcDbEntity
  8
Layer2
  6
ACAD_ISO02W100
 62
     0
370
    -2
100
AcDbLine
 10
-176.6360665672701
 20
1471.904963977197
 30
0.0
 11
-176.63606656727
 21
1567.134963977197
 31
0.0
  0
SOLID
  5
1576
330
11CB
100
AcDbEntity
  8
Layer2
 62
     0
100
AcDbTrace
 10
-176.66606656727
 20
1670.544963977197
 30
0.0
 11
-176.60606656727
 21
1670.544963977197
 31
0.0
 12
-176.63606656727
 22
1670.724963977197
 32
0.0
 13
-176.63606656727
 23
1670.724963977197
 33
0.0
  0
SOLID
  5
1577
330
11CB
100
AcDbEntity
  8
Layer2
 62
     0
100
AcDbTrace
 10
-176.6660665672701
 20
1471.904963977197
 30
0.0
 11
-176.6060665672701
 21
1471.904963977197
 31
0.0
 12
-176.6360665672701
 22
1471.724963977197
 32
0.0
 13
-176.6360665672701
 23
1471.724963977197
 33
0.0
  0
MTEXT
  5
1578
330
11CB
100
AcDbEntity
  8
Layer2
 62
     0
370
     0
100
AcDbMText
 10
-176.6360665672703
 20
1571.224963977197
 30
0.0
 40
8.0
 41
0.0
 71
     5
 72
     1
  1
\A1;199.0000
 73
     1
 44
1.0
  0
POINT
  5
1579
330
11CB
100
AcDbEntity
  8
Defpoints
 62
     0
100
AcDbPoint
 10
-180.592217245552
 20
1670.724963977197
 30
0.0
  0
POINT
  5
157A
330
11CB
100
AcDbEntity
  8
Defpoints
 62
     0
100
AcDbPoint
 10
-180.592217245552
 20
1471.724963977197
 30
0.0
  0
POINT
  5
157B
330
11CB
100
AcDbEntity
  8
Defpoints
 62
     0
100
AcDbPoint
 10
-176.6360665672701
 20
1471.724963977197
 30
0.0
  0
ENDBLK
  5
11D7
330
11CB
100
AcDbEntity
  8
0
100
AcDbBlockEnd
  0
BLOCK
  5
11F0
330
11E5
100
AcDbEntity
  8
0
100
AcDbBlockBegin
  2
*D60
 70
     1
 10
0.0
 20
0.0
 30
0.0
  3
*D60
  1

  0
LINE
  5
1568
330
11E5
100
AcDbEntity
  8
Layer2
  6
ACAD_ISO02W100
 62
     0
370
    -2
100
AcDbLine
 10
-300.0120854806087
 20
1479.224963977197
 30
0.0
 11
-300.0120854806087
 21
1478.028961273476
 31
0.0
  0
LINE
  5
1569
330
11E5
100
AcDbEntity
  8
Layer2
  6
ACAD_ISO02W100
 62
     0
370
    -2
100
AcDbLine
 10
-181.1723490104959
 20
1479.224963977197
 30
0.0
 11
-181.1723490104959
 21
1478.028961273476
 31
0.0
  0
LINE
  5
156A
330
11E5
100
AcDbEntity
  8
Layer2
  6
ACAD_ISO02W100
 62
     0
370
    -2
100
AcDbLine
 10
-299.8320854806087
 20
1475.028961273476
 30
0.0
 11
-266.0155505788857
 21
1475.028961273476
 31
0.0
  0
LINE
  5
156B
330
11E5
100
AcDbEntity
  8
Layer2
  6
ACAD_ISO02W100
 62
     0
370
    -2
100
AcDbLine
 10
-181.3523490104959
 20
1475.028961273476
 30
0.0
 11
-215.168883912219
 21
1475.028961273476
 31
0.0
  0
SOLID
  5
156C
330
11E5
100
AcDbEntity
  8
Layer2
 62
     0
100
AcDbTrace
 10
-299.8320854806087
 20
1475.058961273475
 30
0.0
 11
-299.8320854806087
 21
1474.998961273476
 31
0.0
 12
-300.0120854806087
 22
1475.028961273476
 32
0.0
 13
-300.0120854806087
 23
1475.028961273476
 33
0.0
  0
SOLID
  5
156D
330
11E5
100
AcDbEntity
  8
Layer2
 62
     0
100
AcDbTrace
 10
-181.3523490104959
 20
1475.058961273475
 30
0.0
 11
-181.3523490104959
 21
1474.998961273476
 31
0.0
 12
-181.1723490104959
 22
1475.028961273476
 32
0.0
 13
-181.1723490104959
 23
1475.028961273476
 33
0.0
  0
MTEXT
  5
156E
330
11E5
100
AcDbEntity
  8
Layer2
 62
     0
370
     0
100
AcDbMText
 10
-240.5922172455523
 20
1475.028961273476
 30
0.0
 40
8.0
 41
0.0
 71
     5
 72
     1
  1
\A1;118.8397
 73
     1
 44
1.0
  0
POINT
  5
156F
330
11E5
100
AcDbEntity
  8
Defpoints
 62
     0
100
AcDbPoint
 10
-300.0120854806087
 20
1471.224963977197
 30
0.0
  0
POINT
  5
1570
330
11E5
100
AcDbEntity
  8
Defpoints
 62
     0
100
AcDbPoint
 10
-181.1723490104959
 20
1471.224963977197
 30
0.0
  0
POINT
  5
1571
330
11E5
100
AcDbEntity
  8
Defpoints
 62
     0
100
AcDbPoint
 10
-181.1723490104959
 20
1475.028961273476
 30
0.0
  0
ENDBLK
  5
11F1
330
11E5
100
AcDbEntity
  8
0
100
AcDbBlockEnd
  0
BLOCK
  5
163D
330
1632
100
AcDbEntity
  8
0
100
AcDbBlockBegin
  2
*D63
 70
     1
 10
0.0
 20
0.0
 30
0.0
  3
*D63
  1

  0
LINE
  5
1640
330
1632
100
AcDbEntity
  8
Layer2
  6
ACAD_ISO02W100
 62
     0
370
    -2
100
AcDbLine
 10
-180.0922172455519
 20
1479.224963977197
 30
0.0
 11
-180.0922172455519
 21
1480.392637083354
 31
0.0
  0
LINE
  5
1641
330
1632
100
AcDbEntity
  8
Layer2
  6
ACAD_ISO02W100
 62
     0
370
    -2
100
AcDbLine
 10
-81.57824105701978
 20
1479.224963977197
 30
0.0
 11
-81.57824105701978
 21
1480.392637083354
 31
0.0
  0
LINE
  5
1642
330
1632
100
AcDbEntity
  8
Layer2
  6
ACAD_ISO02W100
 62
     0
370
    -2
100
AcDbLine
 10
-179.9122172455519
 20
1477.392637083354
 30
0.0
 11
-152.9252291512859
 21
1477.392637083354
 31
0.0
  0
LINE
  5
1643
330
1632
100
AcDbEntity
  8
Layer2
  6
ACAD_ISO02W100
 62
     0
370
    -2
100
AcDbLine
 10
-81.75824105701979
 20
1477.392637083354
 30
0.0
 11
-108.7452291512859
 21
1477.392637083354
 31
0.0
  0
SOLID
  5
1644
330
1632
100
AcDbEntity
  8
Layer2
 62
     0
100
AcDbTrace
 10
-179.9122172455519
 20
1477.422637083354
 30
0.0
 11
-179.9122172455519
 21
1477.362637083354
 31
0.0
 12
-180.0922172455519
 22
1477.392637083354
 32
0.0
 13
-180.0922172455519
 23
1477.392637083354
 33
0.0
  0
SOLID
  5
1645
330
1632
100
AcDbEntity
  8
Layer2
 62
     0
100
AcDbTrace
 10
-81.75824105701979
 20
1477.422637083354
 30
0.0
 11
-81.75824105701979
 21
1477.362637083354
 31
0.0
 12
-81.57824105701978
 22
1477.392637083354
 32
0.0
 13
-81.57824105701978
 23
1477.392637083354
 33
0.0
  0
MTEXT
  5
1646
330
1632
100
AcDbEntity
  8
Layer2
 62
     0
100
AcDbMText
 10
-130.8352291512859
 20
1477.392637083354
 30
0.0
 40
8.0
 41
0.0
 71
     5
 72
     1
  1
\A1;98.5140
 73
     1
 44
1.0
  0
POINT
  5
1647
330
1632
100
AcDbEntity
  8
Defpoints
 62
     0
100
AcDbPoint
 10
-180.0922172455519
 20
1471.224963977197
 30
0.0
  0
POINT
  5
1648
330
1632
100
AcDbEntity
  8
Defpoints
 62
     0
100
AcDbPoint
 10
-81.57824105701978
 20
1471.224963977197
 30
0.0
  0
POINT
  5
1649
330
1632
100
AcDbEntity
  8
Defpoints
 62
     0
100
AcDbPoint
 10
-81.57824105701978
 20
1477.392637083354
 30
0.0
  0
ENDBLK
  5
163E
330
1632
100
AcDbEntity
  8
0
100
AcDbBlockEnd
  0
BLOCK
  5
16BA
330
16AF
100
AcDbEntity
  8
0
100
AcDbBlockBegin
  2
*D67
 70
     1
 10
0.0
 20
0.0
 30
0.0
  3
*D67
  1

  0
LINE
  5
16BD
330
16AF
100
AcDbEntity
  8
Layer2
  6
ACAD_ISO02W100
 62
     0
370
    -2
100
AcDbLine
 10
40.39380656591544
 20
1479.224963977197
 30
0.0
 11
40.39380656591544
 21
1483.497341996247
 31
0.0
  0
LINE
  5
16BE
330
16AF
100
AcDbEntity
  8
Layer2
  6
ACAD_ISO02W100
 62
     0
370
    -2
100
AcDbLine
 10
138.907782754448
 20
1479.224963977197
 30
0.0
 11
138.907782754448
 21
1483.497341996247
 31
0.0
  0
LINE
  5
16BF
330
16AF
100
AcDbEntity
  8
Layer2
  6
ACAD_ISO02W100
 62
     0
370
    -2
100
AcDbLine
 10
40.57380656591544
 20
1480.497341996247
 30
0.0
 11
67.56079466018171
 21
1480.497341996247
 31
0.0
  0
LINE
  5
16C0
330
16AF
100
AcDbEntity
  8
Layer2
  6
ACAD_ISO02W100
 62
     0
370
    -2
100
AcDbLine
 10
138.727782754448
 20
1480.497341996247
 30
0.0
 11
111.7407946601817
 21
1480.497341996247
 31
0.0
  0
SOLID
  5
16C1
330
16AF
100
AcDbEntity
  8
Layer2
 62
     0
100
AcDbTrace
 10
40.57380656591544
 20
1480.527341996246
 30
0.0
 11
40.57380656591544
 21
1480.467341996247
 31
0.0
 12
40.39380656591544
 22
1480.497341996247
 32
0.0
 13
40.39380656591544
 23
1480.497341996247
 33
0.0
  0
SOLID
  5
16C2
330
16AF
100
AcDbEntity
  8
Layer2
 62
     0
100
AcDbTrace
 10
138.727782754448
 20
1480.527341996246
 30
0.0
 11
138.727782754448
 21
1480.467341996247
 31
0.0
 12
138.907782754448
 22
1480.497341996247
 32
0.0
 13
138.907782754448
 23
1480.497341996247
 33
0.0
  0
MTEXT
  5
16C3
330
16AF
100
AcDbEntity
  8
Layer2
 62
     0
100
AcDbMText
 10
89.65079466018172
 20
1480.497341996247
 30
0.0
 40
8.0
 41
0.0
 71
     5
 72
     1
  1
\A1;98.5140
 73
     1
 44
1.0
  0
POINT
  5
16C4
330
16AF
100
AcDbEntity
  8
Defpoints
 62
     0
100
AcDbPoint
 10
40.39380656591544
 20
1471.224963977197
 30
0.0
  0
POINT
  5
16C5
330
16AF
100
AcDbEntity
  8
Defpoints
 62
     0
100
AcDbPoint
 10
138.907782754448
 20
1471.224963977197
 30
0.0
  0
POINT
  5
16C6
330
16AF
100
AcDbEntity
  8
Defpoints
 62
     0
100
AcDbPoint
 10
138.907782754448
 20
1480.497341996247
 30
0.0
  0
ENDBLK
  5
16BB
330
16AF
100
AcDbEntity
  8
0
100
AcDbBlockEnd
  0
BLOCK
  5
16D4
330
16C9
100
AcDbEntity
  8
0
100
AcDbBlockBegin
  2
*D68
 70
     1
 10
0.0
 20
0.0
 30
0.0
  3
*D68
  1

  0
LINE
  5
16D7
330
16C9
100
AcDbEntity
  8
Layer2
  6
ACAD_ISO02W100
 62
     0
370
    -2
100
AcDbLine
 10
-35.59221724555198
 20
1642.224963977197
 30
0.0
 11
-35.59221724555198
 21
1640.462440055719
 31
0.0
  0
LINE
  5
16D8
330
16C9
100
AcDbEntity
  8
Layer2
  6
ACAD_ISO02W100
 62
     0
370
    -2
100
AcDbLine
 10
-5.592217245551979
 20
1642.224963977197
 30
0.0
 11
-5.592217245551979
 21
1640.462440055719
 31
0.0
  0
LINE
  5
16D9
330
16C9
100
AcDbEntity
  8
Layer2
  6
ACAD_ISO02W100
 62
     0
370
    -2
100
AcDbLine
 10
-35.41221724555198
 20
1643.462440055719
 30
0.0
 11
-5.772217245551978
 21
1643.462440055719
 31
0.0
  0
LINE
  5
16DA
330
16C9
100
AcDbEntity
  8
Layer2
  6
ACAD_ISO02W100
 62
     0
370
    -2
100
AcDbLine
 10
-5.592217245551978
 20
1643.462440055719
 30
0.0
 11
-5.412217245551978
 21
1643.462440055719
 31
0.0
  0
SOLID
  5
16DB
330
16C9
100
AcDbEntity
  8
Layer2
 62
     0
100
AcDbTrace
 10
-35.41221724555198
 20
1643.492440055719
 30
0.0
 11
-35.41221724555198
 21
1643.432440055719
 31
0.0
 12
-35.59221724555198
 22
1643.462440055719
 32
0.0
 13
-35.59221724555198
 23
1643.462440055719
 33
0.0
  0
SOLID
  5
16DC
330
16C9
100
AcDbEntity
  8
Layer2
 62
     0
100
AcDbTrace
 10
-5.772217245551978
 20
1643.492440055719
 30
0.0
 11
-5.772217245551978
 21
1643.432440055719
 31
0.0
 12
-5.592217245551978
 22
1643.462440055719
 32
0.0
 13
-5.592217245551978
 23
1643.462440055719
 33
0.0
  0
MTEXT
  5
16DD
330
16C9
100
AcDbEntity
  8
Layer2
 62
     0
100
AcDbMText
 10
15.34444942111469
 20
1643.462440055719
 30
0.0
 40
8.0
 41
0.0
 71
     5
 72
     1
  1
\A1;30.0000
 73
     1
 44
1.0
  0
POINT
  5
16DE
330
16C9
100
AcDbEntity
  8
Defpoints
 62
     0
100
AcDbPoint
 10
-35.59221724555198
 20
1650.224963977197
 30
0.0
  0
POINT
  5
16DF
330
16C9
100
AcDbEntity
  8
Defpoints
 62
     0
100
AcDbPoint
 10
-5.592217245551978
 20
1650.224963977197
 30
0.0
  0
POINT
  5
16E0
330
16C9
100
AcDbEntity
  8
Defpoints
 62
     0
100
AcDbPoint
 10
-5.592217245551978
 20
1643.462440055719
 30
0.0
  0
ENDBLK
  5
16D5
330
16C9
100
AcDbEntity
  8
0
100
AcDbBlockEnd
  0
BLOCK
  5
16EE
330
16E3
100
AcDbEntity
  8
0
100
AcDbBlockBegin
  2
*D69
 70
     1
 10
0.0
 20
0.0
 30
0.0
  3
*D69
  1

  0
LINE
  5
16F1
330
16E3
100
AcDbEntity
  8
Layer2
  6
ACAD_ISO02W100
 62
     0
370
    -2
100
AcDbLine
 10
2.407782754448021
 20
1650.224963977197
 30
0.0
 11
10.46621534853056
 21
1650.224963977197
 31
0.0
  0
LINE
  5
16F2
330
16E3
100
AcDbEntity
  8
Layer2
  6
ACAD_ISO02W100
 62
     0
370
    -2
100
AcDbLine
 10
2.407782754448021
 20
1670.224963977197
 30
0.0
 11
10.46621534853056
 21
1670.224963977197
 31
0.0
  0
LINE
  5
16F3
330
16E3
100
AcDbEntity
  8
Layer2
  6
ACAD_ISO02W100
 62
     0
370
    -2
100
AcDbLine
 10
7.466215348530565
 20
1650.404963977197
 30
0.0
 11
7.466215348530566
 21
1656.134963977197
 31
0.0
  0
LINE
  5
16F4
330
16E3
100
AcDbEntity
  8
Layer2
  6
ACAD_ISO02W100
 62
     0
370
    -2
100
AcDbLine
 10
7.466215348530569
 20
1670.044963977197
 30
0.0
 11
7.466215348530568
 21
1664.314963977197
 31
0.0
  0
SOLID
  5
16F5
330
16E3
100
AcDbEntity
  8
Layer2
 62
     0
100
AcDbTrace
 10
7.436215348530565
 20
1650.404963977197
 30
0.0
 11
7.496215348530565
 21
1650.404963977197
 31
0.0
 12
7.466215348530565
 22
1650.224963977197
 32
0.0
 13
7.466215348530565
 23
1650.224963977197
 33
0.0
  0
SOLID
  5
16F6
330
16E3
100
AcDbEntity
  8
Layer2
 62
     0
100
AcDbTrace
 10
7.436215348530569
 20
1670.044963977197
 30
0.0
 11
7.49621534853057
 21
1670.044963977197
 31
0.0
 12
7.466215348530569
 22
1670.224963977197
 32
0.0
 13
7.466215348530569
 23
1670.224963977197
 33
0.0
  0
MTEXT
  5
16F7
330
16E3
100
AcDbEntity
  8
Layer2
 62
     0
100
AcDbMText
 10
7.466215348530299
 20
1660.224963977197
 30
0.0
 40
8.0
 41
0.0
 71
     5
 72
     1
  1
\A1;20.0000
 73
     1
 44
1.0
  0
POINT
  5
16F8
330
16E3
100
AcDbEntity
  8
Defpoints
 62
     0
100
AcDbPoint
 10
-5.592217245551978
 20
1650.224963977197
 30
0.0
  0
POINT
  5
16F9
330
16E3
100
AcDbEntity
  8
Defpoints
 62
     0
100
AcDbPoint
 10
-5.592217245551978
 20
1670.224963977197
 30
0.0
  0
POINT
  5
16FA
330
16E3
100
AcDbEntity
  8
Defpoints
 62
     0
100
AcDbPoint
 10
7.466215348530569
 20
1670.224963977197
 30
0.0
  0
ENDBLK
  5
16EF
330
16E3
100
AcDbEntity
  8
0
100
AcDbBlockEnd
  0
BLOCK
  5
1708
330
16FD
100
AcDbEntity
  8
0
100
AcDbBlockBegin
  2
*D70
 70
     1
 10
0.0
 20
0.0
 30
0.0
  3
*D70
  1

  0
LINE
  5
170B
330
16FD
100
AcDbEntity
  8
Layer2
  6
ACAD_ISO02W100
 62
     0
370
    -2
100
AcDbLine
 10
-12.59221724555197
 20
1670.224963977197
 30
0.0
 11
21.30636841756131
 21
1670.224963977197
 31
0.0
  0
LINE
  5
170C
330
16FD
100
AcDbEntity
  8
Layer2
  6
ACAD_ISO02W100
 62
     0
370
    -2
100
AcDbLine
 10
-12.59221724555198
 20
1690.224963977197
 30
0.0
 11
21.30636841756132
 21
1690.224963977197
 31
0.0
  0
LINE
  5
170D
330
16FD
100
AcDbEntity
  8
Layer2
  6
ACAD_ISO02W100
 62
     0
370
    -2
100
AcDbLine
 10
18.30636841756131
 20
1670.404963977197
 30
0.0
 11
18.30636841756131
 21
1676.134963977197
 31
0.0
  0
LINE
  5
170E
330
16FD
100
AcDbEntity
  8
Layer2
  6
ACAD_ISO02W100
 62
     0
370
    -2
100
AcDbLine
 10
18.30636841756131
 20
1690.044963977197
 30
0.0
 11
18.30636841756131
 21
1684.314963977197
 31
0.0
  0
SOLID
  5
170F
330
16FD
100
AcDbEntity
  8
Layer2
 62
     0
100
AcDbTrace
 10
18.27636841756131
 20
1670.404963977197
 30
0.0
 11
18.33636841756131
 21
1670.404963977197
 31
0.0
 12
18.30636841756131
 22
1670.224963977197
 32
0.0
 13
18.30636841756131
 23
1670.224963977197
 33
0.0
  0
SOLID
  5
1710
330
16FD
100
AcDbEntity
  8
Layer2
 62
     0
100
AcDbTrace
 10
18.27636841756131
 20
1690.044963977197
 30
0.0
 11
18.33636841756131
 21
1690.044963977197
 31
0.0
 12
18.30636841756131
 22
1690.224963977197
 32
0.0
 13
18.30636841756131
 23
1690.224963977197
 33
0.0
  0
MTEXT
  5
1711
330
16FD
100
AcDbEntity
  8
Layer2
 62
     0
100
AcDbMText
 10
18.30636841756104
 20
1680.224963977197
 30
0.0
 40
8.0
 41
0.0
 71
     5
 72
     1
  1
\A1;20.0000
 73
     1
 44
1.0
  0
POINT
  5
1712
330
16FD
100
AcDbEntity
  8
Defpoints
 62
     0
100
AcDbPoint
 10
-20.59221724555198
 20
1670.224963977197
 30
0.0
  0
POINT
  5
1713
330
16FD
100
AcDbEntity
  8
Defpoints
 62
     0
100
AcDbPoint
 10
-20.59221724555198
 20
1690.224963977197
 30
0.0
  0
POINT
  5
1714
330
16FD
100
AcDbEntity
  8
Defpoints
 62
     0
100
AcDbPoint
 10
18.30636841756131
 20
1690.224963977197
 30
0.0
  0
ENDBLK
  5
1709
330
16FD
100
AcDbEntity
  8
0
100
AcDbBlockEnd
  0
BLOCK
  5
1720
330
1717
100
AcDbEntity
  8
0
100
AcDbBlockBegin
  2
*D71
 70
     1
 10
0.0
 20
0.0
 30
0.0
  3
*D71
  1

  0
LINE
  5
1723
330
1717
100
AcDbEntity
  8
Layer2
  6
ACAD_ISO02W100
 62
     0
370
    -2
100
AcDbLine
 10
-32.64169019774442
 20
1701.571271785404
 30
0.0
 11
-32.46169019774445
 21
1701.571271785405
 31
0.0
  0
LINE
  5
1724
330
1717
100
AcDbEntity
  8
Layer2
  6
ACAD_ISO02W100
 62
     0
370
    -2
100
AcDbLine
 10
-32.46169019774445
 20
1701.571271785405
 30
0.0
 11
-31.18079989915262
 21
1690.371416197891
 31
0.0
  0
MTEXT
  5
1725
330
1717
100
AcDbEntity
  8
Layer2
 62
     0
100
AcDbMText
 10
-54.06502353107794
 20
1701.571271785404
 30
0.0
 40
8.0
 41
0.0
 71
     5
 72
     1
  1
\A1;R5.0000
 73
     1
 44
1.0
  0
SOLID
  5
1726
330
1717
100
AcDbEntity
  8
Layer2
 62
     0
100
AcDbTrace
 10
-31.15099419131076
 20
1690.374824977737
 30
0.0
 11
-31.21060560699445
 21
1690.368007418043
 31
0.0
 12
-31.16034722006995
 22
1690.192581950839
 32
0.0
 13
-31.16034722006995
 23
1690.192581950839
 33
0.0
  0
LINE
  5
1727
330
1717
100
AcDbEntity
  8
Layer2
 62
     0
370
    -2
100
AcDbLine
 10
-30.68221724555144
 20
1685.2249639772
 30
0.0
 11
-30.50221724555141
 21
1685.224963977199
 31
0.0
  0
LINE
  5
1728
330
1717
100
AcDbEntity
  8
Layer2
 62
     0
370
    -2
100
AcDbLine
 10
-30.59221724555141
 20
1685.134963977199
 30
0.0
 11
-30.59221724555138
 21
1685.314963977199
 31
0.0
  0
POINT
  5
1729
330
1717
100
AcDbEntity
  8
Defpoints
 62
     0
100
AcDbPoint
 10
-31.16034722006995
 20
1690.192581950839
 30
0.0
  0
POINT
  5
172A
330
1717
100
AcDbEntity
  8
Defpoints
 62
     0
100
AcDbPoint
 10
-30.59221724555141
 20
1685.2249639772
 30
0.0
  0
ENDBLK
  5
1721
330
1717
100
AcDbEntity
  8
0
100
AcDbBlockEnd
  0
BLOCK
  5
1752
330
1747
100
AcDbEntity
  8
0
100
AcDbBlockBegin
  2
*D72
 70
     1
 10
0.0
 20
0.0
 30
0.0
  3
*D72
  1

  0
LINE
  5
1755
330
1747
100
AcDbEntity
  8
Layer2
  6
ACAD_ISO02W100
 62
     0
370
    -2
100
AcDbLine
 10
-43.59221724555197
 20
1685.224963977197
 30
0.0
 11
-54.93002885543682
 21
1685.224963977197
 31
0.0
  0
LINE
  5
1756
330
1747
100
AcDbEntity
  8
Layer2
  6
ACAD_ISO02W100
 62
     0
370
    -2
100
AcDbLine
 10
-43.59221724555197
 20
1650.224963977197
 30
0.0
 11
-54.93002885543683
 21
1650.224963977197
 31
0.0
  0
LINE
  5
1757
330
1747
100
AcDbEntity
  8
Layer2
  6
ACAD_ISO02W100
 62
     0
370
    -2
100
AcDbLine
 10
-51.93002885543682
 20
1685.044963977197
 30
0.0
 11
-51.93002885543683
 21
1671.814963977197
 31
0.0
  0
LINE
  5
1758
330
1747
100
AcDbEntity
  8
Layer2
  6
ACAD_ISO02W100
 62
     0
370
    -2
100
AcDbLine
 10
-51.93002885543683
 20
1650.404963977197
 30
0.0
 11
-51.93002885543683
 21
1663.634963977197
 31
0.0
  0
SOLID
  5
1759
330
1747
100
AcDbEntity
  8
Layer2
 62
     0
100
AcDbTrace
 10
-51.96002885543682
 20
1685.044963977197
 30
0.0
 11
-51.90002885543682
 21
1685.044963977197
 31
0.0
 12
-51.93002885543682
 22
1685.224963977197
 32
0.0
 13
-51.93002885543682
 23
1685.224963977197
 33
0.0
  0
SOLID
  5
175A
330
1747
100
AcDbEntity
  8
Layer2
 62
     0
100
AcDbTrace
 10
-51.96002885543683
 20
1650.404963977197
 30
0.0
 11
-51.90002885543683
 21
1650.404963977197
 31
0.0
 12
-51.93002885543683
 22
1650.224963977197
 32
0.0
 13
-51.93002885543683
 23
1650.224963977197
 33
0.0
  0
MTEXT
  5
175B
330
1747
100
AcDbEntity
  8
Layer2
 62
     0
100
AcDbMText
 10
-51.9300288554371
 20
1667.724963977197
 30
0.0
 40
8.0
 41
0.0
 71
     5
 72
     1
  1
\A1;35.0000
 73
     1
 44
1.0
  0
POINT
  5
175C
330
1747
100
AcDbEntity
  8
Defpoints
 62
     0
100
AcDbPoint
 10
-35.59221724555198
 20
1685.224963977197
 30
0.0
  0
POINT
  5
175D
330
1747
100
AcDbEntity
  8
Defpoints
 62
     0
100
AcDbPoint
 10
-35.59221724555198
 20
1650.224963977197
 30
0.0
  0
POINT
  5
175E
330
1747
100
AcDbEntity
  8
Defpoints
 62
     0
100
AcDbPoint
 10
-51.93002885543683
 20
1650.224963977197
 30
0.0
  0
ENDBLK
  5
1753
330
1747
100
AcDbEntity
  8
0
100
AcDbBlockEnd
  0
BLOCK
  5
1788
330
177D
100
AcDbEntity
  8
0
100
AcDbBlockBegin
  2
*D74
 70
     1
 10
0.0
 20
0.0
 30
0.0
  3
*D74
  1

  0
LINE
  5
17D2
330
177D
100
AcDbEntity
  8
Layer2
  6
ACAD_ISO02W100
 62
     0
370
    -2
100
AcDbLine
 10
-256.092217245552
 20
1779.724963977197
 30
0.0
 11
-256.092217245552
 21
1783.247631961469
 31
0.0
  0
LINE
  5
17D3
330
177D
100
AcDbEntity
  8
Layer2
  6
ACAD_ISO02W100
 62
     0
370
    -2
100
AcDbLine
 10
-225.092217245552
 20
1779.224963977197
 30
0.0
 11
-225.092217245552
 21
1783.247631961469
 31
0.0
  0
LINE
  5
17D4
330
177D
100
AcDbEntity
  8
Layer2
  6
ACAD_ISO02W100
 62
     0
370
    -2
100
AcDbLine
 10
-255.912217245552
 20
1780.247631961469
 30
0.0
 11
-225.272217245552
 21
1780.247631961469
 31
0.0
  0
LINE
  5
17D5
330
177D
100
AcDbEntity
  8
Layer2
  6
ACAD_ISO02W100
 62
     0
370
    -2
100
AcDbLine
 10
-225.092217245552
 20
1780.247631961469
 30
0.0
 11
-224.912217245552
 21
1780.247631961469
 31
0.0
  0
SOLID
  5
17D6
330
177D
100
AcDbEntity
  8
Layer2
 62
     0
100
AcDbTrace
 10
-255.912217245552
 20
1780.277631961469
 30
0.0
 11
-255.912217245552
 21
1780.217631961469
 31
0.0
 12
-256.092217245552
 22
1780.247631961469
 32
0.0
 13
-256.092217245552
 23
1780.247631961469
 33
0.0
  0
SOLID
  5
17D7
330
177D
100
AcDbEntity
  8
Layer2
 62
     0
100
AcDbTrace
 10
-225.272217245552
 20
1780.277631961469
 30
0.0
 11
-225.272217245552
 21
1780.217631961469
 31
0.0
 12
-225.092217245552
 22
1780.247631961469
 32
0.0
 13
-225.092217245552
 23
1780.247631961469
 33
0.0
  0
MTEXT
  5
17D8
330
177D
100
AcDbEntity
  8
Layer2
 62
     0
100
AcDbMText
 10
-204.822217245552
 20
1780.247631961469
 30
0.0
 40
8.0
 41
0.0
 71
     5
 72
     1
  1
\A1;31.0000
 73
     1
 44
1.0
  0
POINT
  5
17D9
330
177D
100
AcDbEntity
  8
Defpoints
 62
     0
100
AcDbPoint
 10
-256.092217245552
 20
1771.724963977197
 30
0.0
  0
POINT
  5
17DA
330
177D
100
AcDbEntity
  8
Defpoints
 62
     0
100
AcDbPoint
 10
-225.092217245552
 20
1771.224963977197
 30
0.0
  0
POINT
  5
17DB
330
177D
100
AcDbEntity
  8
Defpoints
 62
     0
100
AcDbPoint
 10
-225.092217245552
 20
1780.247631961469
 30
0.0
  0
ENDBLK
  5
1789
330
177D
100
AcDbEntity
  8
0
100
AcDbBlockEnd
  0
BLOCK
  5
17A0
330
1797
100
AcDbEntity
  8
0
100
AcDbBlockBegin
  2
*D75
 70
     1
 10
0.0
 20
0.0
 30
0.0
  3
*D75
  1

  0
LINE
  5
17AD
330
1797
100
AcDbEntity
  8
Layer2
  6
ACAD_ISO02W100
 62
     0
370
    -2
100
AcDbLine
 10
-233.6342947765678
 20
1757.886317373234
 30
0.0
 11
-233.8142947765679
 21
1757.886317373233
 31
0.0
  0
LINE
  5
17AE
330
1797
100
AcDbEntity
  8
Layer2
  6
ACAD_ISO02W100
 62
     0
370
    -2
100
AcDbLine
 10
-233.8142947765679
 20
1757.886317373233
 30
0.0
 11
-238.2456209953637
 21
1766.606968087353
 31
0.0
  0
MTEXT
  5
17AF
330
1797
100
AcDbEntity
  8
Layer2
 62
     0
100
AcDbMText
 10
-212.2109614432343
 20
1757.886317373233
 30
0.0
 40
8.0
 41
0.0
 71
     5
 72
     1
  1
\A1;R5.0000
 73
     1
 44
1.0
  0
SOLID
  5
17B0
330
1797
100
AcDbEntity
  8
Layer2
 62
     0
100
AcDbTrace
 10
-238.2188758454226
 20
1766.620558413127
 30
0.0
 11
-238.2723661453049
 21
1766.59337776158
 31
0.0
 12
-238.3271629500035
 22
1766.767438987001
 32
0.0
 13
-238.3271629500035
 23
1766.767438987001
 33
0.0
  0
LINE
  5
17B1
330
1797
100
AcDbEntity
  8
Layer2
 62
     0
370
    -2
100
AcDbLine
 10
-240.6822172455521
 20
1771.224963977197
 30
0.0
 11
-240.5022172455521
 21
1771.224963977197
 31
0.0
  0
LINE
  5
17B2
330
1797
100
AcDbEntity
  8
Layer2
 62
     0
370
    -2
100
AcDbLine
 10
-240.5922172455522
 20
1771.134963977197
 30
0.0
 11
-240.5922172455521
 21
1771.314963977197
 31
0.0
  0
POINT
  5
17B3
330
1797
100
AcDbEntity
  8
Defpoints
 62
     0
100
AcDbPoint
 10
-238.3271629500035
 20
1766.767438987001
 30
0.0
  0
POINT
  5
17B4
330
1797
100
AcDbEntity
  8
Defpoints
 62
     0
100
AcDbPoint
 10
-240.592217245552
 20
1771.224963977197
 30
0.0
  0
ENDBLK
  5
17A1
330
1797
100
AcDbEntity
  8
0
100
AcDbBlockEnd
  0
BLOCK
  5
1825
330
1819
100
AcDbEntity
  8
0
100
AcDbBlockBegin
  2
*D79
 70
     1
 10
0.0
 20
0.0
 30
0.0
  3
*D79
  1

  0
LINE
  5
1828
330
1819
100
AcDbEntity
  8
Layer2
  6
ACAD_ISO02W100
 62
     0
370
    -2
100
AcDbLine
 10
-264.092217245552
 20
1771.224963977197
 30
0.0
 11
-263.2473285263823
 21
1771.224963977197
 31
0.0
  0
LINE
  5
1829
330
1819
100
AcDbEntity
  8
Layer2
  6
ACAD_ISO02W100
 62
     0
370
    -2
100
AcDbLine
 10
-264.092217245552
 20
1769.724963977196
 30
0.0
 11
-263.2473285263823
 21
1769.724963977196
 31
0.0
  0
LINE
  5
182A
330
1819
100
AcDbEntity
  8
Layer2
  6
ACAD_ISO02W100
 62
     0
370
    -2
100
AcDbLine
 10
-260.2473285263823
 20
1771.044963977197
 30
0.0
 11
-260.2473285263823
 21
1769.904963977197
 31
0.0
  0
LINE
  5
182B
330
1819
100
AcDbEntity
  8
Layer2
  6
ACAD_ISO02W100
 62
     0
370
    -2
100
AcDbLine
 10
-260.2473285263823
 20
1769.724963977196
 30
0.0
 11
-260.2473285263823
 21
1769.544963977197
 31
0.0
  0
LINE
  5
182C
330
1819
100
AcDbEntity
  8
Layer2
  6
ACAD_ISO02W100
 62
     0
370
    -2
100
AcDbLine
 10
-260.2473285263823
 20
1769.544963977197
 30
0.0
 11
-260.4273285263823
 21
1769.544963977197
 31
0.0
  0
SOLID
  5
182D
330
1819
100
AcDbEntity
  8
Layer2
 62
     0
100
AcDbTrace
 10
-260.2773285263822
 20
1771.044963977197
 30
0.0
 11
-260.2173285263823
 21
1771.044963977197
 31
0.0
 12
-260.2473285263823
 22
1771.224963977197
 32
0.0
 13
-260.2473285263823
 23
1771.224963977197
 33
0.0
  0
SOLID
  5
182E
330
1819
100
AcDbEntity
  8
Layer2
 62
     0
100
AcDbTrace
 10
-260.2773285263822
 20
1769.904963977197
 30
0.0
 11
-260.2173285263823
 21
1769.904963977197
 31
0.0
 12
-260.2473285263823
 22
1769.724963977196
 32
0.0
 13
-260.2473285263823
 23
1769.724963977196
 33
0.0
  0
MTEXT
  5
182F
330
1819
100
AcDbEntity
  8
Layer2
 62
     0
100
AcDbMText
 10
-277.1839951930492
 20
1769.544963977197
 30
0.0
 40
8.0
 41
0.0
 71
     5
 72
     1
  1
\A1;1.5000
 73
     1
 44
1.0
  0
POINT
  5
1830
330
1819
100
AcDbEntity
  8
Defpoints
 62
     0
100
AcDbPoint
 10
-256.092217245552
 20
1771.224963977197
 30
0.0
  0
POINT
  5
1831
330
1819
100
AcDbEntity
  8
Defpoints
 62
     0
100
AcDbPoint
 10
-256.092217245552
 20
1769.724963977196
 30
0.0
  0
POINT
  5
1832
330
1819
100
AcDbEntity
  8
Defpoints
 62
     0
100
AcDbPoint
 10
-260.2473285263823
 20
1769.724963977196
 30
0.0
  0
ENDBLK
  5
1826
330
1819
100
AcDbEntity
  8
0
100
AcDbBlockEnd
  0
ENDSEC
  0
SECTION
  2
ENTITIES
  0
ARC
  5
6A8
330
1F
100
AcDbEntity
  8
SolidLayer
370
     0
100
AcDbCircle
 10
-180.0922172455519
 20
1670.724963977197
 30
0.0
 40
0.5
100
AcDbArc
 50
180.0
 51
270.0
  0
ARC
  5
6AE
330
1F
100
AcDbEntity
  8
SolidLayer
370
     0
100
AcDbCircle
 10
-98.44469724555199
 20
1700.224963977197
 30
0.0
 40
10.0
100
AcDbArc
 50
9.999999999998609
 51
90.0
  0
ARC
  5
6AF
330
1F
100
AcDbEntity
  8
SolidLayer
370
     0
100
AcDbCircle
 10
-180.0922172455519
 20
1670.724963977197
 30
0.0
 40
0.5
100
AcDbArc
 50
270.0
 51
311.0000000000005
  0
ARC
  5
6B0
330
1F
100
AcDbEntity
  8
SolidLayer
370
     0
100
AcDbCircle
 10
57.26028275444798
 20
1700.224963977197
 30
0.0
 40
10.0
100
AcDbArc
 50
90.0
 51
170.0000000000014
  0
ARC
  5
6B1
102
{ACAD_REACTORS
330
17AB
102
}
330
1F
100
AcDbEntity
  8
0
370
     0
100
AcDbCircle
 10
-240.592217245552
 20
1771.224963977197
 30
0.0
 40
5.0
100
AcDbArc
 50
180.0
 51
0.0
  0
ARC
  5
6B2
330
1F
100
AcDbEntity
  8
SolidLayer
370
     0
100
AcDbCircle
 10
-294.592217245552
 20
1770.224963977197
 30
0.0
 40
1.0
100
AcDbArc
 50
0.0
 51
90.0
  0
ARC
  5
6B3
330
1F
100
AcDbEntity
  8
SolidLayer
370
     0
100
AcDbCircle
 10
-186.5922172455519
 20
1770.224963977197
 30
0.0
 40
1.0
100
AcDbArc
 50
90.0
 51
180.0
  0
ARC
  5
6B4
330
1F
100
AcDbEntity
  8
SolidLayer
370
     0
100
AcDbCircle
 10
-290.0922172455519
 20
1780.224963977197
 30
0.0
 40
10.0
100
AcDbArc
 50
90.0
 51
180.0
  0
ARC
  5
6B5
330
1F
100
AcDbEntity
  8
SolidLayer
370
     0
100
AcDbCircle
 10
-191.092217245552
 20
1780.224963977197
 30
0.0
 40
10.0
100
AcDbArc
 50
0.0
 51
90.0
  0
ARC
  5
6B6
102
{ACAD_REACTORS
330
172B
102
}
330
1F
100
AcDbEntity
  8
SolidLayer
370
     0
100
AcDbCircle
 10
-30.59221724555198
 20
1685.224963977197
 30
0.0
 40
5.0
100
AcDbArc
 50
90.0
 51
180.0
  0
ARC
  5
6B7
330
1F
100
AcDbEntity
  8
SolidLayer
370
     0
100
AcDbCircle
 10
-10.59221724555198
 20
1685.224963977197
 30
0.0
 40
5.0
100
AcDbArc
 50
0.0
 51
90.0
  0
ARC
  5
6B8
330
1F
100
AcDbEntity
  8
SolidLayer
370
     0
100
AcDbCircle
 10
-40.59221724555198
 20
1611.224963977197
 30
0.0
 40
10.0
100
AcDbArc
 50
90.0
 51
180.0
  0
ARC
  5
6B9
330
1F
100
AcDbEntity
  8
SolidLayer
370
     0
100
AcDbCircle
 10
-0.5922172455519786
 20
1611.224963977197
 30
0.0
 40
10.0
100
AcDbArc
 50
0.0
 51
90.0
  0
ARC
  5
6BA
330
1F
100
AcDbEntity
  8
SolidLayer
370
     0
100
AcDbCircle
 10
-40.59221724555198
 20
1531.224963977197
 30
0.0
 40
10.0
100
AcDbArc
 50
180.0
 51
270.0
  0
ARC
  5
6BB
330
1F
100
AcDbEntity
  8
SolidLayer
370
     0
100
AcDbCircle
 10
-0.5922172455519786
 20
1531.224963977197
 30
0.0
 40
10.0
100
AcDbArc
 50
270.0
 51
0.0
  0
LINE
  5
6BC
330
1F
100
AcDbEntity
  8
SolidLayer
370
     0
100
AcDbLine
 10
-320.592217245552
 20
1664.865963977197
 30
0.0
 11
-300.592217245552
 21
1670.224963977197
 31
0.0
  0
LINE
  5
6BD
330
1F
100
AcDbEntity
  8
SolidLayer
370
     0
100
AcDbLine
 10
-320.592217245552
 20
1664.865963977197
 30
0.0
 11
-320.592217245552
 21
1477.083963977197
 31
0.0
  0
LINE
  5
6BE
330
1F
100
AcDbEntity
  8
SolidLayer
370
     0
100
AcDbLine
 10
-320.592217245552
 20
1477.083963977197
 30
0.0
 11
-300.592217245552
 21
1471.724963977197
 31
0.0
  0
LINE
  5
6BF
330
1F
100
AcDbEntity
  8
SolidLayer
370
     0
100
AcDbLine
 10
-300.592217245552
 20
1771.224963977197
 30
0.0
 11
-294.592217245552
 21
1771.224963977197
 31
0.0
  0
LINE
  5
6C0
330
1F
100
AcDbEntity
  8
SolidLayer
370
     0
100
AcDbLine
 10
-186.5922172455519
 20
1771.224963977197
 30
0.0
 11
-180.592217245552
 21
1771.224963977197
 31
0.0
  0
LINE
  5
6C1
330
1F
100
AcDbEntity
  8
SolidLayer
370
     0
100
AcDbLine
 10
-300.592217245552
 20
1771.224963977197
 30
0.0
 11
-300.592217245552
 21
1670.224963977197
 31
0.0
  0
LINE
  5
6C3
330
1F
100
AcDbEntity
  8
SolidLayer
370
     0
100
AcDbLine
 10
-300.092217245552
 20
1780.224963977197
 30
0.0
 11
-300.092217245552
 21
1771.224963977197
 31
0.0
  0
LINE
  5
6C4
330
1F
100
AcDbEntity
  8
SolidLayer
370
     0
100
AcDbLine
 10
-293.592217245552
 20
1770.224963977197
 30
0.0
 11
-293.592217245552
 21
1769.224963977197
 31
0.0
  0
LINE
  5
6C5
330
1F
100
AcDbEntity
  8
SolidLayer
370
     0
100
AcDbLine
 10
-290.0922172455519
 20
1790.224963977197
 30
0.0
 11
-191.092217245552
 21
1790.224963977197
 31
0.0
  0
LINE
  5
6C6
102
{ACAD_REACTORS
330
1833
102
}
330
1F
100
AcDbEntity
  8
0
370
     0
100
AcDbLine
 10
-256.092217245552
 20
1771.224963977197
 30
0.0
 11
-256.092217245552
 21
1769.724963977196
 31
0.0
  0
LINE
  5
6C8
102
{ACAD_REACTORS
330
1833
102
}
330
1F
100
AcDbEntity
  8
SolidLayer
370
     0
100
AcDbLine
 10
-256.092217245552
 20
1771.224963977197
 30
0.0
 11
-245.592217245552
 21
1771.224963977197
 31
0.0
  0
LINE
  5
6C9
330
1F
100
AcDbEntity
  8
SolidLayer
370
     0
100
AcDbLine
 10
-235.592217245552
 20
1771.224963977197
 30
0.0
 11
-225.092217245552
 21
1771.224963977197
 31
0.0
  0
LINE
  5
6CA
102
{ACAD_REACTORS
330
1795
102
}
330
1F
100
AcDbEntity
  8
0
370
     0
100
AcDbLine
 10
-225.092217245552
 20
1771.224963977197
 30
0.0
 11
-225.092217245552
 21
1769.724963977197
 31
0.0
  0
LINE
  5
6CB
330
1F
100
AcDbEntity
  8
SolidLayer
370
     0
100
AcDbLine
 10
-187.5922172455519
 20
1770.224963977197
 30
0.0
 11
-187.5922172455519
 21
1769.224963977197
 31
0.0
  0
LINE
  5
6CD
330
1F
100
AcDbEntity
  8
SolidLayer
370
     0
100
AcDbLine
 10
-181.0922172455519
 20
1780.224963977197
 30
0.0
 11
-181.0922172455519
 21
1771.224963977197
 31
0.0
  0
LINE
  5
6CE
330
1F
100
AcDbEntity
  8
SolidLayer
370
     0
100
AcDbLine
 10
-180.592217245552
 20
1771.224963977197
 30
0.0
 11
-180.592217245552
 21
1670.724963977197
 31
0.0
  0
LINE
  5
6CF
102
{ACAD_REACTORS
330
10C9
330
10E3
102
}
330
1F
100
AcDbEntity
  8
SolidLayer
370
     0
100
AcDbLine
 10
-180.0922172455519
 20
1471.224963977197
 30
0.0
 11
-180.0922172455519
 21
1429.799743234079
 31
0.0
  0
LINE
  5
6D1
330
1F
100
AcDbEntity
  8
SolidLayer
370
     0
100
AcDbLine
 10
-179.764217245552
 20
1670.347963977197
 30
0.0
 11
-176.592217245552
 21
1673.724963977197
 31
0.0
  0
LINE
  5
6D2
330
1F
100
AcDbEntity
  8
SolidLayer
370
     0
100
AcDbLine
 10
-176.592217245552
 20
1710.224963977197
 30
0.0
 11
-98.44421724555196
 21
1710.224963977197
 31
0.0
  0
LINE
  5
6D3
330
1F
100
AcDbEntity
  8
SolidLayer
370
     0
100
AcDbLine
 10
57.25978275444799
 20
1710.224963977197
 30
0.0
 11
134.407782754448
 21
1710.224963977197
 31
0.0
  0
LINE
  5
6D4
330
1F
100
AcDbEntity
  8
SolidLayer
370
     0
100
AcDbLine
 10
-176.592217245552
 20
1710.224963977197
 30
0.0
 11
-176.592217245552
 21
1673.724963977197
 31
0.0
  0
LINE
  5
6D5
330
1F
100
AcDbEntity
  8
SolidLayer
370
     0
100
AcDbLine
 10
-88.596217245552
 20
1701.960963977197
 30
0.0
 11
-84.59221724555197
 21
1679.224963977197
 31
0.0
  0
LINE
  5
6D6
330
1F
100
AcDbEntity
  8
SolidLayer
370
     0
100
AcDbLine
 10
-84.59221724555197
 20
1679.224963977197
 30
0.0
 11
-81.59221724555198
 21
1676.224963977197
 31
0.0
  0
LINE
  5
6D7
330
1F
100
AcDbEntity
  8
SolidLayer
370
     0
100
AcDbLine
 10
-81.59221724555198
 20
1676.224963977197
 30
0.0
 11
-81.59221724555198
 21
1670.224963977197
 31
0.0
  0
LINE
  5
6D8
330
1F
100
AcDbEntity
  8
SolidLayer
370
     0
100
AcDbLine
 10
-81.59221724555198
 20
1670.224963977197
 30
0.0
 11
-35.59221724555198
 21
1670.224963977197
 31
0.0
  0
LINE
  5
6D9
330
1F
100
AcDbEntity
  8
SolidLayer
370
     0
100
AcDbLine
 10
-5.592217245551978
 20
1670.224963977197
 30
0.0
 11
40.40778275444802
 21
1670.224963977197
 31
0.0
  0
LINE
  5
6DB
330
1F
100
AcDbEntity
  8
SolidLayer
370
     0
100
AcDbLine
 10
-50.59221724555198
 20
1611.224963977197
 30
0.0
 11
-50.59221724555198
 21
1531.224963977197
 31
0.0
  0
LINE
  5
6DC
330
1F
100
AcDbEntity
  8
SolidLayer
370
     0
100
AcDbLine
 10
-40.59221724555198
 20
1621.224963977197
 30
0.0
 11
-0.5922172455519786
 21
1621.224963977197
 31
0.0
  0
LINE
  5
6DD
330
1F
100
AcDbEntity
  8
SolidLayer
370
     0
100
AcDbLine
 10
-40.59221724555198
 20
1521.224963977197
 30
0.0
 11
-0.5922172455519786
 21
1521.224963977197
 31
0.0
  0
LINE
  5
6DE
102
{ACAD_REACTORS
330
175F
102
}
330
1F
100
AcDbEntity
  8
SolidLayer
370
     0
100
AcDbLine
 10
-35.59221724555198
 20
1685.224963977197
 30
0.0
 11
-35.59221724555198
 21
1650.224963977197
 31
0.0
  0
LINE
  5
6DF
102
{ACAD_REACTORS
330
1715
102
}
330
1F
100
AcDbEntity
  8
SolidLayer
370
     0
100
AcDbLine
 10
-30.59221724555198
 20
1690.224963977197
 30
0.0
 11
-10.59221724555198
 21
1690.224963977197
 31
0.0
  0
LINE
  5
6E0
330
1F
100
AcDbEntity
  8
SolidLayer
370
     0
100
AcDbLine
 10
-5.592217245551978
 20
1685.224963977197
 30
0.0
 11
-5.592217245551978
 21
1650.224963977197
 31
0.0
  0
LINE
  5
6E1
330
1F
100
AcDbEntity
  8
SolidLayer
370
     0
100
AcDbLine
 10
9.407782754448021
 20
1611.224963977197
 30
0.0
 11
9.407782754448021
 21
1531.224963977197
 31
0.0
  0
LINE
  5
6E3
330
1F
100
AcDbEntity
  8
SolidLayer
370
     0
100
AcDbLine
 10
40.40778275444802
 20
1676.224963977197
 30
0.0
 11
43.40778275444802
 21
1679.224963977197
 31
0.0
  0
LINE
  5
6E4
330
1F
100
AcDbEntity
  8
SolidLayer
370
     0
100
AcDbLine
 10
40.40778275444802
 20
1676.224963977197
 30
0.0
 11
40.40778275444802
 21
1670.224963977197
 31
0.0
  0
LINE
  5
6E5
330
1F
100
AcDbEntity
  8
SolidLayer
370
     0
100
AcDbLine
 10
43.40778275444802
 20
1679.224963977197
 30
0.0
 11
47.41178275444804
 21
1701.960963977197
 31
0.0
  0
LINE
  5
6E6
330
1F
100
AcDbEntity
  8
SolidLayer
370
     0
100
AcDbLine
 10
134.407782754448
 20
1710.224963977197
 30
0.0
 11
134.407782754448
 21
1674.224963977197
 31
0.0
  0
LINE
  5
6E7
330
1F
100
AcDbEntity
  8
SolidLayer
370
     0
100
AcDbLine
 10
134.407782754448
 20
1674.224963977197
 30
0.0
 11
138.407782754448
 21
1670.224963977197
 31
0.0
  0
LINE
  5
6E8
102
{ACAD_REACTORS
330
705
102
}
330
1F
100
AcDbEntity
  8
DashLayer
370
     0
100
AcDbLine
 10
-300.592217245552
 20
1671.224963977197
 30
0.0
 11
-180.592217245552
 21
1671.224963977197
 31
0.0
  0
LINE
  5
6E9
102
{ACAD_REACTORS
330
6F9
102
}
330
1F
100
AcDbEntity
  8
DashLayer
370
     0
100
AcDbLine
 10
-300.592217245552
 20
1670.224963977197
 30
0.0
 11
-300.592217245552
 21
1471.724963977197
 31
0.0
  0
LINE
  5
6EA
102
{ACAD_REACTORS
330
7D2
330
E15
330
10C9
330
1117
330
11FD
102
}
330
1F
100
AcDbEntity
  8
DashLayer
370
     0
100
AcDbLine
 10
-299.957217245552
 20
1471.224963977197
 30
0.0
 11
-180.0922172455519
 21
1471.224963977197
 31
0.0
  0
LINE
  5
6EB
102
{ACAD_REACTORS
330
164A
102
}
330
1F
100
AcDbEntity
  8
DashLayer
370
     0
100
AcDbLine
 10
-180.0922172455519
 20
1471.224963977197
 30
0.0
 11
-80.59221724555198
 21
1471.224963977197
 31
0.0
  0
LINE
  5
6EC
102
{ACAD_REACTORS
330
10FD
102
}
330
1F
100
AcDbEntity
  8
DashLayer
370
     0
100
AcDbLine
 10
-80.59221724555198
 20
1471.224963977197
 30
0.0
 11
38.90778275444802
 21
1471.224963977197
 31
0.0
  0
LINE
  5
6ED
102
{ACAD_REACTORS
330
16C7
102
}
330
1F
100
AcDbEntity
  8
DashLayer
370
     0
100
AcDbLine
 10
40.39380656591535
 20
1471.224963977197
 30
0.0
 11
138.9077827544481
 21
1471.224963977197
 31
0.0
  0
LINE
  5
6EE
330
1F
100
AcDbEntity
  8
DashLayer
370
     0
100
AcDbLine
 10
-293.592217245552
 20
1770.224963977197
 30
0.0
 11
-256.092217245552
 21
1770.224963977197
 31
0.0
  0
LINE
  5
6EF
102
{ACAD_REACTORS
330
705
102
}
330
1F
100
AcDbEntity
  8
DashLayer
370
     0
100
AcDbLine
 10
-225.092217245552
 20
1770.224963977197
 30
0.0
 11
-187.5922172455519
 21
1770.224963977197
 31
0.0
  0
LINE
  5
6F0
102
{ACAD_REACTORS
330
6F9
330
11E3
102
}
330
1F
100
AcDbEntity
  8
DashLayer
370
     0
100
AcDbLine
 10
-180.592217245552
 20
1670.724963977197
 30
0.0
 11
-180.592217245552
 21
1471.224963977197
 31
0.0
  0
LINE
  5
6F1
330
1F
100
AcDbEntity
  8
DashLayer
370
     0
100
AcDbLine
 10
-180.0922172455519
 20
1670.224963977197
 30
0.0
 11
-81.59221724555198
 21
1670.224963977197
 31
0.0
  0
LINE
  5
6F2
102
{ACAD_REACTORS
330
16FB
330
1715
102
}
330
1F
100
AcDbEntity
  8
DashLayer
370
     0
100
AcDbLine
 10
-35.59221724555198
 20
1670.224963977197
 30
0.0
 11
-5.592217245551978
 21
1670.224963977197
 31
0.0
  0
LINE
  5
6F3
330
1F
100
AcDbEntity
  8
DashLayer
370
     0
100
AcDbLine
 10
40.40778275444802
 20
1670.224963977197
 30
0.0
 11
138.407782754448
 21
1670.224963977197
 31
0.0
  0
LINE
  5
6F4
330
1F
100
AcDbEntity
  8
DashLayer
370
     0
100
AcDbLine
 10
-80.59221724555198
 20
1670.224963977197
 30
0.0
 11
-80.59221724555198
 21
1471.224963977197
 31
0.0
  0
LINE
  5
6F5
102
{ACAD_REACTORS
330
16E1
330
16FB
330
175F
102
}
330
1F
100
AcDbEntity
  8
DashLayer
370
     0
100
AcDbLine
 10
-35.59221724555198
 20
1650.224963977197
 30
0.0
 11
-5.592217245551978
 21
1650.224963977197
 31
0.0
  0
LINE
  5
6F6
102
{ACAD_REACTORS
330
702
102
}
330
1F
100
AcDbEntity
  8
DashLayer
370
     0
100
AcDbLine
 10
39.40778275444802
 20
1670.224963977197
 30
0.0
 11
39.40778275444802
 21
1471.724963977197
 31
0.0
  0
DIMENSION
  5
6F7
102
{ACAD_XDICTIONARY
360
6F8
102
}
102
{ACAD_REACTORS
330
6F9
102
}
330
1F
100
AcDbEntity
  8
Layer3
370
     0
100
AcDbDimension
  2
*D21
 10
-180.592217245552
 20
1609.928057672015
 30
0.0
 11
-240.592217245552
 21
1609.928057672015
 31
0.0
 70
    32
 71
     5
 42
120.0
  3
Brian
100
AcDbAlignedDimension
 13
-300.592217245552
 23
1590.398838142348
 33
0.0
 14
-180.592217245552
 24
1590.398838142348
 34
0.0
100
AcDbRotatedDimension
  0
DIMENSION
  5
6FA
330
1F
100
AcDbEntity
  8
Layer3
370
     0
100
AcDbDimension
  2
*D22
 10
-80.59221724555198
 20
1583.606066132029
 30
0.0
 11
-130.592217245552
 21
1583.606066132029
 31
0.0
 70
    32
 71
     5
 42
100.0
  3
Brian
100
AcDbAlignedDimension
 13
-180.592217245552
 23
1571.224963977197
 33
0.0
 14
-80.59221724555198
 24
1571.224963977197
 34
0.0
100
AcDbRotatedDimension
  0
DIMENSION
  5
6FD
330
1F
100
AcDbEntity
  8
Layer3
370
     0
100
AcDbDimension
  2
*D23
 10
39.40778275444802
 20
1508.036477517229
 30
0.0
 11
-20.59221724555198
 21
1508.036477517229
 31
0.0
 70
    32
 71
     5
 42
120.0
  3
Brian
100
AcDbAlignedDimension
 13
-80.59221724555198
 23
1508.036477517229
 33
0.0
 14
39.40778275444802
 24
1508.036477517229
 34
0.0
100
AcDbRotatedDimension
  0
DIMENSION
  5
700
102
{ACAD_XDICTIONARY
360
701
102
}
102
{ACAD_REACTORS
330
702
102
}
330
1F
100
AcDbEntity
  8
Layer3
370
     0
100
AcDbDimension
  2
*D24
 10
138.407782754448
 20
1567.473232607521
 30
0.0
 11
88.90778275444802
 21
1567.473232607521
 31
0.0
 70
    32
 71
     5
 42
99.0
  3
Brian
100
AcDbAlignedDimension
 13
39.40778275444802
 23
1550.491302581724
 33
0.0
 14
138.407782754448
 24
1550.491302581724
 34
0.0
100
AcDbRotatedDimension
  0
DIMENSION
  5
703
102
{ACAD_XDICTIONARY
360
704
102
}
102
{ACAD_REACTORS
330
705
102
}
330
1F
100
AcDbEntity
  8
Layer3
370
     0
100
AcDbDimension
  2
*D25
 10
-240.592217245552
 20
1671.224963977197
 30
0.0
 11
-240.5922172455522
 21
1720.724963977197
 31
0.0
 70
    32
 71
     5
 42
99.0
  3
Brian
100
AcDbAlignedDimension
 13
-206.342217245552
 23
1770.224963977197
 33
0.0
 14
-206.342217245552
 24
1671.224963977197
 34
0.0
 50
90.0
100
AcDbRotatedDimension
  0
LINE
  5
707
330
1F
100
AcDbEntity
  8
0
370
     0
100
AcDbLine
 10
-270.592217245552
 20
1421.224963977197
 30
0.0
 11
-270.592217245552
 21
1401.221656979108
 31
0.0
  0
LINE
  5
708
102
{ACAD_REACTORS
330
1117
102
}
330
1F
100
AcDbEntity
  8
0
370
     0
100
AcDbLine
 10
-265.592217245552
 20
1396.221656979108
 30
0.0
 11
-215.592217245552
 21
1396.221656979108
 31
0.0
  0
ARC
  5
709
102
{ACAD_REACTORS
330
CB0
102
}
330
1F
100
AcDbEntity
  8
0
370
     0
100
AcDbCircle
 10
-265.592217245552
 20
1401.221656979108
 30
0.0
 40
5.0
100
AcDbArc
 50
180.0
 51
270.0
  0
LINE
  5
70B
330
1F
100
AcDbEntity
  8
0
370
     0
100
AcDbLine
 10
-210.592217245552
 20
1421.224963977197
 30
0.0
 11
-210.592217245552
 21
1401.221656979108
 31
0.0
  0
ARC
  5
70C
102
{ACAD_REACTORS
330
CB0
102
}
330
1F
100
AcDbEntity
  8
0
370
     0
100
AcDbCircle
 10
-215.592217245552
 20
1401.221656979108
 30
0.0
 40
5.0
100
AcDbArc
 50
270.0
 51
0.0
  0
LINE
  5
711
330
1F
100
AcDbEntity
  8
Layer2
370
     0
100
AcDbLine
 10
-131.592217245552
 20
1471.224963977197
 30
0.0
 11
-131.5922172455518
 21
1434.858963977197
 31
0.0
  0
LINE
  5
71F
330
1F
100
AcDbEntity
  8
Layer2
370
     0
100
AcDbLine
 10
-79.95771724555197
 20
1471.224963977197
 30
0.0
 11
-50.59271724555197
 21
1421.224963977197
 31
0.0
  0
LINE
  5
72C
102
{ACAD_REACTORS
330
10FD
102
}
330
1F
100
AcDbEntity
  8
Layer4
370
     0
100
AcDbLine
 10
-51.59271724555196
 20
1421.224963977197
 30
0.0
 11
10.40728275444803
 21
1421.224963977197
 31
0.0
  0
DIMENSION
  5
7B9
102
{ACAD_XDICTIONARY
360
7C7
102
}
102
{ACAD_REACTORS
330
7D2
102
}
330
1F
100
AcDbEntity
  8
Layer4
370
     0
100
AcDbDimension
  2
*D27
 10
-384.8127131583024
 20
1471.224963977197
 30
0.0
 11
-384.8127131583026
 21
1571.224963977197
 31
0.0
 70
    32
 71
     5
 42
199.9999999999998
  3
Brian
100
AcDbAlignedDimension
 13
-214.342217245552
 23
1671.224963977197
 33
0.0
 14
-214.342217245552
 24
1471.224963977197
 34
0.0
 50
90.0
100
AcDbRotatedDimension
  0
ARC
  5
808
102
{ACAD_REACTORS
330
11E3
102
}
330
1F
100
AcDbEntity
  8
Layer4
370
     0
100
AcDbCircle
 10
-180.592217245552
 20
1471.224963977197
 30
0.0
 40
0.5
100
AcDbArc
 50
0.0
 51
149.5275567451055
  0
LINE
  5
863
102
{ACAD_REACTORS
330
E15
330
11FD
102
}
330
1F
100
AcDbEntity
  8
Layer4
370
     0
100
AcDbLine
 10
-210.592217245552
 20
1421.224963977197
 30
0.0
 11
-181.0231538277338
 21
1471.478525926506
 31
0.0
  0
LINE
  5
864
330
1F
100
AcDbEntity
  8
Layer4
370
     0
100
AcDbLine
 10
-181.0231538277338
 20
1471.478525926506
 30
0.0
 11
-180.5922171949973
 21
1471.224963926642
 31
0.0
  0
LINE
  5
C71
330
1F
100
AcDbEntity
  8
Layer1
370
     0
100
AcDbLine
 10
-300.592217245552
 20
1471.724963977197
 30
0.0
 11
-300.592217245552
 21
1471.224963977197
 31
0.0
  0
ARC
  5
C77
330
1F
100
AcDbEntity
  8
Layer1
370
     0
100
AcDbCircle
 10
-300.5922172455524
 20
1471.224963977197
 30
0.0
 40
0.5
100
AcDbArc
 50
30.4724432548994
 51
90.0
  0
LINE
  5
C78
330
1F
100
AcDbEntity
  8
Layer1
370
     0
100
AcDbLine
 10
-270.592217245552
 20
1421.224963977197
 30
0.0
 11
-300.1612806633705
 21
1471.478525926506
 31
0.0
  0
DIMENSION
  5
C97
102
{ACAD_XDICTIONARY
360
CA5
102
}
102
{ACAD_REACTORS
330
CB0
102
}
330
1F
100
AcDbEntity
  8
0
370
     0
100
AcDbDimension
  2
*D33
 10
-215.592217245552
 20
1382.085443195649
 30
0.0
 11
-240.592217245552
 21
1382.085443195649
 31
0.0
 70
    32
 71
     5
 42
50.0
  3
Brian
100
AcDbAlignedDimension
 13
-265.592217245552
 23
1396.221656979108
 33
0.0
 14
-215.592217245552
 24
1396.221656979108
 34
0.0
100
AcDbRotatedDimension
  0
ARC
  5
CB1
330
1F
100
AcDbEntity
  8
Layer1
370
     0
100
AcDbCircle
 10
-80.59221724555198
 20
1471.224963977197
 30
0.0
 40
0.5
100
AcDbArc
 50
359.999999999974
 51
120.4687905126264
  0
LINE
  5
CD7
330
1F
100
AcDbEntity
  8
Layer1
370
     0
100
AcDbLine
 10
-130.592217245552
 20
1474.790431227168
 30
0.0
 11
-130.592217245552
 21
1422.894865247092
 31
0.0
  0
LINE
  5
CD8
102
{ACAD_REACTORS
330
103C
102
}
330
1F
100
AcDbEntity
  8
Layer1
370
     0
100
AcDbLine
 10
-131.592217245552
 20
1474.790431227168
 30
0.0
 11
-131.5922172455519
 21
1434.799743234079
 31
0.0
  0
DIMENSION
  5
DFA
102
{ACAD_XDICTIONARY
360
E09
102
}
102
{ACAD_REACTORS
330
E15
102
}
330
1F
100
AcDbEntity
  8
Layer1
370
     0
100
AcDbDimension
  2
*D37
 10
-181.0231538277338
 20
1471.478525926506
 30
0.0
 11
-223.6389373887989
 21
1471.404962066059
 31
0.0
 70
    34
 71
     5
 42
1.038951860869834
  3
Brian
100
AcDb2LineAngularDimension
 13
-299.957217245552
 23
1471.224963977197
 33
0.0
 14
-180.0922172455519
 24
1471.224963977197
 34
0.0
 15
-210.592217245552
 25
1421.224963977197
 35
0.0
 16
-196.2025576314951
 26
1458.753273226385
 36
0.0
  0
LINE
  5
E17
330
1F
100
AcDbEntity
  8
Layer1
370
     0
100
AcDbLine
 10
-150.9019069187775
 20
1429.858963977197
 30
0.0
 11
-166.7816961240055
 21
1420.516249433634
 31
0.0
  0
LINE
  5
E18
102
{ACAD_REACTORS
330
103C
330
164A
102
}
330
1F
100
AcDbEntity
  8
Layer1
370
     0
100
AcDbLine
 10
-80.84575172111337
 20
1471.655916723681
 30
0.0
 11
-131.5922172455519
 21
1441.799743234079
 31
0.0
  0
ARC
  5
E19
330
1F
100
AcDbEntity
  8
Layer1
370
     0
100
AcDbCircle
 10
-80.59221724555198
 20
1471.224963977197
 30
0.0
 40
0.5
100
AcDbArc
 50
149.5300000000142
 51
270.0
  0
LINE
  5
F82
102
{ACAD_REACTORS
330
103C
102
}
330
1F
100
AcDbEntity
  8
Layer2
370
     0
100
AcDbLine
 10
-81.02100682425954
 20
1471.953811784575
 30
0.0
 11
-80.59221724555209
 21
1471.224963977197
 31
0.0
  0
LINE
  5
F83
330
1F
100
AcDbEntity
  8
Layer2
370
     0
100
AcDbLine
 10
-80.59221724555209
 20
1471.224963977197
 30
0.0
 11
-80.59221724555209
 21
1473.891929172052
 31
0.0
  0
DIMENSION
  5
1023
102
{ACAD_XDICTIONARY
360
1031
102
}
102
{ACAD_REACTORS
330
103C
102
}
330
1F
100
AcDbEntity
  8
Layer1
370
     0
100
AcDbDimension
  2
*D46
 10
-82.19300542643555
 20
1473.945951178497
 30
0.0
 11
-107.5665533023509
 21
1459.01840005755
 31
0.0
 70
    33
 71
     5
 42
58.87779596010284
  3
Brian
100
AcDbAlignedDimension
 13
-131.592217245552
 23
1441.799743234079
 33
0.0
 14
-80.845121493721
 24
1471.654845475974
 34
0.0
  0
LINE
  5
1057
330
1F
100
AcDbEntity
  8
Layer1
370
     0
100
AcDbLine
 10
-131.592217245552
 20
1441.799743234079
 30
0.0
 11
-165.0421482189795
 21
1441.799743234079
 31
0.0
  0
LINE
  5
1058
102
{ACAD_REACTORS
330
10E3
102
}
330
1F
100
AcDbEntity
  8
Layer1
370
     0
100
AcDbLine
 10
-136.5922172455519
 20
1429.799743234079
 30
0.0
 11
-180.0922172455519
 21
1429.799743234079
 31
0.0
  0
ARC
  5
1093
330
1F
100
AcDbEntity
  8
Layer1
370
     0
100
AcDbCircle
 10
-136.5922172455519
 20
1434.799743234079
 30
0.0
 40
5.0
100
AcDbArc
 50
270.0
 51
0.0000000000000382
  0
DIMENSION
  5
10B0
102
{ACAD_XDICTIONARY
360
10BE
102
}
102
{ACAD_REACTORS
330
10C9
102
}
330
1F
100
AcDbEntity
  8
Layer1
370
     0
100
AcDbDimension
  2
*D49
 10
-164.0483171203286
 20
1429.799743234079
 30
0.0
 11
-164.0483171203289
 21
1450.512353605638
 31
0.0
 70
    32
 71
     5
 42
41.42522074311819
  3
Brian
100
AcDbAlignedDimension
 13
-180.0922172455519
 23
1471.224963977197
 33
0.0
 14
-180.0922172455519
 24
1429.799743234079
 34
0.0
 50
90.0
100
AcDbRotatedDimension
  0
DIMENSION
  5
10CA
102
{ACAD_XDICTIONARY
360
10D8
102
}
102
{ACAD_REACTORS
330
10E3
102
}
330
1F
100
AcDbEntity
  8
Layer1
370
     0
100
AcDbDimension
  2
*D50
 10
-136.5922172455519
 20
1402.422677697283
 30
0.0
 11
-114.3222172455519
 21
1402.422677697283
 31
0.0
 70
    32
 71
     5
 42
43.5
  3
Brian
100
AcDbAlignedDimension
 13
-180.0922172455519
 23
1429.799743234079
 33
0.0
 14
-136.5922172455519
 24
1429.799743234079
 34
0.0
100
AcDbRotatedDimension
  0
DIMENSION
  5
10E4
102
{ACAD_XDICTIONARY
360
10F2
102
}
102
{ACAD_REACTORS
330
10FD
102
}
330
1F
100
AcDbEntity
  8
Layer1
370
     0
100
AcDbDimension
  2
*D51
 10
-4.103818534745183
 20
1471.224963977197
 30
0.0
 11
-4.103818534745421
 21
1446.224963977197
 31
0.0
 70
    32
 71
     5
 42
50.00000000000023
  3
Brian
100
AcDbAlignedDimension
 13
-20.59271724555197
 23
1421.224963977197
 33
0.0
 14
-20.59271724555197
 24
1471.224963977197
 34
0.0
 50
90.0
100
AcDbRotatedDimension
  0
DIMENSION
  5
10FE
102
{ACAD_XDICTIONARY
360
110C
102
}
102
{ACAD_REACTORS
330
1117
102
}
330
1F
100
AcDbEntity
  8
Layer2
370
     0
100
AcDbDimension
  2
*D52
 10
-304.7687796942155
 20
1396.221656979108
 30
0.0
 11
-304.7687796942156
 21
1433.723310478153
 31
0.0
 70
    32
 71
     5
 42
75.00330699808933
  3
Brian
100
AcDbAlignedDimension
 13
-250.7474631620662
 23
1471.224963977197
 33
0.0
 14
-250.7474631620662
 24
1396.221656979108
 34
0.0
 50
90.0
100
AcDbRotatedDimension
  0
LINE
  5
1118
102
{ACAD_REACTORS
330
1190
102
}
330
1F
100
AcDbEntity
  8
0
370
     0
100
AcDbLine
 10
-80.09221724555198
 20
1471.224963977197
 30
0.0
 11
-80.09221724555198
 21
1396.224963977197
 31
0.0
  0
LINE
  5
1119
102
{ACAD_REACTORS
330
1176
102
}
330
1F
100
AcDbEntity
  8
0
370
     0
100
AcDbLine
 10
38.90778275444802
 20
1471.224963977197
 30
0.0
 11
38.90778275444803
 21
1396.224963977197
 31
0.0
  0
LINE
  5
1134
102
{ACAD_REACTORS
330
10FD
102
}
330
1F
100
AcDbEntity
  8
0
370
     0
100
AcDbLine
 10
-80.09221724555198
 20
1396.224963977197
 30
0.0
 11
-51.59271724555197
 21
1396.224963977197
 31
0.0
  0
LINE
  5
1135
330
1F
100
AcDbEntity
  8
0
370
     0
100
AcDbLine
 10
10.40728275444803
 20
1396.224963977197
 30
0.0
 11
38.90778275444802
 21
1396.224963977197
 31
0.0
  0
LINE
  5
1136
102
{ACAD_REACTORS
330
115C
330
1190
102
}
330
1F
100
AcDbEntity
  8
Layer2
370
     0
100
AcDbLine
 10
-51.59271724555196
 20
1421.224963977197
 30
0.0
 11
-51.59271724555197
 21
1396.224963977197
 31
0.0
  0
LINE
  5
1138
102
{ACAD_REACTORS
330
115C
330
1176
330
11AA
102
}
330
1F
100
AcDbEntity
  8
Layer2
370
     0
100
AcDbLine
 10
10.40728275444803
 20
1421.224963977197
 30
0.0
 11
10.40728275444803
 21
1396.224963977198
 31
0.0
  0
DIMENSION
  5
1143
102
{ACAD_XDICTIONARY
360
1151
102
}
102
{ACAD_REACTORS
330
115C
102
}
330
1F
100
AcDbEntity
  8
Layer2
370
     0
100
AcDbDimension
  2
*D54
 10
10.40728275444803
 20
1431.626495329878
 30
0.0
 11
-20.59271724555197
 21
1431.626495329878
 31
0.0
 70
    32
 71
     5
 42
62.0
  3
Brian
100
AcDbAlignedDimension
 13
-51.59271724555196
 23
1421.224963977197
 33
0.0
 14
10.40728275444803
 24
1421.224963977197
 34
0.0
100
AcDbRotatedDimension
  0
DIMENSION
  5
115D
102
{ACAD_XDICTIONARY
360
116B
102
}
102
{ACAD_REACTORS
330
1176
102
}
330
1F
100
AcDbEntity
  8
Layer2
370
     0
100
AcDbDimension
  2
*D55
 10
38.90778275444803
 20
1406.270665710499
 30
0.0
 11
61.8444494211147
 21
1406.270665710499
 31
0.0
 70
    32
 71
     5
 42
28.50049999999999
  3
Brian
100
AcDbAlignedDimension
 13
10.40728275444803
 23
1396.224963977198
 33
0.0
 14
38.90778275444803
 24
1396.224963977198
 34
0.0
100
AcDbRotatedDimension
  0
DIMENSION
  5
1177
102
{ACAD_XDICTIONARY
360
1185
102
}
102
{ACAD_REACTORS
330
1190
102
}
330
1F
100
AcDbEntity
  8
Layer2
370
     0
100
AcDbDimension
  2
*D56
 10
-51.59271724555197
 20
1408.602235802614
 30
0.0
 11
-27.32271724555197
 21
1408.602235802614
 31
0.0
 70
    32
 71
     5
 42
28.49950000000001
  3
Brian
100
AcDbAlignedDimension
 13
-80.09221724555198
 23
1396.224963977197
 33
0.0
 14
-51.59271724555197
 24
1396.224963977197
 34
0.0
100
AcDbRotatedDimension
  0
DIMENSION
  5
1191
102
{ACAD_XDICTIONARY
360
119F
102
}
102
{ACAD_REACTORS
330
11AA
102
}
330
1F
100
AcDbEntity
  8
Layer2
370
     0
100
AcDbDimension
  2
*D57
 10
-0.3054834151034811
 20
1396.224963977198
 30
0.0
 11
-0.3054834151037049
 21
1408.724963977197
 31
0.0
 70
    32
 71
     5
 42
24.99999999999932
  3
Brian
100
AcDbAlignedDimension
 13
10.40728275444803
 23
1421.224963977197
 33
0.0
 14
10.40728275444803
 24
1396.224963977198
 34
0.0
 50
90.0
100
AcDbRotatedDimension
  0
LINE
  5
11AB
330
1F
100
AcDbEntity
  8
Layer2
370
     0
100
AcDbLine
 10
-80.59221724555198
 20
1633.140451794836
 30
0.0
 11
39.40778275444802
 21
1633.140451794836
 31
0.0
  0
LINE
  5
11AC
102
{ACAD_REACTORS
330
11BC
102
}
330
1F
100
AcDbEntity
  8
SolidLayer
370
     0
100
AcDbLine
 10
138.907782754448
 20
1471.224963977197
 30
0.0
 11
138.907782754448
 21
1429.799743234079
 31
0.0
  0
LINE
  5
11AE
330
1F
100
AcDbEntity
  8
Layer2
370
     0
100
AcDbLine
 10
90.40778275444802
 20
1471.224963977197
 30
0.0
 11
90.40778275444791
 21
1434.858963977197
 31
0.0
  0
ARC
  5
11B1
330
1F
100
AcDbEntity
  8
Layer1
370
     0
100
AcDbCircle
 10
39.40778275444802
 20
1471.224963977197
 30
0.0
 40
0.5
100
AcDbArc
 50
59.53120948737363
 51
180.0000000000261
  0
LINE
  5
11B3
330
1F
100
AcDbEntity
  8
Layer1
370
     0
100
AcDbLine
 10
90.40778275444802
 20
1474.790431227168
 30
0.0
 11
90.40778275444798
 21
1434.799743234079
 31
0.0
  0
ARC
  5
11B4
330
1F
100
AcDbEntity
  8
Layer1
370
     0
100
AcDbCircle
 10
95.40778275444798
 20
1434.799743234079
 30
0.0
 40
5.0
100
AcDbArc
 50
179.9999999999999
 51
270.0
  0
LINE
  5
11B5
102
{ACAD_REACTORS
330
16C7
102
}
330
1F
100
AcDbEntity
  8
Layer1
370
     0
100
AcDbLine
 10
39.66131723000941
 20
1471.655916723681
 30
0.0
 11
90.40778275444793
 21
1441.799743234079
 31
0.0
  0
LINE
  5
11B6
330
1F
100
AcDbEntity
  8
Layer2
370
     0
100
AcDbLine
 10
39.83657233315557
 20
1471.953811784575
 30
0.0
 11
39.40778275444813
 21
1471.224963977197
 31
0.0
  0
LINE
  5
11B7
330
1F
100
AcDbEntity
  8
Layer2
370
     0
100
AcDbLine
 10
39.40778275444813
 20
1471.224963977197
 30
0.0
 11
39.40778275444813
 21
1473.891929172052
 31
0.0
  0
LINE
  5
11B8
330
1F
100
AcDbEntity
  8
Layer1
370
     0
100
AcDbLine
 10
90.40778275444802
 20
1441.799743234079
 30
0.0
 11
123.8577137278755
 21
1441.799743234079
 31
0.0
  0
LINE
  5
11B9
330
1F
100
AcDbEntity
  8
Layer1
370
     0
100
AcDbLine
 10
95.40778275444798
 20
1429.799743234079
 30
0.0
 11
138.9077827544479
 21
1429.799743234079
 31
0.0
  0
DIMENSION
  5
11BA
102
{ACAD_XDICTIONARY
360
11BB
102
}
102
{ACAD_REACTORS
330
11BC
102
}
330
1F
100
AcDbEntity
  8
Layer1
370
     0
100
AcDbDimension
  2
*D58
 10
122.8638826292247
 20
1429.799743234079
 30
0.0
 11
122.8638826292244
 21
1450.512353605638
 31
0.0
 70
    32
 71
     5
 42
41.42522074311819
  3
Brian
100
AcDbAlignedDimension
 13
138.907782754448
 23
1471.224963977197
 33
0.0
 14
138.907782754448
 24
1429.799743234079
 34
0.0
 50
90.0
100
AcDbRotatedDimension
  0
DIMENSION
  5
11CA
102
{ACAD_XDICTIONARY
360
11D8
102
}
102
{ACAD_REACTORS
330
11E3
102
}
330
1F
100
AcDbEntity
  8
Layer2
370
     0
100
AcDbDimension
  2
*D59
 10
-176.6360665672701
 20
1471.724963977197
 30
0.0
 11
-176.6360665672703
 21
1571.224963977197
 31
0.0
 70
    32
 71
     5
 42
198.9999999999998
  3
Brian
100
AcDbAlignedDimension
 13
-180.592217245552
 23
1670.724963977197
 33
0.0
 14
-180.592217245552
 24
1471.724963977197
 34
0.0
 50
90.0
100
AcDbRotatedDimension
  0
DIMENSION
  5
11E4
102
{ACAD_XDICTIONARY
360
11F2
102
}
102
{ACAD_REACTORS
330
11FD
102
}
330
1F
100
AcDbEntity
  8
Layer2
370
     0
100
AcDbDimension
  2
*D60
 10
-181.1723490104959
 20
1475.028961273476
 30
0.0
 11
-240.5922172455523
 21
1475.028961273476
 31
0.0
 70
    32
 71
     5
 42
118.8397364701127
  3
Brian
100
AcDbAlignedDimension
 13
-300.0120854806087
 23
1471.224963977197
 33
0.0
 14
-181.1723490104959
 24
1471.224963977197
 34
0.0
100
AcDbRotatedDimension
  0
DIMENSION
  5
1631
102
{ACAD_XDICTIONARY
360
163F
102
}
102
{ACAD_REACTORS
330
164A
102
}
330
1F
100
AcDbEntity
  8
Layer2
100
AcDbDimension
  2
*D63
 10
-81.57824105701978
 20
1477.392637083354
 30
0.0
 11
-130.8352291512859
 21
1477.392637083354
 31
0.0
 70
    32
 71
     5
 42
98.51397618853219
  3
Brian
100
AcDbAlignedDimension
 13
-180.0922172455519
 23
1471.224963977197
 33
0.0
 14
-81.57824105701978
 24
1471.224963977197
 34
0.0
100
AcDbRotatedDimension
  0
LINE
  5
167F
102
{ACAD_REACTORS
330
702
330
16C7
102
}
330
1F
100
AcDbEntity
  8
0
370
     0
100
AcDbLine
 10
138.907782754448
 20
1670.224963977197
 30
0.0
 11
138.907782754448
 21
1471.224963977197
 31
0.0
  0
DIMENSION
  5
16AE
102
{ACAD_XDICTIONARY
360
16BC
102
}
102
{ACAD_REACTORS
330
16C7
102
}
330
1F
100
AcDbEntity
  8
Layer2
100
AcDbDimension
  2
*D67
 10
138.907782754448
 20
1480.497341996247
 30
0.0
 11
89.65079466018172
 21
1480.497341996247
 31
0.0
 70
    32
 71
     5
 42
98.51397618853255
  3
Brian
100
AcDbAlignedDimension
 13
40.39380656591544
 23
1471.224963977197
 33
0.0
 14
138.907782754448
 24
1471.224963977197
 34
0.0
100
AcDbRotatedDimension
  0
DIMENSION
  5
16C8
102
{ACAD_XDICTIONARY
360
16D6
102
}
102
{ACAD_REACTORS
330
16E1
102
}
330
1F
100
AcDbEntity
  8
Layer2
100
AcDbDimension
  2
*D68
 10
-5.592217245551978
 20
1643.462440055719
 30
0.0
 11
15.34444942111469
 21
1643.462440055719
 31
0.0
 70
    32
 71
     5
 42
30.0
  3
Brian
100
AcDbAlignedDimension
 13
-35.59221724555198
 23
1650.224963977197
 33
0.0
 14
-5.592217245551978
 24
1650.224963977197
 34
0.0
100
AcDbRotatedDimension
  0
DIMENSION
  5
16E2
102
{ACAD_XDICTIONARY
360
16F0
102
}
102
{ACAD_REACTORS
330
16FB
102
}
330
1F
100
AcDbEntity
  8
Layer2
100
AcDbDimension
  2
*D69
 10
7.466215348530569
 20
1670.224963977197
 30
0.0
 11
7.466215348530299
 21
1660.224963977197
 31
0.0
 70
    32
 71
     5
 42
20.0
  3
Brian
100
AcDbAlignedDimension
 13
-5.592217245551978
 23
1650.224963977197
 33
0.0
 14
-5.592217245551978
 24
1670.224963977197
 34
0.0
 50
90.0
100
AcDbRotatedDimension
  0
DIMENSION
  5
16FC
102
{ACAD_XDICTIONARY
360
170A
102
}
102
{ACAD_REACTORS
330
1715
102
}
330
1F
100
AcDbEntity
  8
Layer2
100
AcDbDimension
  2
*D70
 10
18.30636841756131
 20
1690.224963977197
 30
0.0
 11
18.30636841756104
 21
1680.224963977197
 31
0.0
 70
    32
 71
     5
 42
20.0
  3
Brian
100
AcDbAlignedDimension
 13
-20.59221724555198
 23
1670.224963977197
 33
0.0
 14
-20.59221724555198
 24
1690.224963977197
 34
0.0
 50
90.0
100
AcDbRotatedDimension
  0
DIMENSION
  5
1716
102
{ACAD_XDICTIONARY
360
1722
102
}
102
{ACAD_REACTORS
330
172B
102
}
330
1F
100
AcDbEntity
  8
Layer2
100
AcDbDimension
  2
*D71
 10
-30.59221724555141
 20
1685.2249639772
 30
0.0
 11
-54.06502353107794
 21
1701.571271785404
 31
0.0
 70
   164
 71
     5
 42
4.999999999997498
  3
Brian
100
AcDbRadialDimension
 15
-31.16034722006995
 25
1690.192581950839
 35
0.0
 40
0.0
1001
ACAD
1000
DSTYLE
1002
{
1070
   288
1070
     1
1002
}
  0
DIMENSION
  5
1746
102
{ACAD_XDICTIONARY
360
1754
102
}
102
{ACAD_REACTORS
330
175F
102
}
330
1F
100
AcDbEntity
  8
Layer2
100
AcDbDimension
  2
*D72
 10
-51.93002885543683
 20
1650.224963977197
 30
0.0
 11
-51.9300288554371
 21
1667.724963977197
 31
0.0
 70
    32
 71
     5
 42
35.0
  3
Brian
100
AcDbAlignedDimension
 13
-35.59221724555198
 23
1685.224963977197
 33
0.0
 14
-35.59221724555198
 24
1650.224963977197
 34
0.0
 50
90.0
100
AcDbRotatedDimension
  0
DIMENSION
  5
177C
102
{ACAD_XDICTIONARY
360
178A
102
}
102
{ACAD_REACTORS
330
1795
102
}
330
1F
100
AcDbEntity
  8
Layer2
100
AcDbDimension
  2
*D74
 10
-225.092217245552
 20
1780.247631961469
 30
0.0
 11
-204.822217245552
 21
1780.247631961469
 31
0.0
 70
    32
 71
     5
 42
31.0
  3
Brian
100
AcDbAlignedDimension
 13
-256.092217245552
 23
1771.724963977197
 33
0.0
 14
-225.092217245552
 24
1771.224963977197
 34
0.0
100
AcDbRotatedDimension
  0
DIMENSION
  5
1796
102
{ACAD_XDICTIONARY
360
17A2
102
}
102
{ACAD_REACTORS
330
17AB
102
}
330
1F
100
AcDbEntity
  8
Layer2
100
AcDbDimension
  2
*D75
 10
-240.592217245552
 20
1771.224963977197
 30
0.0
 11
-212.2109614432343
 21
1757.886317373233
 31
0.0
 70
   164
 71
     5
 42
5.000000000000909
  3
Brian
100
AcDbRadialDimension
 15
-238.3271629500035
 25
1766.767438987001
 35
0.0
 40
0.0
1001
ACAD
1000
DSTYLE
1002
{
1070
   288
1070
     1
1002
}
  0
LINE
  5
17AC
330
1F
100
AcDbEntity
  8
0
100
AcDbLine
 10
-256.092217245552
 20
1771.224963977197
 30
0.0
 11
-225.092217245552
 21
1771.224963977197
 31
0.0
  0
DIMENSION
  5
1818
102
{ACAD_XDICTIONARY
360
1827
102
}
102
{ACAD_REACTORS
330
1833
102
}
330
1F
100
AcDbEntity
  8
Layer2
100
AcDbDimension
  2
*D79
 10
-260.2473285263823
 20
1769.724963977196
 30
0.0
 11
-277.1839951930492
 21
1769.544963977197
 31
0.0
 70
    32
 71
     5
 42
1.500000000000227
  3
Brian
100
AcDbAlignedDimension
 13
-256.092217245552
 23
1771.224963977197
 33
0.0
 14
-256.092217245552
 24
1769.724963977196
 34
0.0
 50
90.0
100
AcDbRotatedDimension
  0
ENDSEC
  0
SECTION
  2
OBJECTS
  0
DICTIONARY
  5
C
330
0
100
AcDbDictionary
281
     1
  3
ACAD_2007HEADERVARS_RT
350
183A
  3
ACAD_COLOR
350
73
  3
ACAD_GROUP
350
D
  3
ACAD_LAYOUT
350
1A
  3
ACAD_MATERIAL
350
72
  3
ACAD_MLINESTYLE
350
17
  3
ACAD_PLOTSETTINGS
350
19
  3
ACAD_PLOTSTYLENAME
350
E
  3
ACAD_TABLESTYLE
350
86
  3
ACAD_VISUALSTYLE
350
97
  3
AcDbVariableDictionary
350
66
  0
DICTIONARY
  5
C8
330
2
100
AcDbDictionary
280
     1
281
     1
  3
ACAD_LAYERFILTERS
360
5A8
  3
ACLYDICTIONARY
360
5A7
  0
DICTIONARY
  5
3A7
330
1F
100
AcDbDictionary
280
     1
281
     1
  3
ACAD_SORTENTS
360
3A8
  0
DICTIONARY
  5
6F8
330
6F7
100
AcDbDictionary
280
     1
281
     1
  3
ACAD_DIMASSOC
360
6F9
  0
DICTIONARY
  5
701
330
700
100
AcDbDictionary
280
     1
281
     1
  3
ACAD_DIMASSOC
360
702
  0
DICTIONARY
  5
704
330
703
100
AcDbDictionary
280
     1
281
     1
  3
ACAD_DIMASSOC
360
705
  0
DICTIONARY
  5
7C7
330
7B9
100
AcDbDictionary
280
     1
281
     1
  3
ACAD_DIMASSOC
360
7D2
  0
DICTIONARY
  5
CA5
330
C97
100
AcDbDictionary
280
     1
281
     1
  3
ACAD_DIMASSOC
360
CB0
  0
DICTIONARY
  5
E09
330
DFA
100
AcDbDictionary
280
     1
281
     1
  3
ACAD_DIMASSOC
360
E15
  0
DICTIONARY
  5
1031
330
1023
100
AcDbDictionary
280
     1
281
     1
  3
ACAD_DIMASSOC
360
103C
  0
DICTIONARY
  5
10BE
330
10B0
100
AcDbDictionary
280
     1
281
     1
  3
ACAD_DIMASSOC
360
10C9
  0
DICTIONARY
  5
10D8
330
10CA
100
AcDbDictionary
280
     1
281
     1
  3
ACAD_DIMASSOC
360
10E3
  0
DICTIONARY
  5
10F2
330
10E4
100
AcDbDictionary
280
     1
281
     1
  3
ACAD_DIMASSOC
360
10FD
  0
DICTIONARY
  5
110C
330
10FE
100
AcDbDictionary
280
     1
281
     1
  3
ACAD_DIMASSOC
360
1117
  0
DICTIONARY
  5
1151
330
1143
100
AcDbDictionary
280
     1
281
     1
  3
ACAD_DIMASSOC
360
115C
  0
DICTIONARY
  5
116B
330
115D
100
AcDbDictionary
280
     1
281
     1
  3
ACAD_DIMASSOC
360
1176
  0
DICTIONARY
  5
1185
330
1177
100
AcDbDictionary
280
     1
281
     1
  3
ACAD_DIMASSOC
360
1190
  0
DICTIONARY
  5
119F
330
1191
100
AcDbDictionary
280
     1
281
     1
  3
ACAD_DIMASSOC
360
11AA
  0
DICTIONARY
  5
11BB
330
11BA
100
AcDbDictionary
280
     1
281
     1
  3
ACAD_DIMASSOC
360
11BC
  0
DICTIONARY
  5
11D8
330
11CA
100
AcDbDictionary
280
     1
281
     1
  3
ACAD_DIMASSOC
360
11E3
  0
DICTIONARY
  5
11F2
330
11E4
100
AcDbDictionary
280
     1
281
     1
  3
ACAD_DIMASSOC
360
11FD
  0
DICTIONARY
  5
163F
330
1631
100
AcDbDictionary
280
     1
281
     1
  3
ACAD_DIMASSOC
360
164A
  0
DICTIONARY
  5
16BC
330
16AE
100
AcDbDictionary
280
     1
281
     1
  3
ACAD_DIMASSOC
360
16C7
  0
DICTIONARY
  5
16D6
330
16C8
100
AcDbDictionary
280
     1
281
     1
  3
ACAD_DIMASSOC
360
16E1
  0
DICTIONARY
  5
16F0
330
16E2
100
AcDbDictionary
280
     1
281
     1
  3
ACAD_DIMASSOC
360
16FB
  0
DICTIONARY
  5
170A
330
16FC
100
AcDbDictionary
280
     1
281
     1
  3
ACAD_DIMASSOC
360
1715
  0
DICTIONARY
  5
1722
330
1716
100
AcDbDictionary
280
     1
281
     1
  3
ACAD_DIMASSOC
360
172B
  0
DICTIONARY
  5
1754
330
1746
100
AcDbDictionary
280
     1
281
     1
  3
ACAD_DIMASSOC
360
175F
  0
DICTIONARY
  5
178A
330
177C
100
AcDbDictionary
280
     1
281
     1
  3
ACAD_DIMASSOC
360
1795
  0
DICTIONARY
  5
17A2
330
1796
100
AcDbDictionary
280
     1
281
     1
  3
ACAD_DIMASSOC
360
17AB
  0
DICTIONARY
  5
1827
330
1818
100
AcDbDictionary
280
     1
281
     1
  3
ACAD_DIMASSOC
360
1833
  0
DICTIONARY
  5
183A
102
{ACAD_REACTORS
330
C
102
}
330
C
100
AcDbDictionary
281
     1
  3
DIMLTEX1
350
183C
  3
DIMLTEX2
350
183D
  3
DIMLTYPE
350
183B
  0
DICTIONARY
  5
73
102
{ACAD_REACTORS
330
C
102
}
330
C
100
AcDbDictionary
281
     1
  0
DICTIONARY
  5
D
102
{ACAD_REACTORS
330
C
102
}
330
C
100
AcDbDictionary
281
     1
  0
DICTIONARY
  5
1A
102
{ACAD_REACTORS
330
C
102
}
330
C
100
AcDbDictionary
281
     1
  3
Model
350
22
  3
1
350
59
  3
2
350
5E
  0
DICTIONARY
  5
72
102
{ACAD_REACTORS
330
C
102
}
330
C
100
AcDbDictionary
281
     1
  3
ByBlock
350
95
  3
ByLayer
350
94
  3
Global
350
96
  0
DICTIONARY
  5
17
102
{ACAD_REACTORS
330
C
102
}
330
C
100
AcDbDictionary
281
     1
  3
Standard
350
18
  0
DICTIONARY
  5
19
102
{ACAD_REACTORS
330
C
102
}
330
C
100
AcDbDictionary
281
     1
  0
ACDBDICTIONARYWDFLT
  5
E
102
{ACAD_REACTORS
330
C
102
}
330
C
100
AcDbDictionary
281
     1
  3
Normal
350
F
100
AcDbDictionaryWithDefault
340
F
  0
DICTIONARY
  5
86
102
{ACAD_REACTORS
330
C
102
}
330
C
100
AcDbDictionary
281
     1
  3
Standard
350
87
  0
DICTIONARY
  5
97
102
{ACAD_REACTORS
330
C
102
}
330
C
100
AcDbDictionary
281
     1
  3
2dWireframe
350
9D
  3
3D Hidden
350
9F
  3
3dWireframe
350
9E
  3
Basic
350
9C
  3
Brighten
350
A3
  3
ColorChange
350
A7
  3
Conceptual
350
A0
  3
Dim
350
A2
  3
Facepattern
350
A6
  3
Flat
350
98
  3
FlatWithEdges
350
99
  3
Gouraud
350
9A
  3
GouraudWithEdges
350
9B
  3
Linepattern
350
A5
  3
Realistic
350
A1
  3
Thicken
350
A4
  0
DICTIONARY
  5
66
102
{ACAD_REACTORS
330
C
102
}
330
C
100
AcDbDictionary
281
     1
  3
CTABLESTYLE
350
8B
  3
DIMASSOC
350
67
  3
HIDETEXT
350
6B
  0
DICTIONARY
  5
5A8
102
{ACAD_REACTORS
330
C8
102
}
330
C8
100
AcDbDictionary
281
     1
  0
DICTIONARY
  5
5A7
102
{ACAD_REACTORS
330
C8
102
}
330
C8
100
AcDbDictionary
281
     1
1001
ACAD
1000
<All
  0
SORTENTSTABLE
  5
3A8
102
{ACAD_REACTORS
330
3A7
102
}
330
3A7
100
AcDbSortentsTable
330
1F
331
6A8
  5
6A8
331
6E7
  5
6E7
331
1118
  5
1135
331
6B0
  5
6B0
331
6EF
  5
6F1
331
6B8
  5
6B8
331
6F7
  5
700
331
11AE
  5
11B1
331
1023
  5
10B0
331
11B6
  5
11B7
331
1177
  5
1191
331
6C0
  5
6C0
331
6C8
  5
6C8
331
1138
  5
1143
331
707
  5
70B
331
6D8
  5
6D8
331
E17
  5
1057
331
10CA
  5
1118
331
6E0
  5
6E0
331
6E8
  5
6E8
331
71F
  5
7B9
331
1119
  5
1136
331
6B1
  5
6B1
331
6F0
  5
6F2
331
6B9
  5
6B9
331
1093
  5
DCF
331
11B7
  5
11B8
331
6C1
  5
6C1
331
6C9
  5
6C9
331
700
  5
708
331
6D1
  5
6D1
331
708
  5
70C
331
6D9
  5
6D9
331
E18
  5
1023
331
6E1
  5
6E1
331
6E9
  5
6E9
331
6B2
  5
6B2
331
6F1
  5
6F3
331
6BA
  5
6BA
331
11B8
  5
11B9
331
6CA
  5
6CA
331
6D2
  5
6D2
331
709
  5
711
331
E19
  5
DCB
331
711
  5
722
331
1191
  5
11AB
331
167F
  5
6FD
331
6EA
  5
6EA
331
6B3
  5
6B3
331
6F2
  5
6F4
331
DFA
  5
F83
331
6BB
  5
6BB
331
11B1
  5
11B3
331
10E4
  5
1119
331
11B9
  5
11BA
331
6C3
  5
6C3
331
6FA
  5
703
331
6CB
  5
6CB
331
6D3
  5
6D3
331
808
  5
86F
331
6DB
  5
6DB
331
1143
  5
115D
331
1631
  5
164B
331
6E3
  5
6E3
331
6EB
  5
6EB
331
6B4
  5
6B4
331
6F3
  5
6F5
331
7B9
  5
864
331
6BC
  5
6BC
331
11BA
  5
11CA
331
11CA
  5
11E4
331
1134
  5
6ED
331
6C4
  5
6C4
331
703
  5
709
331
6D4
  5
6D4
331
70B
  5
71D
331
C77
  5
CB1
331
6DC
  5
6DC
331
6E4
  5
6E4
331
F82
  5
1058
331
C97
  5
CD8
331
6EC
  5
6EC
331
11AB
  5
11AC
331
6B5
  5
6B5
331
6F4
  5
6F6
331
1057
  5
10CA
331
11B3
  5
11B4
331
6BD
  5
6BD
331
1135
  5
6EE
331
6C5
  5
6C5
331
CD7
  5
DCD
331
6CD
  5
6CD
331
6D5
  5
6D5
331
70C
  5
71E
331
C78
  5
CD6
331
10FE
  5
1134
331
6DD
  5
6DD
331
6E5
  5
6E5
331
72C
  5
863
331
6AE
  5
6AE
331
6ED
  5
6EF
331
F83
  5
1093
331
11AC
  5
11AE
331
115D
  5
1177
331
6B6
  5
6B6
331
6F5
  5
6F7
331
1058
  5
10E4
331
11B4
  5
11B5
331
6BE
  5
6BE
331
1136
  5
1138
331
6C6
  5
6C6
331
6FD
  5
707
331
CD8
  5
DCE
331
6CE
  5
6CE
331
10B0
  5
10FE
331
C71
  5
C78
331
6D6
  5
6D6
331
863
  5
870
331
6DE
  5
6DE
331
11E4
  5
1631
331
6E6
  5
6E6
331
6AF
  5
6AF
331
6EE
  5
6F0
331
6B7
  5
6B7
331
6F6
  5
6FA
331
11B5
  5
11B6
331
CB1
  5
CF3
331
6BF
  5
6BF
331
6CF
  5
6CF
331
6D7
  5
6D7
331
864
  5
872
331
6DF
  5
6DF
  0
DIMASSOC
  5
6F9
102
{ACAD_REACTORS
330
6F8
102
}
330
6F8
100
AcDbDimAssoc
330
6F7
 90
        3
 70
     0
 71
     0
  1
AcDbOsnapPointRef
 72
    10
331
6E9
 73
     2
 91
        0
 40
0.4021467296465939
 10
0.0
 20
0.0
 30
0.0
 75
     0
  1
AcDbOsnapPointRef
 72
     8
331
6F0
 73
     2
 91
        0
 40
0.4036488735419542
 10
0.0
 20
0.0
 30
0.0
 75
     1
  1
AcDbOsnapPointRef
 72
    10
331
6E9
 73
     2
 91
        0
 40
0.4021467296465939
 10
0.0
 20
0.0
 30
0.0
 75
     0
  0
DIMASSOC
  5
702
102
{ACAD_REACTORS
330
701
102
}
330
701
100
AcDbDimAssoc
330
700
 90
        1
 70
     0
 71
     0
  1
AcDbOsnapPointRef
 72
    10
331
6F6
 73
     2
 91
        0
 40
0.6031922488436948
 10
0.0
 20
0.0
 30
0.0
 75
     0
  0
DIMASSOC
  5
705
102
{ACAD_REACTORS
330
704
102
}
330
704
100
AcDbDimAssoc
330
703
 90
        3
 70
     0
 71
     0
  1
AcDbOsnapPointRef
 72
     2
331
6EF
 73
     2
 91
        0
 40
0.5
 10
0.0
 20
0.0
 30
0.0
 75
     0
  1
AcDbOsnapPointRef
 72
     8
331
6E8
 73
     2
 91
        0
 40
0.7854166666666666
 10
0.0
 20
0.0
 30
0.0
 75
     1
  1
AcDbOsnapPointRef
 72
     2
331
6EF
 73
     2
 91
        0
 40
0.5
 10
0.0
 20
0.0
 30
0.0
 75
     0
  0
DIMASSOC
  5
7D2
102
{ACAD_REACTORS
330
7C7
102
}
330
7C7
100
AcDbDimAssoc
330
7B9
 90
        2
 70
     0
 71
     0
  1
AcDbOsnapPointRef
 72
     8
331
6EA
 73
     2
 91
        0
 40
0.7210837944597453
 10
0.0
 20
0.0
 30
0.0
 75
     1
  1
AcDbOsnapPointRef
 72
     0
 40
0.0
 10
-214.342217245552
 20
1671.224963977197
 30
0.0
 75
     0
  0
DIMASSOC
  5
CB0
102
{ACAD_REACTORS
330
CA5
102
}
330
CA5
100
AcDbDimAssoc
330
C97
 90
        3
 70
     0
 71
     0
  1
AcDbOsnapPointRef
 72
     1
331
709
 73
     2
 91
        0
 40
4.712388980384689
 10
0.0
 20
0.0
 30
2.000000000000000E+50
 75
     0
  1
AcDbOsnapPointRef
 72
    13
331
70C
 73
     2
 91
        0
 40
4.712388980384689
 10
0.0
 20
0.0
 30
2.000000000000000E+50
 75
     0
  0
DIMASSOC
  5
E15
102
{ACAD_REACTORS
330
E09
102
}
330
E09
100
AcDbDimAssoc
330
DFA
 90
       15
 70
     0
 71
     0
  1
AcDbOsnapPointRef
 72
    13
331
6EA
 73
     2
 91
        0
 40
0.0
 10
0.0
 20
0.0
 30
2.000000000000000E+50
 75
     0
  1
AcDbOsnapPointRef
 72
     1
331
6EA
 73
     2
 91
        0
 40
1.0
 10
0.0
 20
0.0
 30
2.000000000000000E+50
 75
     0
  1
AcDbOsnapPointRef
 72
    13
331
863
 73
     2
 91
        0
 40
0.0
 10
0.0
 20
0.0
 30
2.000000000000000E+50
 75
     0
  1
AcDbOsnapPointRef
 72
     1
331
863
 73
     2
 91
        0
 40
1.0
 10
0.0
 20
0.0
 30
2.000000000000000E+50
 75
     0
  0
DIMASSOC
  5
103C
102
{ACAD_REACTORS
330
1031
102
}
330
1031
100
AcDbDimAssoc
330
1023
 90
        3
 70
     0
 71
     0
  1
AcDbOsnapPointRef
 72
     6
331
E18
 73
     2
 91
        0
 40
1.0
 10
0.0
 20
0.0
 30
0.0
332
CD8
 74
     2
 92
        0
 75
     0
  1
AcDbOsnapPointRef
 72
     8
331
F82
 73
     2
 91
        0
 40
0.4101903107548877
 10
0.0
 20
0.0
 30
0.0
 75
     1
  1
AcDbOsnapPointRef
 72
     6
331
E18
 73
     2
 91
        0
 40
1.0
 10
0.0
 20
0.0
 30
0.0
332
CD8
 74
     2
 92
        0
 75
     0
  0
DIMASSOC
  5
10C9
102
{ACAD_REACTORS
330
10BE
102
}
330
10BE
100
AcDbDimAssoc
330
10B0
 90
        3
 70
     0
 71
     0
  1
AcDbOsnapPointRef
 72
     1
331
6EA
 73
     2
 91
        0
 40
1.0
 10
0.0
 20
0.0
 30
2.000000000000000E+50
 75
     0
  1
AcDbOsnapPointRef
 72
     1
331
6CF
 73
     2
 91
        0
 40
1.0
 10
0.0
 20
0.0
 30
2.000000000000000E+50
 75
     0
  0
DIMASSOC
  5
10E3
102
{ACAD_REACTORS
330
10D8
102
}
330
10D8
100
AcDbDimAssoc
330
10CA
 90
        3
 70
     0
 71
     0
  1
AcDbOsnapPointRef
 72
     1
331
6CF
 73
     2
 91
        0
 40
1.0
 10
0.0
 20
0.0
 30
2.000000000000000E+50
 75
     0
  1
AcDbOsnapPointRef
 72
    13
331
1058
 73
     2
 91
        0
 40
0.0
 10
0.0
 20
0.0
 30
2.000000000000000E+50
 75
     0
  0
DIMASSOC
  5
10FD
102
{ACAD_REACTORS
330
10F2
102
}
330
10F2
100
AcDbDimAssoc
330
10E4
 90
        3
 70
     0
 71
     0
  1
AcDbOsnapPointRef
 72
     2
331
72C
 73
     2
 91
        0
 40
0.5
 10
0.0
 20
0.0
 30
0.0
 75
     0
  1
AcDbOsnapPointRef
 72
     8
331
6EC
 73
     2
 91
        0
 40
0.5020878661087868
 10
0.0
 20
0.0
 30
0.0
 75
     1
  1
AcDbOsnapPointRef
 72
     2
331
72C
 73
     2
 91
        0
 40
0.5
 10
0.0
 20
0.0
 30
0.0
 75
     0
  0
DIMASSOC
  5
1117
102
{ACAD_REACTORS
330
110C
102
}
330
110C
100
AcDbDimAssoc
330
10FE
 90
        3
 70
     0
 71
     0
  1
AcDbOsnapPointRef
 72
    10
331
6EA
 73
     2
 91
        0
 40
0.4105431450672488
 10
0.0
 20
0.0
 30
0.0
 75
     0
  1
AcDbOsnapPointRef
 72
     8
331
708
 73
     2
 91
        0
 40
0.2968950816697162
 10
0.0
 20
0.0
 30
0.0
 75
     1
  1
AcDbOsnapPointRef
 72
    10
331
6EA
 73
     2
 91
        0
 40
0.4105431450672488
 10
0.0
 20
0.0
 30
0.0
 75
     0
  0
DIMASSOC
  5
115C
102
{ACAD_REACTORS
330
1151
102
}
330
1151
100
AcDbDimAssoc
330
1143
 90
        3
 70
     0
 71
     0
  1
AcDbOsnapPointRef
 72
    13
331
1136
 73
     2
 91
        0
 40
0.0
 10
0.0
 20
0.0
 30
2.000000000000000E+50
 75
     0
  1
AcDbOsnapPointRef
 72
    13
331
1138
 73
     2
 91
        0
 40
0.0
 10
0.0
 20
0.0
 30
2.000000000000000E+50
 75
     0
  0
DIMASSOC
  5
1176
102
{ACAD_REACTORS
330
116B
102
}
330
116B
100
AcDbDimAssoc
330
115D
 90
        3
 70
     0
 71
     0
  1
AcDbOsnapPointRef
 72
     1
331
1138
 73
     2
 91
        0
 40
1.0
 10
0.0
 20
0.0
 30
2.000000000000000E+50
 75
     0
  1
AcDbOsnapPointRef
 72
     8
331
1119
 73
     2
 91
        0
 40
0.9999999999999909
 10
0.0
 20
0.0
 30
0.0
 75
     1
  1
AcDbOsnapPointRef
 72
     1
331
1138
 73
     2
 91
        0
 40
1.0
 10
0.0
 20
0.0
 30
2.000000000000000E+50
 75
     0
  0
DIMASSOC
  5
1190
102
{ACAD_REACTORS
330
1185
102
}
330
1185
100
AcDbDimAssoc
330
1177
 90
        3
 70
     0
 71
     0
  1
AcDbOsnapPointRef
 72
     1
331
1118
 73
     2
 91
        0
 40
1.0
 10
0.0
 20
0.0
 30
2.000000000000000E+50
 75
     0
  1
AcDbOsnapPointRef
 72
     1
331
1136
 73
     2
 91
        0
 40
1.0
 10
0.0
 20
0.0
 30
2.000000000000000E+50
 75
     0
  0
DIMASSOC
  5
11AA
102
{ACAD_REACTORS
330
119F
102
}
330
119F
100
AcDbDimAssoc
330
1191
 90
        3
 70
     0
 71
     0
  1
AcDbOsnapPointRef
 72
    13
331
1138
 73
     2
 91
        0
 40
0.0
 10
0.0
 20
0.0
 30
2.000000000000000E+50
 75
     0
  1
AcDbOsnapPointRef
 72
     1
331
1138
 73
     2
 91
        0
 40
1.0
 10
0.0
 20
0.0
 30
2.000000000000000E+50
 75
     0
  0
DIMASSOC
  5
11BC
102
{ACAD_REACTORS
330
11BB
102
}
330
11BB
100
AcDbDimAssoc
330
11BA
 90
        2
 70
     0
 71
     0
  1
AcDbOsnapPointRef
 72
     1
331
11AC
 73
     2
 91
        0
 40
1.0
 10
0.0
 20
0.0
 30
2.000000000000000E+50
 75
     0
  0
DIMASSOC
  5
11E3
102
{ACAD_REACTORS
330
11D8
102
}
330
11D8
100
AcDbDimAssoc
330
11CA
 90
        3
 70
     0
 71
     0
  1
AcDbOsnapPointRef
 72
    13
331
6F0
 73
     2
 91
        0
 40
0.0
 10
0.0
 20
0.0
 30
2.000000000000000E+50
 75
     0
  1
AcDbOsnapPointRef
 72
     8
331
808
 73
     2
 91
        0
 40
1.570796326794896
 10
0.0
 20
0.0
 30
0.0
 75
     1
  1
AcDbOsnapPointRef
 72
    13
331
6F0
 73
     2
 91
        0
 40
0.0
 10
0.0
 20
0.0
 30
2.000000000000000E+50
 75
     0
  0
DIMASSOC
  5
11FD
102
{ACAD_REACTORS
330
11F2
102
}
330
11F2
100
AcDbDimAssoc
330
11E4
 90
        2
 70
     0
 71
     0
  1
AcDbOsnapPointRef
 72
     6
331
863
 73
     2
 91
        0
 40
0.9949543487173073
 10
0.0
 20
0.0
 30
0.0
332
6EA
 74
     2
 92
        0
 75
     0
  0
DIMASSOC
  5
164A
102
{ACAD_REACTORS
330
163F
102
}
330
163F
100
AcDbDimAssoc
330
1631
 90
        3
 70
     0
 71
     0
  1
AcDbOsnapPointRef
 72
    13
331
6EB
 73
     2
 91
        0
 40
0.0
 10
0.0
 20
0.0
 30
2.000000000000000E+50
 75
     0
  1
AcDbOsnapPointRef
 72
     6
331
E18
 73
     2
 91
        0
 40
0.0144342926810076
 10
0.0
 20
0.0
 30
0.0
332
6EB
 74
     2
 92
        0
 75
     0
  0
DIMASSOC
  5
16C7
102
{ACAD_REACTORS
330
16BC
102
}
330
16BC
100
AcDbDimAssoc
330
16AE
 90
        3
 70
     0
 71
     0
  1
AcDbOsnapPointRef
 72
     6
331
11B5
 73
     2
 91
        0
 40
0.0144342926810001
 10
0.0
 20
0.0
 30
0.0
332
6ED
 74
     2
 92
        0
 75
     0
  1
AcDbOsnapPointRef
 72
     1
331
167F
 73
     2
 91
        0
 40
1.0
 10
0.0
 20
0.0
 30
2.000000000000000E+50
 75
     0
  0
DIMASSOC
  5
16E1
102
{ACAD_REACTORS
330
16D6
102
}
330
16D6
100
AcDbDimAssoc
330
16C8
 90
        3
 70
     0
 71
     0
  1
AcDbOsnapPointRef
 72
    13
331
6F5
 73
     2
 91
        0
 40
0.0
 10
0.0
 20
0.0
 30
2.000000000000000E+50
 75
     0
  1
AcDbOsnapPointRef
 72
     1
331
6F5
 73
     2
 91
        0
 40
1.0
 10
0.0
 20
0.0
 30
2.000000000000000E+50
 75
     0
  0
DIMASSOC
  5
16FB
102
{ACAD_REACTORS
330
16F0
102
}
330
16F0
100
AcDbDimAssoc
330
16E2
 90
        3
 70
     0
 71
     0
  1
AcDbOsnapPointRef
 72
     1
331
6F5
 73
     2
 91
        0
 40
1.0
 10
0.0
 20
0.0
 30
2.000000000000000E+50
 75
     0
  1
AcDbOsnapPointRef
 72
     1
331
6F2
 73
     2
 91
        0
 40
1.0
 10
0.0
 20
0.0
 30
2.000000000000000E+50
 75
     0
  0
DIMASSOC
  5
1715
102
{ACAD_REACTORS
330
170A
102
}
330
170A
100
AcDbDimAssoc
330
16FC
 90
        3
 70
     0
 71
     0
  1
AcDbOsnapPointRef
 72
     2
331
6F2
 73
     2
 91
        0
 40
0.5
 10
0.0
 20
0.0
 30
0.0
 75
     0
  1
AcDbOsnapPointRef
 72
     2
331
6DF
 73
     2
 91
        0
 40
0.5
 10
0.0
 20
0.0
 30
0.0
 75
     0
  0
DIMASSOC
  5
172B
102
{ACAD_REACTORS
330
1722
102
}
330
1722
100
AcDbDimAssoc
330
1716
 90
        2
 70
     0
 71
     0
  1
AcDbOsnapPointRef
 72
     3
331
6B6
 73
     2
 91
        0
 40
0.0
 10
0.0
 20
0.0
 30
0.0
 75
     0
  0
DIMASSOC
  5
175F
102
{ACAD_REACTORS
330
1754
102
}
330
1754
100
AcDbDimAssoc
330
1746
 90
        3
 70
     0
 71
     0
  1
AcDbOsnapPointRef
 72
    13
331
6DE
 73
     2
 91
        0
 40
0.0
 10
0.0
 20
0.0
 30
2.000000000000000E+50
 75
     0
  1
AcDbOsnapPointRef
 72
    13
331
6F5
 73
     2
 91
        0
 40
0.0
 10
0.0
 20
0.0
 30
2.000000000000000E+50
 75
     0
  0
DIMASSOC
  5
1795
102
{ACAD_REACTORS
330
178A
102
}
330
178A
100
AcDbDimAssoc
330
177C
 90
        2
 70
     0
 71
     0
  1
AcDbOsnapPointRef
 72
    13
331
6CA
 73
     2
 91
        0
 40
0.0
 10
0.0
 20
0.0
 30
2.000000000000000E+50
 75
     0
  0
DIMASSOC
  5
17AB
102
{ACAD_REACTORS
330
17A2
102
}
330
17A2
100
AcDbDimAssoc
330
1796
 90
        2
 70
     0
 71
     0
  1
AcDbOsnapPointRef
 72
     3
331
6B1
 73
     2
 91
        0
 40
0.0
 10
0.0
 20
0.0
 30
0.0
 75
     0
  0
DIMASSOC
  5
1833
102
{ACAD_REACTORS
330
1827
102
}
330
1827
100
AcDbDimAssoc
330
1818
 90
        3
 70
     0
 71
     0
  1
AcDbOsnapPointRef
 72
    13
331
6C8
 73
     2
 91
        0
 40
0.0
 10
0.0
 20
0.0
 30
2.000000000000000E+50
 75
     0
  1
AcDbOsnapPointRef
 72
     1
331
6C6
 73
     2
 91
        0
 40
1.0
 10
0.0
 20
0.0
 30
2.000000000000000E+50
 75
     0
  0
XRECORD
  5
183C
102
{ACAD_REACTORS
330
183A
102
}
330
183A
100
AcDbXrecord
280
     1
340
15F
  0
XRECORD
  5
183D
102
{ACAD_REACTORS
330
183A
102
}
330
183A
100
AcDbXrecord
280
     1
340
15F
  0
XRECORD
  5
183B
102
{ACAD_REACTORS
330
183A
102
}
330
183A
100
AcDbXrecord
280
     1
340
15F
  0
LAYOUT
  5
22
102
{ACAD_REACTORS
330
1A
102
}
330
1A
100
AcDbPlotSettings
  1

  2
none_device
  4
ANSI_A_(8.50_x_11.00_Inches)
  6

 40
6.349999904632567
 41
19.04999923706055
 42
6.350006103515625
 43
19.04998779296875
 44
215.8999938964844
 45
279.3999938964844
 46
0.0
 47
0.0
 48
0.0
 49
0.0
140
0.0
141
0.0
142
1.0
143
2.584895464708373
 70
 11952
 72
     0
 73
     1
 74
     0
  7

 75
     0
147
0.3868628397755418
 76
     0
 77
     2
 78
   300
148
0.0
149
0.0
100
AcDbLayout
  1
Model
 70
     1
 71
     0
 10
0.0
 20
0.0
 11
12.0
 21
9.0
 12
0.0
 22
0.0
 32
0.0
 14
0.0
 24
0.0
 34
0.0
 15
0.0
 25
0.0
 35
0.0
146
0.0
 13
0.0
 23
0.0
 33
0.0
 16
1.0
 26
0.0
 36
0.0
 17
0.0
 27
1.0
 37
0.0
 76
     0
330
1F
331
92
  0
LAYOUT
  5
59
102
{ACAD_REACTORS
330
1A
102
}
330
1A
100
AcDbPlotSettings
  1

  2
None
  4

  6

 40
0.0
 41
0.0
 42
0.0
 43
0.0
 44
0.0
 45
0.0
 46
0.0
 47
0.0
 48
0.0
 49
0.0
140
0.0
141
0.0
142
1.0
143
1.0
 70
   688
 72
     0
 73
     0
 74
     5
  7

 75
    16
147
1.0
 76
     0
 77
     2
 78
   300
148
0.0
149
0.0
100
AcDbLayout
  1
1
 70
     1
 71
     1
 10
0.0
 20
0.0
 11
12.0
 21
9.0
 12
0.0
 22
0.0
 32
0.0
 14
0.0
 24
0.0
 34
0.0
 15
0.0
 25
0.0
 35
0.0
146
0.0
 13
0.0
 23
0.0
 33
0.0
 16
1.0
 26
0.0
 36
0.0
 17
0.0
 27
1.0
 37
0.0
 76
     0
330
58
  0
LAYOUT
  5
5E
102
{ACAD_REACTORS
330
1A
102
}
330
1A
100
AcDbPlotSettings
  1

  2
None
  4

  6

 40
0.0
 41
0.0
 42
0.0
 43
0.0
 44
0.0
 45
0.0
 46
0.0
 47
0.0
 48
0.0
 49
0.0
140
0.0
141
0.0
142
1.0
143
1.0
 70
   688
 72
     0
 73
     0
 74
     5
  7

 75
    16
147
1.0
 76
     0
 77
     2
 78
   300
148
0.0
149
0.0
100
AcDbLayout
  1
2
 70
     1
 71
     2
 10
0.0
 20
0.0
 11
12.0
 21
9.0
 12
0.0
 22
0.0
 32
0.0
 14
0.0
 24
0.0
 34
0.0
 15
0.0
 25
0.0
 35
0.0
146
0.0
 13
0.0
 23
0.0
 33
0.0
 16
1.0
 26
0.0
 36
0.0
 17
0.0
 27
1.0
 37
0.0
 76
     0
330
5D
  0
MATERIAL
  5
95
102
{ACAD_XDICTIONARY
360
1842
102
}
102
{ACAD_REACTORS
330
72
102
}
330
72
100
AcDbMaterial
  1
ByBlock
  0
MATERIAL
  5
94
102
{ACAD_XDICTIONARY
360
1840
102
}
102
{ACAD_REACTORS
330
72
102
}
330
72
100
AcDbMaterial
  1
ByLayer
  0
MATERIAL
  5
96
102
{ACAD_XDICTIONARY
360
1844
102
}
102
{ACAD_REACTORS
330
72
102
}
330
72
100
AcDbMaterial
  1
Global
  0
MLINESTYLE
  5
18
102
{ACAD_REACTORS
330
17
102
}
330
17
100
AcDbMlineStyle
  2
STANDARD
 70
     0
  3

 62
   256
 51
90.0
 52
90.0
 71
     2
 49
0.5
 62
   256
  6
BYLAYER
 49
-0.5
 62
   256
  6
BYLAYER
  0
ACDBPLACEHOLDER
  5
F
102
{ACAD_REACTORS
330
E
102
}
330
E
  0
TABLESTYLE
  5
87
102
{ACAD_XDICTIONARY
360
183E
102
}
102
{ACAD_REACTORS
330
86
102
}
330
86
100
AcDbTableStyle
  3
Standard
 70
     0
 71
     0
 40
0.06
 41
0.06
280
     0
281
     0
  7
Standard
140
0.18
170
     2
 62
     0
 63
     7
283
     0
274
    -2
284
     1
 64
     0
275
    -2
285
     1
 65
     0
276
    -2
286
     1
 66
     0
277
    -2
287
     1
 67
     0
278
    -2
288
     1
 68
     0
279
    -2
289
     1
 69
     0
  7
Standard
140
0.25
170
     5
 62
     0
 63
     7
283
     0
274
    -2
284
     1
 64
     0
275
    -2
285
     1
 65
     0
276
    -2
286
     1
 66
     0
277
    -2
287
     1
 67
     0
278
    -2
288
     1
 68
     0
279
    -2
289
     1
 69
     0
  7
Standard
140
0.18
170
     5
 62
     0
 63
     7
283
     0
274
    -2
284
     1
 64
     0
275
    -2
285
     1
 65
     0
276
    -2
286
     1
 66
     0
277
    -2
287
     1
 67
     0
278
    -2
288
     1
 68
     0
279
    -2
289
     1
 69
     0
  0
VISUALSTYLE
  5
9D
102
{ACAD_REACTORS
330
97
102
}
330
97
100
AcDbVisualStyle
  2
2dWireframe
 70
     4
 71
     0
 72
     2
 73
     1
 90
        0
 40
-0.6
 41
-30.0
 62
     5
 63
     7
421
 16777215
 74
     1
 91
        4
 64
     7
 65
   257
 75
     1
175
     1
 42
1.0
 92
        0
 66
   257
 43
1.0
 76
     1
 77
     6
 78
     2
 67
     7
 79
     5
170
     0
171
     0
290
     0
174
     0
 93
        1
 44
0.0
173
     0
291
     0
 45
0.0
1001
ACAD
1000
AcDbSavedByObjectVersion
1070
     0
  0
VISUALSTYLE
  5
9F
102
{ACAD_REACTORS
330
97
102
}
330
97
100
AcDbVisualStyle
  2
3D Hidden
 70
     6
 71
     1
 72
     2
 73
     2
 90
        0
 40
-0.6
 41
-30.0
 62
     5
 63
     7
421
 16777215
 74
     2
 91
        2
 64
     7
 65
   257
 75
     2
175
     1
 42
40.0
 92
        0
 66
   257
 43
1.0
 76
     1
 77
     6
 78
     2
 67
     7
 79
     3
170
     0
171
     0
290
     0
174
     0
 93
        1
 44
0.0
173
     0
291
     0
 45
0.0
1001
ACAD
1000
AcDbSavedByObjectVersion
1070
     0
  0
VISUALSTYLE
  5
9E
102
{ACAD_REACTORS
330
97
102
}
330
97
100
AcDbVisualStyle
  2
3dWireframe
 70
     5
 71
     0
 72
     2
 73
     1
 90
        0
 40
-0.6
 41
-30.0
 62
     5
 63
     7
421
 16777215
 74
     1
 91
        4
 64
     7
 65
   257
 75
     1
175
     1
 42
1.0
 92
        0
 66
   257
 43
1.0
 76
     1
 77
     6
 78
     2
 67
     7
 79
     5
170
     0
171
     0
290
     0
174
     0
 93
        1
 44
0.0
173
     0
291
     0
 45
0.0
1001
ACAD
1000
AcDbSavedByObjectVersion
1070
     0
  0
VISUALSTYLE
  5
9C
102
{ACAD_REACTORS
330
97
102
}
330
97
100
AcDbVisualStyle
  2
Basic
 70
     7
 71
     1
 72
     0
 73
     1
 90
        0
 40
-0.6
 41
-30.0
 62
     5
 63
     7
421
 16777215
 74
     0
 91
        4
 64
     7
 65
   257
 75
     1
175
     1
 42
1.0
 92
        8
 66
     7
 43
1.0
 76
     1
 77
     6
 78
     2
 67
     7
 79
     5
170
     0
171
     0
290
     0
174
     0
 93
        1
 44
0.0
173
     0
291
     1
 45
0.0
1001
ACAD
1000
AcDbSavedByObjectVersion
1070
     0
  0
VISUALSTYLE
  5
A3
102
{ACAD_REACTORS
330
97
102
}
330
97
100
AcDbVisualStyle
  2
Brighten
 70
    12
 71
     2
 72
     2
 73
     1
 90
        0
 40
-0.6
 41
-30.0
 62
     5
 63
     7
421
 16777215
 74
     1
 91
        4
 64
     7
 65
   257
 75
     1
175
     1
 42
1.0
 92
        8
 66
     7
 43
1.0
 76
     1
 77
     6
 78
     2
 67
     7
 79
     5
170
     0
171
     0
290
     0
174
     0
 93
        1
 44
50.0
173
     0
291
     1
 45
0.0
1001
ACAD
1000
AcDbSavedByObjectVersion
1070
     0
  0
VISUALSTYLE
  5
A7
102
{ACAD_REACTORS
330
97
102
}
330
97
100
AcDbVisualStyle
  2
ColorChange
 70
    16
 71
     2
 72
     2
 73
     3
 90
        0
 40
-0.6
 41
-30.0
 62
     5
 63
     8
421
  8421504
 74
     1
 91
        4
 64
     7
 65
   257
 75
     1
175
     1
 42
1.0
 92
        8
 66
     8
424
  8421504
 43
1.0
 76
     1
 77
     6
 78
     2
 67
     7
 79
     5
170
     0
171
     0
290
     0
174
     0
 93
        1
 44
0.0
173
     0
291
     1
 45
0.0
1001
ACAD
1000
AcDbSavedByObjectVersion
1070
     0
  0
VISUALSTYLE
  5
A0
102
{ACAD_REACTORS
330
97
102
}
330
97
100
AcDbVisualStyle
  2
Conceptual
 70
     9
 71
     3
 72
     2
 73
     1
 90
        0
 40
-0.6
 41
-30.0
 62
     5
 63
     7
421
 16777215
 74
     2
 91
        2
 64
     7
 65
   257
 75
     1
175
     1
 42
40.0
 92
        8
 66
     7
 43
1.0
 76
     1
 77
     6
 78
     2
 67
     7
 79
     3
170
     0
171
     0
290
     0
174
     0
 93
        1
 44
0.0
173
     0
291
     0
 45
0.0
1001
ACAD
1000
AcDbSavedByObjectVersion
1070
     0
  0
VISUALSTYLE
  5
A2
102
{ACAD_REACTORS
330
97
102
}
330
97
100
AcDbVisualStyle
  2
Dim
 70
    11
 71
     2
 72
     2
 73
     1
 90
        0
 40
-0.6
 41
-30.0
 62
     5
 63
     7
421
 16777215
 74
     1
 91
        4
 64
     7
 65
   257
 75
     1
175
     1
 42
1.0
 92
        8
 66
     7
 43
1.0
 76
     1
 77
     6
 78
     2
 67
     7
 79
     5
170
     0
171
     0
290
     0
174
     0
 93
        1
 44
-50.0
173
     0
291
     1
 45
0.0
1001
ACAD
1000
AcDbSavedByObjectVersion
1070
     0
  0
VISUALSTYLE
  5
A6
102
{ACAD_REACTORS
330
97
102
}
330
97
100
AcDbVisualStyle
  2
Facepattern
 70
    15
 71
     2
 72
     2
 73
     1
 90
        0
 40
-0.6
 41
-30.0
 62
     5
 63
     7
421
 16777215
 74
     1
 91
        4
 64
     7
 65
   257
 75
     1
175
     1
 42
1.0
 92
        8
 66
     7
 43
1.0
 76
     1
 77
     6
 78
     2
 67
     7
 79
     5
170
     0
171
     0
290
     0
174
     0
 93
        1
 44
0.0
173
     0
291
     1
 45
0.0
1001
ACAD
1000
AcDbSavedByObjectVersion
1070
     0
  0
VISUALSTYLE
  5
98
102
{ACAD_REACTORS
330
97
102
}
330
97
100
AcDbVisualStyle
  2
Flat
 70
     0
 71
     2
 72
     1
 73
     1
 90
        2
 40
-0.6
 41
30.0
 62
     5
 63
     7
421
 16777215
 74
     0
 91
        4
 64
     7
 65
   257
 75
     1
175
     1
 42
1.0
 92
        8
 66
     7
 43
1.0
 76
     1
 77
     6
 78
     2
 67
     7
 79
     5
170
     0
171
     0
290
     0
174
     0
 93
        1
 44
0.0
173
     0
291
     1
 45
0.0
1001
ACAD
1000
AcDbSavedByObjectVersion
1070
     0
  0
VISUALSTYLE
  5
99
102
{ACAD_REACTORS
330
97
102
}
330
97
100
AcDbVisualStyle
  2
FlatWithEdges
 70
     1
 71
     2
 72
     1
 73
     1
 90
        2
 40
-0.6
 41
30.0
 62
     5
 63
     7
421
 16777215
 74
     1
 91
        4
 64
     7
 65
   257
 75
     1
175
     1
 42
1.0
 92
        0
 66
   257
 43
1.0
 76
     1
 77
     6
 78
     2
 67
     7
 79
     5
170
     0
171
     0
290
     0
174
     0
 93
        1
 44
0.0
173
     0
291
     1
 45
0.0
1001
ACAD
1000
AcDbSavedByObjectVersion
1070
     0
  0
VISUALSTYLE
  5
9A
102
{ACAD_REACTORS
330
97
102
}
330
97
100
AcDbVisualStyle
  2
Gouraud
 70
     2
 71
     2
 72
     2
 73
     1
 90
        2
 40
-0.6
 41
30.0
 62
     5
 63
     7
421
 16777215
 74
     0
 91
        4
 64
     7
 65
   257
 75
     1
175
     1
 42
1.0
 92
        0
 66
     7
 43
1.0
 76
     1
 77
     6
 78
     2
 67
     7
 79
     5
170
     0
171
     0
290
     0
174
     0
 93
        1
 44
0.0
173
     0
291
     1
 45
0.0
1001
ACAD
1000
AcDbSavedByObjectVersion
1070
     0
  0
VISUALSTYLE
  5
9B
102
{ACAD_REACTORS
330
97
102
}
330
97
100
AcDbVisualStyle
  2
GouraudWithEdges
 70
     3
 71
     2
 72
     2
 73
     1
 90
        2
 40
-0.6
 41
30.0
 62
     5
 63
     7
421
 16777215
 74
     1
 91
        4
 64
     7
 65
   257
 75
     1
175
     1
 42
1.0
 92
        0
 66
   257
 43
1.0
 76
     1
 77
     6
 78
     2
 67
     7
 79
     5
170
     0
171
     0
290
     0
174
     0
 93
        1
 44
0.0
173
     0
291
     1
 45
0.0
1001
ACAD
1000
AcDbSavedByObjectVersion
1070
     0
  0
VISUALSTYLE
  5
A5
102
{ACAD_REACTORS
330
97
102
}
330
97
100
AcDbVisualStyle
  2
Linepattern
 70
    14
 71
     2
 72
     2
 73
     1
 90
        0
 40
-0.6
 41
-30.0
 62
     5
 63
     7
421
 16777215
 74
     1
 91
        4
 64
     7
 65
   257
 75
     7
175
     7
 42
1.0
 92
        8
 66
     7
 43
1.0
 76
     1
 77
     6
 78
     2
 67
     7
 79
     5
170
     0
171
     0
290
     0
174
     0
 93
        1
 44
0.0
173
     0
291
     1
 45
0.0
1001
ACAD
1000
AcDbSavedByObjectVersion
1070
     0
  0
VISUALSTYLE
  5
A1
102
{ACAD_REACTORS
330
97
102
}
330
97
100
AcDbVisualStyle
  2
Realistic
 70
     8
 71
     2
 72
     2
 73
     1
 90
        0
 40
-0.6
 41
-30.0
 62
     5
 63
     7
421
 16777215
 74
     1
 91
        0
 64
     7
 65
   257
 75
     1
175
     1
 42
1.0
 92
        8
 66
     8
424
  7895160
 43
1.0
 76
     1
 77
     6
 78
     2
 67
     7
 79
     5
170
     0
171
     0
290
     0
174
     0
 93
       13
 44
0.0
173
     0
291
     0
 45
0.0
1001
ACAD
1000
AcDbSavedByObjectVersion
1070
     0
  0
VISUALSTYLE
  5
A4
102
{ACAD_REACTORS
330
97
102
}
330
97
100
AcDbVisualStyle
  2
Thicken
 70
    13
 71
     2
 72
     2
 73
     1
 90
        0
 40
-0.6
 41
-30.0
 62
     5
 63
     7
421
 16777215
 74
     1
 91
        4
 64
     7
 65
   257
 75
     1
175
     1
 42
1.0
 92
       12
 66
     7
 43
1.0
 76
     1
 77
     6
 78
     2
 67
     7
 79
     5
170
     0
171
     0
290
     0
174
     0
 93
        1
 44
0.0
173
     0
291
     1
 45
0.0
1001
ACAD
1000
AcDbSavedByObjectVersion
1070
     0
  0
DICTIONARYVAR
  5
8B
102
{ACAD_REACTORS
330
66
102
}
330
66
100
DictionaryVariables
280
     0
  1
STANDARD
  0
DICTIONARYVAR
  5
67
102
{ACAD_REACTORS
330
66
102
}
330
66
100
DictionaryVariables
280
     0
  1
2
  0
DICTIONARYVAR
  5
6B
102
{ACAD_REACTORS
330
66
102
}
330
66
100
DictionaryVariables
280
     0
  1
1
  0
DICTIONARY
  5
1842
330
95
100
AcDbDictionary
280
     1
281
     1
  3
ACAD_XREC_ROUNDTRIP
360
1843
  0
DICTIONARY
  5
1840
330
94
100
AcDbDictionary
280
     1
281
     1
  3
ACAD_XREC_ROUNDTRIP
360
1841
  0
DICTIONARY
  5
1844
330
96
100
AcDbDictionary
280
     1
281
     1
  3
ACAD_XREC_ROUNDTRIP
360
1845
  0
DICTIONARY
  5
183E
330
87
100
AcDbDictionary
280
     1
281
     1
  3
ACAD_XREC_ROUNDTRIP
360
183F
  0
XRECORD
  5
1843
102
{ACAD_REACTORS
330
1842
102
}
330
1842
100
AcDbXrecord
280
     1
102
MATERIAL
148
0.0
149
0.0
149
0.0
 93
        0
 94
       63
282
     0
 72
     1
 77
     1
171
     1
175
     1
179
     1
273
     0
  0
XRECORD
  5
1841
102
{ACAD_REACTORS
330
1840
102
}
330
1840
100
AcDbXrecord
280
     1
102
MATERIAL
148
0.0
149
0.0
149
0.0
 93
        0
 94
       63
282
     0
 72
     1
 77
     1
171
     1
175
     1
179
     1
273
     0
  0
XRECORD
  5
1845
102
{ACAD_REACTORS
330
1844
102
}
330
1844
100
AcDbXrecord
280
     1
102
MATERIAL
148
0.0
149
0.0
149
0.0
 93
        0
 94
       63
282
     0
 72
     1
 77
     1
171
     1
175
     1
179
     1
273
     0
  0
XRECORD
  5
183F
102
{ACAD_REACTORS
330
183E
102
}
330
183E
100
AcDbXrecord
280
     1
102
ACAD_ROUNDTRIP_PRE2007_TABLESTYLE
 90
      512
 91
        0
  1

 92
      512
 93
        0
  2

 94
      512
 95
        0
  3

  0
ENDSEC
  0
EOF
